G04 #@! TF.FileFunction,Soldermask,Top*
%FSLAX46Y46*%
G04 Gerber Fmt 4.6, Leading zero omitted, Abs format (unit mm)*
G04 Created by KiCad (PCBNEW 4.0.7) date Tuesday, 19 '19e' June '19e' 2018, 11:34:03*
%MOMM*%
%LPD*%
G01*
G04 APERTURE LIST*
%ADD10C,0.100000*%
%ADD11R,2.100000X2.100000*%
%ADD12O,2.100000X2.100000*%
%ADD13C,6.000000*%
%ADD14R,1.000000X1.200000*%
%ADD15R,0.800000X1.400000*%
%ADD16R,2.400000X1.700000*%
%ADD17R,1.400000X0.800000*%
%ADD18R,1.700000X2.400000*%
%ADD19R,0.800000X1.000000*%
%ADD20R,0.850000X1.850000*%
%ADD21R,1.000000X0.900000*%
G04 APERTURE END LIST*
D10*
D11*
X130710745Y-109789517D03*
D12*
X133250745Y-109789517D03*
X130710745Y-107249517D03*
X133250745Y-107249517D03*
X130710745Y-104709517D03*
X133250745Y-104709517D03*
X130710745Y-102169517D03*
X133250745Y-102169517D03*
X130710745Y-99629517D03*
X133250745Y-99629517D03*
X130710745Y-97089517D03*
X133250745Y-97089517D03*
X130710745Y-94549517D03*
X133250745Y-94549517D03*
X130710745Y-92009517D03*
X133250745Y-92009517D03*
X130710745Y-89469517D03*
X133250745Y-89469517D03*
D13*
X131030745Y-83529517D03*
X163230745Y-83529517D03*
X163230745Y-115729517D03*
D14*
X140020745Y-94609517D03*
X138320745Y-94609517D03*
X140020745Y-91529517D03*
X138320745Y-91529517D03*
X140020745Y-88559517D03*
X138320745Y-88559517D03*
D15*
X145630745Y-114129517D03*
X146630745Y-114129517D03*
X147630745Y-114129517D03*
X148630745Y-114129517D03*
D16*
X142830745Y-116829517D03*
X151430745Y-116829517D03*
D17*
X161640745Y-101129517D03*
X161640745Y-100129517D03*
X161640745Y-99129517D03*
X161640745Y-98129517D03*
D18*
X164340745Y-103929517D03*
X164340745Y-95329517D03*
D11*
X137500745Y-109679517D03*
D12*
X137500745Y-107139517D03*
X137500745Y-104599517D03*
X137500745Y-102059517D03*
X137500745Y-99519517D03*
D15*
X148640745Y-85129517D03*
X147640745Y-85129517D03*
X146640745Y-85129517D03*
X145640745Y-85129517D03*
D16*
X151440745Y-82429517D03*
X142840745Y-82429517D03*
D19*
X142780745Y-101229517D03*
X143680745Y-101229517D03*
X142750745Y-99299517D03*
X143650745Y-99299517D03*
X142780745Y-97529517D03*
X143680745Y-97529517D03*
D20*
X145870745Y-101349517D03*
X146520745Y-101349517D03*
X147170745Y-101349517D03*
X147820745Y-101349517D03*
X148470745Y-101349517D03*
X149120745Y-101349517D03*
X149770745Y-101349517D03*
X150420745Y-101349517D03*
X151070745Y-101349517D03*
X151720745Y-101349517D03*
X151720745Y-95449517D03*
X151070745Y-95449517D03*
X150420745Y-95449517D03*
X149770745Y-95449517D03*
X149120745Y-95449517D03*
X148470745Y-95449517D03*
X147820745Y-95449517D03*
X147170745Y-95449517D03*
X146520745Y-95449517D03*
X145870745Y-95449517D03*
D13*
X131030745Y-115729517D03*
D21*
X147980745Y-104309517D03*
X149080745Y-104309517D03*
M02*
