G04 #@! TF.FileFunction,Legend,Bot*
%FSLAX46Y46*%
G04 Gerber Fmt 4.6, Leading zero omitted, Abs format (unit mm)*
G04 Created by KiCad (PCBNEW 4.0.7) date Tuesday, 19 '19e' June '19e' 2018, 11:34:03*
%MOMM*%
%LPD*%
G01*
G04 APERTURE LIST*
%ADD10C,0.100000*%
%ADD11C,0.150000*%
%ADD12C,0.200000*%
%ADD13C,0.120000*%
G04 APERTURE END LIST*
D10*
D11*
X160471429Y-93239286D02*
X160292858Y-93739286D01*
X160114286Y-93239286D01*
X159507143Y-93239286D02*
X159507143Y-93739286D01*
X159685714Y-92953571D02*
X159864286Y-93489286D01*
X159400000Y-93489286D01*
X159114286Y-93667857D02*
X159078571Y-93703571D01*
X159114286Y-93739286D01*
X159150000Y-93703571D01*
X159114286Y-93667857D01*
X159114286Y-93739286D01*
X158614285Y-92989286D02*
X158542857Y-92989286D01*
X158471428Y-93025000D01*
X158435714Y-93060714D01*
X158400000Y-93132143D01*
X158364285Y-93275000D01*
X158364285Y-93453571D01*
X158400000Y-93596429D01*
X158435714Y-93667857D01*
X158471428Y-93703571D01*
X158542857Y-93739286D01*
X158614285Y-93739286D01*
X158685714Y-93703571D01*
X158721428Y-93667857D01*
X158757143Y-93596429D01*
X158792857Y-93453571D01*
X158792857Y-93275000D01*
X158757143Y-93132143D01*
X158721428Y-93060714D01*
X158685714Y-93025000D01*
X158614285Y-92989286D01*
D12*
X160971428Y-91785714D02*
X161085714Y-91842857D01*
X161314285Y-91842857D01*
X161428571Y-91785714D01*
X161485714Y-91671429D01*
X161485714Y-91214286D01*
X161428571Y-91100000D01*
X161314285Y-91042857D01*
X161085714Y-91042857D01*
X160971428Y-91100000D01*
X160914285Y-91214286D01*
X160914285Y-91328571D01*
X161485714Y-91442857D01*
X160400000Y-91842857D02*
X160400000Y-90642857D01*
X160000000Y-91500000D01*
X159600000Y-90642857D01*
X159600000Y-91842857D01*
X158857142Y-91842857D02*
X158971428Y-91785714D01*
X159028571Y-91728571D01*
X159085714Y-91614286D01*
X159085714Y-91271429D01*
X159028571Y-91157143D01*
X158971428Y-91100000D01*
X158857142Y-91042857D01*
X158685714Y-91042857D01*
X158571428Y-91100000D01*
X158514285Y-91157143D01*
X158457142Y-91271429D01*
X158457142Y-91614286D01*
X158514285Y-91728571D01*
X158571428Y-91785714D01*
X158685714Y-91842857D01*
X158857142Y-91842857D01*
X158057142Y-90642857D02*
X157314285Y-90642857D01*
X157714285Y-91100000D01*
X157542857Y-91100000D01*
X157428571Y-91157143D01*
X157371428Y-91214286D01*
X157314285Y-91328571D01*
X157314285Y-91614286D01*
X157371428Y-91728571D01*
X157428571Y-91785714D01*
X157542857Y-91842857D01*
X157885714Y-91842857D01*
X158000000Y-91785714D01*
X158057142Y-91728571D01*
X162671428Y-89242857D02*
X163242857Y-89242857D01*
X163242857Y-88042857D01*
X162271428Y-89242857D02*
X162271428Y-88442857D01*
X162271428Y-88042857D02*
X162328571Y-88100000D01*
X162271428Y-88157143D01*
X162214285Y-88100000D01*
X162271428Y-88042857D01*
X162271428Y-88157143D01*
X161871427Y-88442857D02*
X161414284Y-88442857D01*
X161699999Y-89242857D02*
X161699999Y-88214286D01*
X161642856Y-88100000D01*
X161528570Y-88042857D01*
X161414284Y-88042857D01*
X160557142Y-89185714D02*
X160671428Y-89242857D01*
X160899999Y-89242857D01*
X161014285Y-89185714D01*
X161071428Y-89071429D01*
X161071428Y-88614286D01*
X161014285Y-88500000D01*
X160899999Y-88442857D01*
X160671428Y-88442857D01*
X160557142Y-88500000D01*
X160499999Y-88614286D01*
X160499999Y-88728571D01*
X161071428Y-88842857D01*
X160042857Y-89185714D02*
X159871428Y-89242857D01*
X159585714Y-89242857D01*
X159471428Y-89185714D01*
X159414285Y-89128571D01*
X159357142Y-89014286D01*
X159357142Y-88900000D01*
X159414285Y-88785714D01*
X159471428Y-88728571D01*
X159585714Y-88671429D01*
X159814285Y-88614286D01*
X159928571Y-88557143D01*
X159985714Y-88500000D01*
X160042857Y-88385714D01*
X160042857Y-88271429D01*
X159985714Y-88157143D01*
X159928571Y-88100000D01*
X159814285Y-88042857D01*
X159528571Y-88042857D01*
X159357142Y-88100000D01*
X159014285Y-88042857D02*
X158328571Y-88042857D01*
X158671428Y-89242857D02*
X158671428Y-88042857D01*
X157471428Y-89185714D02*
X157585714Y-89242857D01*
X157814285Y-89242857D01*
X157928571Y-89185714D01*
X157985714Y-89071429D01*
X157985714Y-88614286D01*
X157928571Y-88500000D01*
X157814285Y-88442857D01*
X157585714Y-88442857D01*
X157471428Y-88500000D01*
X157414285Y-88614286D01*
X157414285Y-88728571D01*
X157985714Y-88842857D01*
X156385714Y-89185714D02*
X156500000Y-89242857D01*
X156728571Y-89242857D01*
X156842857Y-89185714D01*
X156900000Y-89128571D01*
X156957143Y-89014286D01*
X156957143Y-88671429D01*
X156900000Y-88557143D01*
X156842857Y-88500000D01*
X156728571Y-88442857D01*
X156500000Y-88442857D01*
X156385714Y-88500000D01*
X155871429Y-89242857D02*
X155871429Y-88042857D01*
X155357143Y-89242857D02*
X155357143Y-88614286D01*
X155414286Y-88500000D01*
X155528572Y-88442857D01*
X155700000Y-88442857D01*
X155814286Y-88500000D01*
X155871429Y-88557143D01*
D10*
X140671428Y-104254517D02*
X140742857Y-104218803D01*
X140850000Y-104218803D01*
X140957143Y-104254517D01*
X141028571Y-104325946D01*
X141064286Y-104397374D01*
X141100000Y-104540231D01*
X141100000Y-104647374D01*
X141064286Y-104790231D01*
X141028571Y-104861660D01*
X140957143Y-104933088D01*
X140850000Y-104968803D01*
X140778571Y-104968803D01*
X140671428Y-104933088D01*
X140635714Y-104897374D01*
X140635714Y-104647374D01*
X140778571Y-104647374D01*
X140314286Y-104968803D02*
X140314286Y-104218803D01*
X139885714Y-104968803D01*
X139885714Y-104218803D01*
X139528572Y-104968803D02*
X139528572Y-104218803D01*
X139350000Y-104218803D01*
X139242857Y-104254517D01*
X139171429Y-104325946D01*
X139135714Y-104397374D01*
X139100000Y-104540231D01*
X139100000Y-104647374D01*
X139135714Y-104790231D01*
X139171429Y-104861660D01*
X139242857Y-104933088D01*
X139350000Y-104968803D01*
X139528572Y-104968803D01*
X140289286Y-99839286D02*
X140289286Y-99089286D01*
X139860714Y-99839286D01*
X139860714Y-99089286D01*
X139075000Y-99767857D02*
X139110714Y-99803571D01*
X139217857Y-99839286D01*
X139289286Y-99839286D01*
X139396429Y-99803571D01*
X139467857Y-99732143D01*
X139503572Y-99660714D01*
X139539286Y-99517857D01*
X139539286Y-99410714D01*
X139503572Y-99267857D01*
X139467857Y-99196429D01*
X139396429Y-99125000D01*
X139289286Y-99089286D01*
X139217857Y-99089286D01*
X139110714Y-99125000D01*
X139075000Y-99160714D01*
X129048602Y-89868803D02*
X129048602Y-89118803D01*
X129048602Y-89404517D02*
X128977173Y-89368803D01*
X128834316Y-89368803D01*
X128762887Y-89404517D01*
X128727173Y-89440231D01*
X128691459Y-89511660D01*
X128691459Y-89725946D01*
X128727173Y-89797374D01*
X128762887Y-89833088D01*
X128834316Y-89868803D01*
X128977173Y-89868803D01*
X129048602Y-89833088D01*
X128262888Y-89440231D02*
X128334316Y-89404517D01*
X128370031Y-89368803D01*
X128405745Y-89297374D01*
X128405745Y-89261660D01*
X128370031Y-89190231D01*
X128334316Y-89154517D01*
X128262888Y-89118803D01*
X128120031Y-89118803D01*
X128048602Y-89154517D01*
X128012888Y-89190231D01*
X127977173Y-89261660D01*
X127977173Y-89297374D01*
X128012888Y-89368803D01*
X128048602Y-89404517D01*
X128120031Y-89440231D01*
X128262888Y-89440231D01*
X128334316Y-89475946D01*
X128370031Y-89511660D01*
X128405745Y-89583088D01*
X128405745Y-89725946D01*
X128370031Y-89797374D01*
X128334316Y-89833088D01*
X128262888Y-89868803D01*
X128120031Y-89868803D01*
X128048602Y-89833088D01*
X128012888Y-89797374D01*
X127977173Y-89725946D01*
X127977173Y-89583088D01*
X128012888Y-89511660D01*
X128048602Y-89475946D01*
X128120031Y-89440231D01*
X129048602Y-92368803D02*
X129048602Y-91618803D01*
X129048602Y-91904517D02*
X128977173Y-91868803D01*
X128834316Y-91868803D01*
X128762887Y-91904517D01*
X128727173Y-91940231D01*
X128691459Y-92011660D01*
X128691459Y-92225946D01*
X128727173Y-92297374D01*
X128762887Y-92333088D01*
X128834316Y-92368803D01*
X128977173Y-92368803D01*
X129048602Y-92333088D01*
X128441459Y-91618803D02*
X127941459Y-91618803D01*
X128262888Y-92368803D01*
X129048602Y-94868803D02*
X129048602Y-94118803D01*
X129048602Y-94404517D02*
X128977173Y-94368803D01*
X128834316Y-94368803D01*
X128762887Y-94404517D01*
X128727173Y-94440231D01*
X128691459Y-94511660D01*
X128691459Y-94725946D01*
X128727173Y-94797374D01*
X128762887Y-94833088D01*
X128834316Y-94868803D01*
X128977173Y-94868803D01*
X129048602Y-94833088D01*
X128048602Y-94118803D02*
X128191459Y-94118803D01*
X128262888Y-94154517D01*
X128298602Y-94190231D01*
X128370031Y-94297374D01*
X128405745Y-94440231D01*
X128405745Y-94725946D01*
X128370031Y-94797374D01*
X128334316Y-94833088D01*
X128262888Y-94868803D01*
X128120031Y-94868803D01*
X128048602Y-94833088D01*
X128012888Y-94797374D01*
X127977173Y-94725946D01*
X127977173Y-94547374D01*
X128012888Y-94475946D01*
X128048602Y-94440231D01*
X128120031Y-94404517D01*
X128262888Y-94404517D01*
X128334316Y-94440231D01*
X128370031Y-94475946D01*
X128405745Y-94547374D01*
X129048602Y-97468803D02*
X129048602Y-96718803D01*
X129048602Y-97004517D02*
X128977173Y-96968803D01*
X128834316Y-96968803D01*
X128762887Y-97004517D01*
X128727173Y-97040231D01*
X128691459Y-97111660D01*
X128691459Y-97325946D01*
X128727173Y-97397374D01*
X128762887Y-97433088D01*
X128834316Y-97468803D01*
X128977173Y-97468803D01*
X129048602Y-97433088D01*
X128012888Y-96718803D02*
X128370031Y-96718803D01*
X128405745Y-97075946D01*
X128370031Y-97040231D01*
X128298602Y-97004517D01*
X128120031Y-97004517D01*
X128048602Y-97040231D01*
X128012888Y-97075946D01*
X127977173Y-97147374D01*
X127977173Y-97325946D01*
X128012888Y-97397374D01*
X128048602Y-97433088D01*
X128120031Y-97468803D01*
X128298602Y-97468803D01*
X128370031Y-97433088D01*
X128405745Y-97397374D01*
X129048602Y-99968803D02*
X129048602Y-99218803D01*
X129048602Y-99504517D02*
X128977173Y-99468803D01*
X128834316Y-99468803D01*
X128762887Y-99504517D01*
X128727173Y-99540231D01*
X128691459Y-99611660D01*
X128691459Y-99825946D01*
X128727173Y-99897374D01*
X128762887Y-99933088D01*
X128834316Y-99968803D01*
X128977173Y-99968803D01*
X129048602Y-99933088D01*
X128048602Y-99468803D02*
X128048602Y-99968803D01*
X128227173Y-99183088D02*
X128405745Y-99718803D01*
X127941459Y-99718803D01*
X129048602Y-102468803D02*
X129048602Y-101718803D01*
X129048602Y-102004517D02*
X128977173Y-101968803D01*
X128834316Y-101968803D01*
X128762887Y-102004517D01*
X128727173Y-102040231D01*
X128691459Y-102111660D01*
X128691459Y-102325946D01*
X128727173Y-102397374D01*
X128762887Y-102433088D01*
X128834316Y-102468803D01*
X128977173Y-102468803D01*
X129048602Y-102433088D01*
X128441459Y-101718803D02*
X127977173Y-101718803D01*
X128227173Y-102004517D01*
X128120031Y-102004517D01*
X128048602Y-102040231D01*
X128012888Y-102075946D01*
X127977173Y-102147374D01*
X127977173Y-102325946D01*
X128012888Y-102397374D01*
X128048602Y-102433088D01*
X128120031Y-102468803D01*
X128334316Y-102468803D01*
X128405745Y-102433088D01*
X128441459Y-102397374D01*
X129048602Y-105068803D02*
X129048602Y-104318803D01*
X129048602Y-104604517D02*
X128977173Y-104568803D01*
X128834316Y-104568803D01*
X128762887Y-104604517D01*
X128727173Y-104640231D01*
X128691459Y-104711660D01*
X128691459Y-104925946D01*
X128727173Y-104997374D01*
X128762887Y-105033088D01*
X128834316Y-105068803D01*
X128977173Y-105068803D01*
X129048602Y-105033088D01*
X128405745Y-104390231D02*
X128370031Y-104354517D01*
X128298602Y-104318803D01*
X128120031Y-104318803D01*
X128048602Y-104354517D01*
X128012888Y-104390231D01*
X127977173Y-104461660D01*
X127977173Y-104533088D01*
X128012888Y-104640231D01*
X128441459Y-105068803D01*
X127977173Y-105068803D01*
X129048602Y-107568803D02*
X129048602Y-106818803D01*
X129048602Y-107104517D02*
X128977173Y-107068803D01*
X128834316Y-107068803D01*
X128762887Y-107104517D01*
X128727173Y-107140231D01*
X128691459Y-107211660D01*
X128691459Y-107425946D01*
X128727173Y-107497374D01*
X128762887Y-107533088D01*
X128834316Y-107568803D01*
X128977173Y-107568803D01*
X129048602Y-107533088D01*
X127977173Y-107568803D02*
X128405745Y-107568803D01*
X128191459Y-107568803D02*
X128191459Y-106818803D01*
X128262888Y-106925946D01*
X128334316Y-106997374D01*
X128405745Y-107033088D01*
X129048602Y-110068803D02*
X129048602Y-109318803D01*
X129048602Y-109604517D02*
X128977173Y-109568803D01*
X128834316Y-109568803D01*
X128762887Y-109604517D01*
X128727173Y-109640231D01*
X128691459Y-109711660D01*
X128691459Y-109925946D01*
X128727173Y-109997374D01*
X128762887Y-110033088D01*
X128834316Y-110068803D01*
X128977173Y-110068803D01*
X129048602Y-110033088D01*
X128227173Y-109318803D02*
X128155745Y-109318803D01*
X128084316Y-109354517D01*
X128048602Y-109390231D01*
X128012888Y-109461660D01*
X127977173Y-109604517D01*
X127977173Y-109783088D01*
X128012888Y-109925946D01*
X128048602Y-109997374D01*
X128084316Y-110033088D01*
X128155745Y-110068803D01*
X128227173Y-110068803D01*
X128298602Y-110033088D01*
X128334316Y-109997374D01*
X128370031Y-109925946D01*
X128405745Y-109783088D01*
X128405745Y-109604517D01*
X128370031Y-109461660D01*
X128334316Y-109390231D01*
X128298602Y-109354517D01*
X128227173Y-109318803D01*
X141632143Y-102368803D02*
X141632143Y-101618803D01*
X141203571Y-102368803D01*
X141203571Y-101618803D01*
X140417857Y-102368803D02*
X140667857Y-102011660D01*
X140846429Y-102368803D02*
X140846429Y-101618803D01*
X140560714Y-101618803D01*
X140489286Y-101654517D01*
X140453571Y-101690231D01*
X140417857Y-101761660D01*
X140417857Y-101868803D01*
X140453571Y-101940231D01*
X140489286Y-101975946D01*
X140560714Y-102011660D01*
X140846429Y-102011660D01*
X140132143Y-102333088D02*
X140025000Y-102368803D01*
X139846429Y-102368803D01*
X139775000Y-102333088D01*
X139739286Y-102297374D01*
X139703571Y-102225946D01*
X139703571Y-102154517D01*
X139739286Y-102083088D01*
X139775000Y-102047374D01*
X139846429Y-102011660D01*
X139989286Y-101975946D01*
X140060714Y-101940231D01*
X140096429Y-101904517D01*
X140132143Y-101833088D01*
X140132143Y-101761660D01*
X140096429Y-101690231D01*
X140060714Y-101654517D01*
X139989286Y-101618803D01*
X139810714Y-101618803D01*
X139703571Y-101654517D01*
X139489285Y-101618803D02*
X139060714Y-101618803D01*
X139275000Y-102368803D02*
X139275000Y-101618803D01*
X141550000Y-107403571D02*
X141442857Y-107439286D01*
X141264286Y-107439286D01*
X141192857Y-107403571D01*
X141157143Y-107367857D01*
X141121428Y-107296429D01*
X141121428Y-107225000D01*
X141157143Y-107153571D01*
X141192857Y-107117857D01*
X141264286Y-107082143D01*
X141407143Y-107046429D01*
X141478571Y-107010714D01*
X141514286Y-106975000D01*
X141550000Y-106903571D01*
X141550000Y-106832143D01*
X141514286Y-106760714D01*
X141478571Y-106725000D01*
X141407143Y-106689286D01*
X141228571Y-106689286D01*
X141121428Y-106725000D01*
X140871428Y-106689286D02*
X140692857Y-107439286D01*
X140550000Y-106903571D01*
X140407142Y-107439286D01*
X140228571Y-106689286D01*
X139942857Y-107439286D02*
X139942857Y-106689286D01*
X139585714Y-107439286D02*
X139585714Y-106689286D01*
X139335714Y-107225000D01*
X139085714Y-106689286D01*
X139085714Y-107439286D01*
X140828571Y-109218803D02*
X140364285Y-109218803D01*
X140614285Y-109504517D01*
X140507143Y-109504517D01*
X140435714Y-109540231D01*
X140400000Y-109575946D01*
X140364285Y-109647374D01*
X140364285Y-109825946D01*
X140400000Y-109897374D01*
X140435714Y-109933088D01*
X140507143Y-109968803D01*
X140721428Y-109968803D01*
X140792857Y-109933088D01*
X140828571Y-109897374D01*
X140149999Y-109218803D02*
X139899999Y-109968803D01*
X139649999Y-109218803D01*
X139471428Y-109218803D02*
X139007142Y-109218803D01*
X139257142Y-109504517D01*
X139150000Y-109504517D01*
X139078571Y-109540231D01*
X139042857Y-109575946D01*
X139007142Y-109647374D01*
X139007142Y-109825946D01*
X139042857Y-109897374D01*
X139078571Y-109933088D01*
X139150000Y-109968803D01*
X139364285Y-109968803D01*
X139435714Y-109933088D01*
X139471428Y-109897374D01*
D13*
X129380745Y-88139517D02*
X134580745Y-88139517D01*
X129380745Y-108519517D02*
X129380745Y-88139517D01*
X134580745Y-111119517D02*
X134580745Y-88139517D01*
X129380745Y-108519517D02*
X131980745Y-108519517D01*
X131980745Y-108519517D02*
X131980745Y-111119517D01*
X131980745Y-111119517D02*
X134580745Y-111119517D01*
X129380745Y-109789517D02*
X129380745Y-111119517D01*
X129380745Y-111119517D02*
X130710745Y-111119517D01*
X144580745Y-101469517D02*
X144580745Y-100569517D01*
X144580745Y-97869517D02*
X149480745Y-97869517D01*
X149480745Y-101469517D02*
X144580745Y-101469517D01*
X136170745Y-98189517D02*
X138830745Y-98189517D01*
X136170745Y-108409517D02*
X136170745Y-98189517D01*
X138830745Y-108409517D02*
X138830745Y-98189517D01*
X136170745Y-108409517D02*
X138830745Y-108409517D01*
X136170745Y-109679517D02*
X136170745Y-111009517D01*
X136170745Y-111009517D02*
X137500745Y-111009517D01*
D10*
X132230745Y-111708803D02*
X132230745Y-112244517D01*
X132266459Y-112351660D01*
X132337888Y-112423088D01*
X132445031Y-112458803D01*
X132516459Y-112458803D01*
X131516459Y-111708803D02*
X131873602Y-111708803D01*
X131909316Y-112065946D01*
X131873602Y-112030231D01*
X131802173Y-111994517D01*
X131623602Y-111994517D01*
X131552173Y-112030231D01*
X131516459Y-112065946D01*
X131480744Y-112137374D01*
X131480744Y-112315946D01*
X131516459Y-112387374D01*
X131552173Y-112423088D01*
X131623602Y-112458803D01*
X131802173Y-112458803D01*
X131873602Y-112423088D01*
X131909316Y-112387374D01*
X147684317Y-102558803D02*
X147684317Y-101808803D01*
X147505745Y-101808803D01*
X147398602Y-101844517D01*
X147327174Y-101915946D01*
X147291459Y-101987374D01*
X147255745Y-102130231D01*
X147255745Y-102237374D01*
X147291459Y-102380231D01*
X147327174Y-102451660D01*
X147398602Y-102523088D01*
X147505745Y-102558803D01*
X147684317Y-102558803D01*
X146541459Y-102558803D02*
X146970031Y-102558803D01*
X146755745Y-102558803D02*
X146755745Y-101808803D01*
X146827174Y-101915946D01*
X146898602Y-101987374D01*
X146970031Y-102023088D01*
X137750745Y-111598803D02*
X137750745Y-112134517D01*
X137786459Y-112241660D01*
X137857888Y-112313088D01*
X137965031Y-112348803D01*
X138036459Y-112348803D01*
X137465030Y-111598803D02*
X137000744Y-111598803D01*
X137250744Y-111884517D01*
X137143602Y-111884517D01*
X137072173Y-111920231D01*
X137036459Y-111955946D01*
X137000744Y-112027374D01*
X137000744Y-112205946D01*
X137036459Y-112277374D01*
X137072173Y-112313088D01*
X137143602Y-112348803D01*
X137357887Y-112348803D01*
X137429316Y-112313088D01*
X137465030Y-112277374D01*
M02*
