M48
;DRILL file {KiCad 4.0.7} date Tuesday, 19 '19e' June '19e' 2018, 11:34:05
;FORMAT={3:3/ absolute / metric / suppress leading zeros}
FMAT,2
METRIC,TZ
T1C0.300
T2C1.000
T3C3.200
%
G90
G05
M71
T1
X128231Y-113130
X128331Y-86230
X132131Y-111030
X133931Y-80930
X134031Y-118130
X134831Y-97030
X136631Y-90530
X137031Y-95130
X138431Y-97730
X139231Y-111130
X139331Y-102330
X139331Y-108630
X140131Y-90030
X140600Y-85700
X140631Y-93130
X141831Y-91530
X141831Y-94630
X141831Y-104530
X142031Y-114430
X143731Y-92230
X143731Y-98430
X143731Y-100230
X143731Y-102130
X145131Y-110630
X145200Y-103100
X145631Y-87430
X146700Y-106900
X147600Y-111100
X148600Y-88300
X148631Y-91530
X148631Y-92430
X148731Y-96930
X148800Y-112500
X150100Y-103300
X150231Y-96930
X150431Y-97980
X151731Y-99830
X151731Y-103430
X153100Y-97700
X153100Y-108600
X153131Y-100130
X154800Y-83900
X154800Y-93600
X154800Y-116200
X157700Y-100100
X158800Y-110100
X159000Y-89100
X160331Y-118130
X160431Y-80930
X160900Y-96600
X165431Y-86630
X165431Y-112630
T2
X130711Y-89470
X130711Y-92010
X130711Y-94550
X130711Y-97090
X130711Y-99630
X130711Y-102170
X130711Y-104710
X130711Y-107250
X130711Y-109790
X133251Y-89470
X133251Y-92010
X133251Y-94550
X133251Y-97090
X133251Y-99630
X133251Y-102170
X133251Y-104710
X133251Y-107250
X133251Y-109790
X137501Y-99520
X137501Y-102060
X137501Y-104600
X137501Y-107140
X137501Y-109680
T3
X131031Y-83530
X131031Y-115730
X163231Y-83530
X163231Y-115730
T0
M30
