G04 #@! TF.FileFunction,Copper,L2,Bot,Signal*
%FSLAX46Y46*%
G04 Gerber Fmt 4.6, Leading zero omitted, Abs format (unit mm)*
G04 Created by KiCad (PCBNEW 4.0.7) date Tuesday, 19 '19e' June '19e' 2018, 11:34:03*
%MOMM*%
%LPD*%
G01*
G04 APERTURE LIST*
%ADD10C,0.100000*%
%ADD11C,0.600000*%
%ADD12R,1.700000X1.700000*%
%ADD13O,1.700000X1.700000*%
%ADD14C,5.600000*%
%ADD15R,1.300000X0.700000*%
%ADD16C,0.500000*%
%ADD17C,0.200000*%
%ADD18C,0.254000*%
G04 APERTURE END LIST*
D10*
D11*
X153100000Y-97700000D03*
X157700000Y-100100000D03*
X154800000Y-93600000D03*
X140600000Y-85700000D03*
X148600000Y-88300000D03*
X154800000Y-83900000D03*
X159000000Y-89100000D03*
X154800000Y-116200000D03*
X158800000Y-110100000D03*
X153100000Y-108600000D03*
X150100000Y-103300000D03*
D12*
X130710745Y-109789517D03*
D13*
X133250745Y-109789517D03*
X130710745Y-107249517D03*
X133250745Y-107249517D03*
X130710745Y-104709517D03*
X133250745Y-104709517D03*
X130710745Y-102169517D03*
X133250745Y-102169517D03*
X130710745Y-99629517D03*
X133250745Y-99629517D03*
X130710745Y-97089517D03*
X133250745Y-97089517D03*
X130710745Y-94549517D03*
X133250745Y-94549517D03*
X130710745Y-92009517D03*
X133250745Y-92009517D03*
X130710745Y-89469517D03*
X133250745Y-89469517D03*
D11*
X148800000Y-112500000D03*
X139230745Y-111129517D03*
X146700000Y-106900000D03*
X139330745Y-108629517D03*
X138430745Y-97729517D03*
X139330745Y-102329517D03*
X140630745Y-93129517D03*
X160330745Y-118129517D03*
X165430745Y-112629517D03*
X165430745Y-86629517D03*
X160430745Y-80929517D03*
X160900000Y-96600000D03*
X133930745Y-80929517D03*
X128330745Y-86229517D03*
X128230745Y-113129517D03*
X134030745Y-118129517D03*
X145130745Y-110629517D03*
X153130745Y-100129517D03*
D14*
X131030745Y-83529517D03*
X163230745Y-83529517D03*
X163230745Y-115729517D03*
D15*
X145580745Y-100769517D03*
X145580745Y-99669517D03*
X145580745Y-98569517D03*
X148680745Y-98569517D03*
X148680745Y-99669517D03*
X148680745Y-100769517D03*
D12*
X137500745Y-109679517D03*
D13*
X137500745Y-107139517D03*
X137500745Y-104599517D03*
X137500745Y-102059517D03*
X137500745Y-99519517D03*
D14*
X131030745Y-115729517D03*
D11*
X142030745Y-114429517D03*
D16*
X143730745Y-102129517D03*
X143730745Y-100229517D03*
X143730745Y-98429517D03*
X150230745Y-96929517D03*
X150430745Y-97979517D03*
X148730745Y-96929517D03*
X132130745Y-111029517D03*
X141830745Y-94629517D03*
X151730745Y-99829517D03*
X137030745Y-95129517D03*
X141830745Y-91529517D03*
X148630745Y-91529517D03*
X136630745Y-90529517D03*
X140130745Y-90029517D03*
X134830745Y-97029517D03*
X143730745Y-92229517D03*
X148630745Y-92429517D03*
X151730745Y-103429517D03*
X145630745Y-87429517D03*
X141830745Y-104529517D03*
X147600000Y-111100000D03*
X145200000Y-103100000D03*
D17*
X145580745Y-100769517D02*
X145280745Y-100769517D01*
X145280745Y-100769517D02*
X143920745Y-102129517D01*
X143920745Y-102129517D02*
X143730745Y-102129517D01*
X143730745Y-100229517D02*
X144084298Y-100229517D01*
X144084298Y-100229517D02*
X144644298Y-99669517D01*
X144730745Y-99669517D02*
X145580745Y-99669517D01*
X144644298Y-99669517D02*
X144730745Y-99669517D01*
X143730745Y-98429517D02*
X145440745Y-98429517D01*
X145440745Y-98429517D02*
X145580745Y-98569517D01*
X148680745Y-98569517D02*
X148980745Y-98569517D01*
X148980745Y-98569517D02*
X150230745Y-97319517D01*
X150230745Y-97319517D02*
X150230745Y-96929517D01*
X148680745Y-99669517D02*
X149530745Y-99669517D01*
X149530745Y-99669517D02*
X150430745Y-98769517D01*
X150430745Y-98769517D02*
X150430745Y-97979517D01*
X147430745Y-100369517D02*
X147430745Y-98229517D01*
X147430745Y-98229517D02*
X148730745Y-96929517D01*
X148680745Y-100769517D02*
X147830745Y-100769517D01*
X147830745Y-100769517D02*
X147430745Y-100369517D01*
X132030745Y-103389517D02*
X132030745Y-110929517D01*
X132030745Y-110929517D02*
X132130745Y-111029517D01*
X133250745Y-102169517D02*
X132030745Y-103389517D01*
X151730745Y-99829517D02*
X151730745Y-97615515D01*
X151730745Y-97615515D02*
X148744747Y-94629517D01*
X148744747Y-94629517D02*
X141830745Y-94629517D01*
X135730745Y-110729517D02*
X135730745Y-96429517D01*
X135730745Y-96429517D02*
X137030745Y-95129517D01*
X134830745Y-111629517D02*
X135730745Y-110729517D01*
X131500745Y-111629517D02*
X134830745Y-111629517D01*
X130710745Y-109789517D02*
X130710745Y-110839517D01*
X130710745Y-110839517D02*
X131500745Y-111629517D01*
X148630745Y-91529517D02*
X141830745Y-91529517D01*
X130130745Y-87829517D02*
X133930745Y-87829517D01*
X133930745Y-87829517D02*
X136630745Y-90529517D01*
X128930745Y-89029517D02*
X130130745Y-87829517D01*
X128930745Y-95309517D02*
X128930745Y-89029517D01*
X130710745Y-97089517D02*
X128930745Y-95309517D01*
X134830745Y-96429517D02*
X140130745Y-91129517D01*
X140130745Y-91129517D02*
X140130745Y-90029517D01*
X134830745Y-97029517D02*
X134830745Y-96429517D01*
X148630745Y-92429517D02*
X143930745Y-92429517D01*
X143930745Y-92429517D02*
X143730745Y-92229517D01*
X154830745Y-97529517D02*
X154830745Y-96629517D01*
X154830745Y-96629517D02*
X145630745Y-87429517D01*
X154830745Y-97529517D02*
X154830745Y-100329517D01*
X154830745Y-100329517D02*
X151730745Y-103429517D01*
X141830745Y-104529517D02*
X140110745Y-104529517D01*
X140110745Y-104529517D02*
X137500745Y-107139517D01*
X135130745Y-95209517D02*
X135130745Y-91349517D01*
X135130745Y-91349517D02*
X133250745Y-89469517D01*
X133250745Y-97089517D02*
X135130745Y-95209517D01*
X134930745Y-103029517D02*
X134930745Y-98769517D01*
X134930745Y-98769517D02*
X133250745Y-97089517D01*
X133250745Y-104709517D02*
X134930745Y-103029517D01*
X145200000Y-103100000D02*
X147600000Y-105500000D01*
X147600000Y-105500000D02*
X147600000Y-111100000D01*
D18*
G36*
X160320391Y-81581205D02*
X159796342Y-82843256D01*
X159795150Y-84209783D01*
X160316995Y-85472746D01*
X161282433Y-86439871D01*
X162544484Y-86963920D01*
X163911011Y-86965112D01*
X165173974Y-86443267D01*
X165703745Y-85914420D01*
X165703745Y-113344768D01*
X165179057Y-112819163D01*
X163917006Y-112295114D01*
X162550479Y-112293922D01*
X161287516Y-112815767D01*
X160320391Y-113781205D01*
X159796342Y-115043256D01*
X159795150Y-116409783D01*
X160316995Y-117672746D01*
X161045493Y-118402517D01*
X133215145Y-118402517D01*
X133941099Y-117677829D01*
X134465148Y-116415778D01*
X134466340Y-115049251D01*
X133944495Y-113786288D01*
X132979057Y-112819163D01*
X131884147Y-112364517D01*
X134830745Y-112364517D01*
X135112017Y-112308568D01*
X135350468Y-112149240D01*
X136250468Y-111249241D01*
X136353539Y-111094985D01*
X136398855Y-111125948D01*
X136650745Y-111176957D01*
X138350745Y-111176957D01*
X138586062Y-111132679D01*
X138802186Y-110993607D01*
X138947176Y-110781407D01*
X138998185Y-110529517D01*
X138998185Y-108829517D01*
X138953907Y-108594200D01*
X138814835Y-108378076D01*
X138602635Y-108233086D01*
X138535204Y-108219431D01*
X138579892Y-108189571D01*
X138901799Y-107707802D01*
X139014838Y-107139517D01*
X138936089Y-106743619D01*
X140415192Y-105264517D01*
X141313975Y-105264517D01*
X141328778Y-105279346D01*
X141653935Y-105414363D01*
X142006010Y-105414670D01*
X142331402Y-105280221D01*
X142580574Y-105031484D01*
X142715591Y-104706327D01*
X142715898Y-104354252D01*
X142581449Y-104028860D01*
X142332712Y-103779688D01*
X142007555Y-103644671D01*
X141655480Y-103644364D01*
X141330088Y-103778813D01*
X141314357Y-103794517D01*
X140110745Y-103794517D01*
X139876139Y-103841184D01*
X139829472Y-103850466D01*
X139591021Y-104009794D01*
X138839346Y-104761470D01*
X138820900Y-104726517D01*
X137627745Y-104726517D01*
X137627745Y-104746517D01*
X137373745Y-104746517D01*
X137373745Y-104726517D01*
X137353745Y-104726517D01*
X137353745Y-104472517D01*
X137373745Y-104472517D01*
X137373745Y-104452517D01*
X137627745Y-104452517D01*
X137627745Y-104472517D01*
X138820900Y-104472517D01*
X138942221Y-104242627D01*
X138772390Y-103832593D01*
X138382103Y-103404334D01*
X138239192Y-103337219D01*
X138579892Y-103109571D01*
X138901799Y-102627802D01*
X139014838Y-102059517D01*
X138901799Y-101491232D01*
X138579892Y-101009463D01*
X138250719Y-100789517D01*
X138579892Y-100569571D01*
X138901799Y-100087802D01*
X139014838Y-99519517D01*
X138901799Y-98951232D01*
X138579892Y-98469463D01*
X138098123Y-98147556D01*
X137529838Y-98034517D01*
X137471652Y-98034517D01*
X136903367Y-98147556D01*
X136465745Y-98439965D01*
X136465745Y-96733963D01*
X137185057Y-96014652D01*
X137206010Y-96014670D01*
X137531402Y-95880221D01*
X137780574Y-95631484D01*
X137915591Y-95306327D01*
X137915898Y-94954252D01*
X137854139Y-94804782D01*
X140945592Y-94804782D01*
X141080041Y-95130174D01*
X141328778Y-95379346D01*
X141653935Y-95514363D01*
X142006010Y-95514670D01*
X142331402Y-95380221D01*
X142347133Y-95364517D01*
X148440301Y-95364517D01*
X149492135Y-96416351D01*
X149480916Y-96427550D01*
X149480688Y-96428098D01*
X149232712Y-96179688D01*
X148907555Y-96044671D01*
X148555480Y-96044364D01*
X148230088Y-96178813D01*
X147980916Y-96427550D01*
X147845899Y-96752707D01*
X147845880Y-96774936D01*
X146911022Y-97709794D01*
X146781788Y-97903205D01*
X146694835Y-97768076D01*
X146482635Y-97623086D01*
X146230745Y-97572077D01*
X144930745Y-97572077D01*
X144695428Y-97616355D01*
X144573961Y-97694517D01*
X144247515Y-97694517D01*
X144232712Y-97679688D01*
X143907555Y-97544671D01*
X143555480Y-97544364D01*
X143230088Y-97678813D01*
X142980916Y-97927550D01*
X142845899Y-98252707D01*
X142845592Y-98604782D01*
X142980041Y-98930174D01*
X143228778Y-99179346D01*
X143553935Y-99314363D01*
X143906010Y-99314670D01*
X143997502Y-99276866D01*
X143923201Y-99351168D01*
X143907555Y-99344671D01*
X143555480Y-99344364D01*
X143230088Y-99478813D01*
X142980916Y-99727550D01*
X142845899Y-100052707D01*
X142845592Y-100404782D01*
X142980041Y-100730174D01*
X143228778Y-100979346D01*
X143553935Y-101114363D01*
X143896154Y-101114661D01*
X143766268Y-101244548D01*
X143555480Y-101244364D01*
X143230088Y-101378813D01*
X142980916Y-101627550D01*
X142845899Y-101952707D01*
X142845592Y-102304782D01*
X142980041Y-102630174D01*
X143228778Y-102879346D01*
X143553935Y-103014363D01*
X143906010Y-103014670D01*
X144231402Y-102880221D01*
X144404923Y-102707003D01*
X144315154Y-102923190D01*
X144314847Y-103275265D01*
X144449296Y-103600657D01*
X144698033Y-103849829D01*
X145023190Y-103984846D01*
X145045419Y-103984865D01*
X146865000Y-105804447D01*
X146865000Y-110583230D01*
X146850171Y-110598033D01*
X146715154Y-110923190D01*
X146714847Y-111275265D01*
X146849296Y-111600657D01*
X147098033Y-111849829D01*
X147423190Y-111984846D01*
X147775265Y-111985153D01*
X148100657Y-111850704D01*
X148349829Y-111601967D01*
X148484846Y-111276810D01*
X148485153Y-110924735D01*
X148350704Y-110599343D01*
X148335000Y-110583612D01*
X148335000Y-105500000D01*
X148279051Y-105218728D01*
X148272262Y-105208568D01*
X148119724Y-104980277D01*
X146085135Y-102945689D01*
X146085153Y-102924735D01*
X145950704Y-102599343D01*
X145701967Y-102350171D01*
X145376810Y-102215154D01*
X145024735Y-102214847D01*
X144769330Y-102320378D01*
X145322752Y-101766957D01*
X146230745Y-101766957D01*
X146466062Y-101722679D01*
X146682186Y-101583607D01*
X146827176Y-101371407D01*
X146878185Y-101119517D01*
X146878185Y-100840096D01*
X146911022Y-100889240D01*
X147311021Y-101289240D01*
X147441457Y-101376394D01*
X147566655Y-101570958D01*
X147778855Y-101715948D01*
X148030745Y-101766957D01*
X149330745Y-101766957D01*
X149566062Y-101722679D01*
X149782186Y-101583607D01*
X149927176Y-101371407D01*
X149978185Y-101119517D01*
X149978185Y-100419517D01*
X149947768Y-100257862D01*
X150050468Y-100189240D01*
X150950468Y-99289241D01*
X150995745Y-99221479D01*
X150995745Y-99312747D01*
X150980916Y-99327550D01*
X150845899Y-99652707D01*
X150845592Y-100004782D01*
X150980041Y-100330174D01*
X151228778Y-100579346D01*
X151553935Y-100714363D01*
X151906010Y-100714670D01*
X152231402Y-100580221D01*
X152480574Y-100331484D01*
X152615591Y-100006327D01*
X152615898Y-99654252D01*
X152481449Y-99328860D01*
X152465745Y-99313129D01*
X152465745Y-97615515D01*
X152409796Y-97334243D01*
X152394125Y-97310789D01*
X152250469Y-97095792D01*
X149264470Y-94109794D01*
X149026019Y-93950466D01*
X148744747Y-93894517D01*
X142347515Y-93894517D01*
X142332712Y-93879688D01*
X142007555Y-93744671D01*
X141655480Y-93744364D01*
X141330088Y-93878813D01*
X141080916Y-94127550D01*
X140945899Y-94452707D01*
X140945592Y-94804782D01*
X137854139Y-94804782D01*
X137781449Y-94628860D01*
X137726197Y-94573511D01*
X140594926Y-91704782D01*
X140945592Y-91704782D01*
X141080041Y-92030174D01*
X141328778Y-92279346D01*
X141653935Y-92414363D01*
X142006010Y-92414670D01*
X142331402Y-92280221D01*
X142347133Y-92264517D01*
X142845714Y-92264517D01*
X142845592Y-92404782D01*
X142980041Y-92730174D01*
X143228778Y-92979346D01*
X143553935Y-93114363D01*
X143679155Y-93114472D01*
X143930745Y-93164517D01*
X148113975Y-93164517D01*
X148128778Y-93179346D01*
X148453935Y-93314363D01*
X148806010Y-93314670D01*
X149131402Y-93180221D01*
X149380574Y-92931484D01*
X149515591Y-92606327D01*
X149515811Y-92354029D01*
X154095745Y-96933964D01*
X154095745Y-100025070D01*
X151576434Y-102544382D01*
X151555480Y-102544364D01*
X151230088Y-102678813D01*
X150980916Y-102927550D01*
X150845899Y-103252707D01*
X150845592Y-103604782D01*
X150980041Y-103930174D01*
X151228778Y-104179346D01*
X151553935Y-104314363D01*
X151906010Y-104314670D01*
X152231402Y-104180221D01*
X152480574Y-103931484D01*
X152615591Y-103606327D01*
X152615610Y-103584098D01*
X155350468Y-100849241D01*
X155509796Y-100610789D01*
X155530129Y-100508568D01*
X155565745Y-100329517D01*
X155565745Y-96629517D01*
X155509796Y-96348245D01*
X155463403Y-96278813D01*
X155350469Y-96109794D01*
X146515880Y-87275206D01*
X146515898Y-87254252D01*
X146381449Y-86928860D01*
X146132712Y-86679688D01*
X145807555Y-86544671D01*
X145455480Y-86544364D01*
X145130088Y-86678813D01*
X144880916Y-86927550D01*
X144745899Y-87252707D01*
X144745592Y-87604782D01*
X144880041Y-87930174D01*
X145128778Y-88179346D01*
X145453935Y-88314363D01*
X145476164Y-88314382D01*
X147956299Y-90794517D01*
X142347515Y-90794517D01*
X142332712Y-90779688D01*
X142007555Y-90644671D01*
X141655480Y-90644364D01*
X141330088Y-90778813D01*
X141080916Y-91027550D01*
X140945899Y-91352707D01*
X140945592Y-91704782D01*
X140594926Y-91704782D01*
X140650469Y-91649240D01*
X140809796Y-91410789D01*
X140823009Y-91344364D01*
X140865745Y-91129517D01*
X140865745Y-90546287D01*
X140880574Y-90531484D01*
X141015591Y-90206327D01*
X141015898Y-89854252D01*
X140881449Y-89528860D01*
X140632712Y-89279688D01*
X140307555Y-89144671D01*
X139955480Y-89144364D01*
X139630088Y-89278813D01*
X139380916Y-89527550D01*
X139245899Y-89852707D01*
X139245592Y-90204782D01*
X139380041Y-90530174D01*
X139395745Y-90545905D01*
X139395745Y-90825070D01*
X135865745Y-94355071D01*
X135865745Y-91349517D01*
X135809796Y-91068245D01*
X135809796Y-91068244D01*
X135650468Y-90829793D01*
X134686089Y-89865415D01*
X134726091Y-89664310D01*
X135745610Y-90683829D01*
X135745592Y-90704782D01*
X135880041Y-91030174D01*
X136128778Y-91279346D01*
X136453935Y-91414363D01*
X136806010Y-91414670D01*
X137131402Y-91280221D01*
X137380574Y-91031484D01*
X137515591Y-90706327D01*
X137515898Y-90354252D01*
X137381449Y-90028860D01*
X137132712Y-89779688D01*
X136807555Y-89644671D01*
X136785326Y-89644652D01*
X134450468Y-87309794D01*
X134212017Y-87150466D01*
X134200851Y-87148245D01*
X133930745Y-87094517D01*
X130130745Y-87094517D01*
X129860639Y-87148245D01*
X129849473Y-87150466D01*
X129611021Y-87309794D01*
X128411022Y-88509794D01*
X128251694Y-88748245D01*
X128195745Y-89029517D01*
X128195745Y-95309517D01*
X128231803Y-95490789D01*
X128251694Y-95590789D01*
X128411022Y-95829240D01*
X129275401Y-96693619D01*
X129196652Y-97089517D01*
X129309691Y-97657802D01*
X129631598Y-98139571D01*
X129960771Y-98359517D01*
X129631598Y-98579463D01*
X129309691Y-99061232D01*
X129196652Y-99629517D01*
X129309691Y-100197802D01*
X129631598Y-100679571D01*
X129960771Y-100899517D01*
X129631598Y-101119463D01*
X129309691Y-101601232D01*
X129196652Y-102169517D01*
X129309691Y-102737802D01*
X129631598Y-103219571D01*
X129960771Y-103439517D01*
X129631598Y-103659463D01*
X129309691Y-104141232D01*
X129196652Y-104709517D01*
X129309691Y-105277802D01*
X129631598Y-105759571D01*
X129960771Y-105979517D01*
X129631598Y-106199463D01*
X129309691Y-106681232D01*
X129196652Y-107249517D01*
X129309691Y-107817802D01*
X129631598Y-108299571D01*
X129673197Y-108327367D01*
X129625428Y-108336355D01*
X129409304Y-108475427D01*
X129264314Y-108687627D01*
X129213305Y-108939517D01*
X129213305Y-110639517D01*
X129257583Y-110874834D01*
X129396655Y-111090958D01*
X129608855Y-111235948D01*
X129860745Y-111286957D01*
X130142724Y-111286957D01*
X130191022Y-111359240D01*
X130981022Y-112149241D01*
X131198661Y-112294662D01*
X130350479Y-112293922D01*
X129087516Y-112815767D01*
X128191277Y-113710443D01*
X127957745Y-113476911D01*
X127957745Y-85582123D01*
X128102413Y-85437455D01*
X128116995Y-85472746D01*
X129082433Y-86439871D01*
X130344484Y-86963920D01*
X131711011Y-86965112D01*
X132973974Y-86443267D01*
X133941099Y-85477829D01*
X134465148Y-84215778D01*
X134466340Y-82849251D01*
X133944495Y-81586288D01*
X133016346Y-80656517D01*
X161246695Y-80656517D01*
X160320391Y-81581205D01*
X160320391Y-81581205D01*
G37*
X160320391Y-81581205D02*
X159796342Y-82843256D01*
X159795150Y-84209783D01*
X160316995Y-85472746D01*
X161282433Y-86439871D01*
X162544484Y-86963920D01*
X163911011Y-86965112D01*
X165173974Y-86443267D01*
X165703745Y-85914420D01*
X165703745Y-113344768D01*
X165179057Y-112819163D01*
X163917006Y-112295114D01*
X162550479Y-112293922D01*
X161287516Y-112815767D01*
X160320391Y-113781205D01*
X159796342Y-115043256D01*
X159795150Y-116409783D01*
X160316995Y-117672746D01*
X161045493Y-118402517D01*
X133215145Y-118402517D01*
X133941099Y-117677829D01*
X134465148Y-116415778D01*
X134466340Y-115049251D01*
X133944495Y-113786288D01*
X132979057Y-112819163D01*
X131884147Y-112364517D01*
X134830745Y-112364517D01*
X135112017Y-112308568D01*
X135350468Y-112149240D01*
X136250468Y-111249241D01*
X136353539Y-111094985D01*
X136398855Y-111125948D01*
X136650745Y-111176957D01*
X138350745Y-111176957D01*
X138586062Y-111132679D01*
X138802186Y-110993607D01*
X138947176Y-110781407D01*
X138998185Y-110529517D01*
X138998185Y-108829517D01*
X138953907Y-108594200D01*
X138814835Y-108378076D01*
X138602635Y-108233086D01*
X138535204Y-108219431D01*
X138579892Y-108189571D01*
X138901799Y-107707802D01*
X139014838Y-107139517D01*
X138936089Y-106743619D01*
X140415192Y-105264517D01*
X141313975Y-105264517D01*
X141328778Y-105279346D01*
X141653935Y-105414363D01*
X142006010Y-105414670D01*
X142331402Y-105280221D01*
X142580574Y-105031484D01*
X142715591Y-104706327D01*
X142715898Y-104354252D01*
X142581449Y-104028860D01*
X142332712Y-103779688D01*
X142007555Y-103644671D01*
X141655480Y-103644364D01*
X141330088Y-103778813D01*
X141314357Y-103794517D01*
X140110745Y-103794517D01*
X139876139Y-103841184D01*
X139829472Y-103850466D01*
X139591021Y-104009794D01*
X138839346Y-104761470D01*
X138820900Y-104726517D01*
X137627745Y-104726517D01*
X137627745Y-104746517D01*
X137373745Y-104746517D01*
X137373745Y-104726517D01*
X137353745Y-104726517D01*
X137353745Y-104472517D01*
X137373745Y-104472517D01*
X137373745Y-104452517D01*
X137627745Y-104452517D01*
X137627745Y-104472517D01*
X138820900Y-104472517D01*
X138942221Y-104242627D01*
X138772390Y-103832593D01*
X138382103Y-103404334D01*
X138239192Y-103337219D01*
X138579892Y-103109571D01*
X138901799Y-102627802D01*
X139014838Y-102059517D01*
X138901799Y-101491232D01*
X138579892Y-101009463D01*
X138250719Y-100789517D01*
X138579892Y-100569571D01*
X138901799Y-100087802D01*
X139014838Y-99519517D01*
X138901799Y-98951232D01*
X138579892Y-98469463D01*
X138098123Y-98147556D01*
X137529838Y-98034517D01*
X137471652Y-98034517D01*
X136903367Y-98147556D01*
X136465745Y-98439965D01*
X136465745Y-96733963D01*
X137185057Y-96014652D01*
X137206010Y-96014670D01*
X137531402Y-95880221D01*
X137780574Y-95631484D01*
X137915591Y-95306327D01*
X137915898Y-94954252D01*
X137854139Y-94804782D01*
X140945592Y-94804782D01*
X141080041Y-95130174D01*
X141328778Y-95379346D01*
X141653935Y-95514363D01*
X142006010Y-95514670D01*
X142331402Y-95380221D01*
X142347133Y-95364517D01*
X148440301Y-95364517D01*
X149492135Y-96416351D01*
X149480916Y-96427550D01*
X149480688Y-96428098D01*
X149232712Y-96179688D01*
X148907555Y-96044671D01*
X148555480Y-96044364D01*
X148230088Y-96178813D01*
X147980916Y-96427550D01*
X147845899Y-96752707D01*
X147845880Y-96774936D01*
X146911022Y-97709794D01*
X146781788Y-97903205D01*
X146694835Y-97768076D01*
X146482635Y-97623086D01*
X146230745Y-97572077D01*
X144930745Y-97572077D01*
X144695428Y-97616355D01*
X144573961Y-97694517D01*
X144247515Y-97694517D01*
X144232712Y-97679688D01*
X143907555Y-97544671D01*
X143555480Y-97544364D01*
X143230088Y-97678813D01*
X142980916Y-97927550D01*
X142845899Y-98252707D01*
X142845592Y-98604782D01*
X142980041Y-98930174D01*
X143228778Y-99179346D01*
X143553935Y-99314363D01*
X143906010Y-99314670D01*
X143997502Y-99276866D01*
X143923201Y-99351168D01*
X143907555Y-99344671D01*
X143555480Y-99344364D01*
X143230088Y-99478813D01*
X142980916Y-99727550D01*
X142845899Y-100052707D01*
X142845592Y-100404782D01*
X142980041Y-100730174D01*
X143228778Y-100979346D01*
X143553935Y-101114363D01*
X143896154Y-101114661D01*
X143766268Y-101244548D01*
X143555480Y-101244364D01*
X143230088Y-101378813D01*
X142980916Y-101627550D01*
X142845899Y-101952707D01*
X142845592Y-102304782D01*
X142980041Y-102630174D01*
X143228778Y-102879346D01*
X143553935Y-103014363D01*
X143906010Y-103014670D01*
X144231402Y-102880221D01*
X144404923Y-102707003D01*
X144315154Y-102923190D01*
X144314847Y-103275265D01*
X144449296Y-103600657D01*
X144698033Y-103849829D01*
X145023190Y-103984846D01*
X145045419Y-103984865D01*
X146865000Y-105804447D01*
X146865000Y-110583230D01*
X146850171Y-110598033D01*
X146715154Y-110923190D01*
X146714847Y-111275265D01*
X146849296Y-111600657D01*
X147098033Y-111849829D01*
X147423190Y-111984846D01*
X147775265Y-111985153D01*
X148100657Y-111850704D01*
X148349829Y-111601967D01*
X148484846Y-111276810D01*
X148485153Y-110924735D01*
X148350704Y-110599343D01*
X148335000Y-110583612D01*
X148335000Y-105500000D01*
X148279051Y-105218728D01*
X148272262Y-105208568D01*
X148119724Y-104980277D01*
X146085135Y-102945689D01*
X146085153Y-102924735D01*
X145950704Y-102599343D01*
X145701967Y-102350171D01*
X145376810Y-102215154D01*
X145024735Y-102214847D01*
X144769330Y-102320378D01*
X145322752Y-101766957D01*
X146230745Y-101766957D01*
X146466062Y-101722679D01*
X146682186Y-101583607D01*
X146827176Y-101371407D01*
X146878185Y-101119517D01*
X146878185Y-100840096D01*
X146911022Y-100889240D01*
X147311021Y-101289240D01*
X147441457Y-101376394D01*
X147566655Y-101570958D01*
X147778855Y-101715948D01*
X148030745Y-101766957D01*
X149330745Y-101766957D01*
X149566062Y-101722679D01*
X149782186Y-101583607D01*
X149927176Y-101371407D01*
X149978185Y-101119517D01*
X149978185Y-100419517D01*
X149947768Y-100257862D01*
X150050468Y-100189240D01*
X150950468Y-99289241D01*
X150995745Y-99221479D01*
X150995745Y-99312747D01*
X150980916Y-99327550D01*
X150845899Y-99652707D01*
X150845592Y-100004782D01*
X150980041Y-100330174D01*
X151228778Y-100579346D01*
X151553935Y-100714363D01*
X151906010Y-100714670D01*
X152231402Y-100580221D01*
X152480574Y-100331484D01*
X152615591Y-100006327D01*
X152615898Y-99654252D01*
X152481449Y-99328860D01*
X152465745Y-99313129D01*
X152465745Y-97615515D01*
X152409796Y-97334243D01*
X152394125Y-97310789D01*
X152250469Y-97095792D01*
X149264470Y-94109794D01*
X149026019Y-93950466D01*
X148744747Y-93894517D01*
X142347515Y-93894517D01*
X142332712Y-93879688D01*
X142007555Y-93744671D01*
X141655480Y-93744364D01*
X141330088Y-93878813D01*
X141080916Y-94127550D01*
X140945899Y-94452707D01*
X140945592Y-94804782D01*
X137854139Y-94804782D01*
X137781449Y-94628860D01*
X137726197Y-94573511D01*
X140594926Y-91704782D01*
X140945592Y-91704782D01*
X141080041Y-92030174D01*
X141328778Y-92279346D01*
X141653935Y-92414363D01*
X142006010Y-92414670D01*
X142331402Y-92280221D01*
X142347133Y-92264517D01*
X142845714Y-92264517D01*
X142845592Y-92404782D01*
X142980041Y-92730174D01*
X143228778Y-92979346D01*
X143553935Y-93114363D01*
X143679155Y-93114472D01*
X143930745Y-93164517D01*
X148113975Y-93164517D01*
X148128778Y-93179346D01*
X148453935Y-93314363D01*
X148806010Y-93314670D01*
X149131402Y-93180221D01*
X149380574Y-92931484D01*
X149515591Y-92606327D01*
X149515811Y-92354029D01*
X154095745Y-96933964D01*
X154095745Y-100025070D01*
X151576434Y-102544382D01*
X151555480Y-102544364D01*
X151230088Y-102678813D01*
X150980916Y-102927550D01*
X150845899Y-103252707D01*
X150845592Y-103604782D01*
X150980041Y-103930174D01*
X151228778Y-104179346D01*
X151553935Y-104314363D01*
X151906010Y-104314670D01*
X152231402Y-104180221D01*
X152480574Y-103931484D01*
X152615591Y-103606327D01*
X152615610Y-103584098D01*
X155350468Y-100849241D01*
X155509796Y-100610789D01*
X155530129Y-100508568D01*
X155565745Y-100329517D01*
X155565745Y-96629517D01*
X155509796Y-96348245D01*
X155463403Y-96278813D01*
X155350469Y-96109794D01*
X146515880Y-87275206D01*
X146515898Y-87254252D01*
X146381449Y-86928860D01*
X146132712Y-86679688D01*
X145807555Y-86544671D01*
X145455480Y-86544364D01*
X145130088Y-86678813D01*
X144880916Y-86927550D01*
X144745899Y-87252707D01*
X144745592Y-87604782D01*
X144880041Y-87930174D01*
X145128778Y-88179346D01*
X145453935Y-88314363D01*
X145476164Y-88314382D01*
X147956299Y-90794517D01*
X142347515Y-90794517D01*
X142332712Y-90779688D01*
X142007555Y-90644671D01*
X141655480Y-90644364D01*
X141330088Y-90778813D01*
X141080916Y-91027550D01*
X140945899Y-91352707D01*
X140945592Y-91704782D01*
X140594926Y-91704782D01*
X140650469Y-91649240D01*
X140809796Y-91410789D01*
X140823009Y-91344364D01*
X140865745Y-91129517D01*
X140865745Y-90546287D01*
X140880574Y-90531484D01*
X141015591Y-90206327D01*
X141015898Y-89854252D01*
X140881449Y-89528860D01*
X140632712Y-89279688D01*
X140307555Y-89144671D01*
X139955480Y-89144364D01*
X139630088Y-89278813D01*
X139380916Y-89527550D01*
X139245899Y-89852707D01*
X139245592Y-90204782D01*
X139380041Y-90530174D01*
X139395745Y-90545905D01*
X139395745Y-90825070D01*
X135865745Y-94355071D01*
X135865745Y-91349517D01*
X135809796Y-91068245D01*
X135809796Y-91068244D01*
X135650468Y-90829793D01*
X134686089Y-89865415D01*
X134726091Y-89664310D01*
X135745610Y-90683829D01*
X135745592Y-90704782D01*
X135880041Y-91030174D01*
X136128778Y-91279346D01*
X136453935Y-91414363D01*
X136806010Y-91414670D01*
X137131402Y-91280221D01*
X137380574Y-91031484D01*
X137515591Y-90706327D01*
X137515898Y-90354252D01*
X137381449Y-90028860D01*
X137132712Y-89779688D01*
X136807555Y-89644671D01*
X136785326Y-89644652D01*
X134450468Y-87309794D01*
X134212017Y-87150466D01*
X134200851Y-87148245D01*
X133930745Y-87094517D01*
X130130745Y-87094517D01*
X129860639Y-87148245D01*
X129849473Y-87150466D01*
X129611021Y-87309794D01*
X128411022Y-88509794D01*
X128251694Y-88748245D01*
X128195745Y-89029517D01*
X128195745Y-95309517D01*
X128231803Y-95490789D01*
X128251694Y-95590789D01*
X128411022Y-95829240D01*
X129275401Y-96693619D01*
X129196652Y-97089517D01*
X129309691Y-97657802D01*
X129631598Y-98139571D01*
X129960771Y-98359517D01*
X129631598Y-98579463D01*
X129309691Y-99061232D01*
X129196652Y-99629517D01*
X129309691Y-100197802D01*
X129631598Y-100679571D01*
X129960771Y-100899517D01*
X129631598Y-101119463D01*
X129309691Y-101601232D01*
X129196652Y-102169517D01*
X129309691Y-102737802D01*
X129631598Y-103219571D01*
X129960771Y-103439517D01*
X129631598Y-103659463D01*
X129309691Y-104141232D01*
X129196652Y-104709517D01*
X129309691Y-105277802D01*
X129631598Y-105759571D01*
X129960771Y-105979517D01*
X129631598Y-106199463D01*
X129309691Y-106681232D01*
X129196652Y-107249517D01*
X129309691Y-107817802D01*
X129631598Y-108299571D01*
X129673197Y-108327367D01*
X129625428Y-108336355D01*
X129409304Y-108475427D01*
X129264314Y-108687627D01*
X129213305Y-108939517D01*
X129213305Y-110639517D01*
X129257583Y-110874834D01*
X129396655Y-111090958D01*
X129608855Y-111235948D01*
X129860745Y-111286957D01*
X130142724Y-111286957D01*
X130191022Y-111359240D01*
X130981022Y-112149241D01*
X131198661Y-112294662D01*
X130350479Y-112293922D01*
X129087516Y-112815767D01*
X128191277Y-113710443D01*
X127957745Y-113476911D01*
X127957745Y-85582123D01*
X128102413Y-85437455D01*
X128116995Y-85472746D01*
X129082433Y-86439871D01*
X130344484Y-86963920D01*
X131711011Y-86965112D01*
X132973974Y-86443267D01*
X133941099Y-85477829D01*
X134465148Y-84215778D01*
X134466340Y-82849251D01*
X133944495Y-81586288D01*
X133016346Y-80656517D01*
X161246695Y-80656517D01*
X160320391Y-81581205D01*
M02*
