G04 #@! TF.FileFunction,Legend,Top*
%FSLAX46Y46*%
G04 Gerber Fmt 4.6, Leading zero omitted, Abs format (unit mm)*
G04 Created by KiCad (PCBNEW 4.0.7) date Tuesday, 19 '19e' June '19e' 2018, 11:34:03*
%MOMM*%
%LPD*%
G01*
G04 APERTURE LIST*
%ADD10C,0.100000*%
%ADD11C,0.120000*%
%ADD12C,0.254000*%
%ADD13C,0.150000*%
G04 APERTURE END LIST*
D10*
X148255745Y-87600945D02*
X148220031Y-87672374D01*
X148220031Y-87779517D01*
X148255745Y-87886660D01*
X148327174Y-87958088D01*
X148398602Y-87993803D01*
X148541459Y-88029517D01*
X148648602Y-88029517D01*
X148791459Y-87993803D01*
X148862888Y-87958088D01*
X148934316Y-87886660D01*
X148970031Y-87779517D01*
X148970031Y-87708088D01*
X148934316Y-87600945D01*
X148898602Y-87565231D01*
X148648602Y-87565231D01*
X148648602Y-87708088D01*
X148970031Y-87243803D02*
X148220031Y-87243803D01*
X148970031Y-86815231D01*
X148220031Y-86815231D01*
X148970031Y-86458089D02*
X148220031Y-86458089D01*
X148220031Y-86279517D01*
X148255745Y-86172374D01*
X148327174Y-86100946D01*
X148398602Y-86065231D01*
X148541459Y-86029517D01*
X148648602Y-86029517D01*
X148791459Y-86065231D01*
X148862888Y-86100946D01*
X148934316Y-86172374D01*
X148970031Y-86279517D01*
X148970031Y-86458089D01*
X147964286Y-87339286D02*
X147214286Y-87339286D01*
X147964286Y-86910714D01*
X147214286Y-86910714D01*
X147892857Y-86125000D02*
X147928571Y-86160714D01*
X147964286Y-86267857D01*
X147964286Y-86339286D01*
X147928571Y-86446429D01*
X147857143Y-86517857D01*
X147785714Y-86553572D01*
X147642857Y-86589286D01*
X147535714Y-86589286D01*
X147392857Y-86553572D01*
X147321429Y-86517857D01*
X147250000Y-86446429D01*
X147214286Y-86339286D01*
X147214286Y-86267857D01*
X147250000Y-86160714D01*
X147285714Y-86125000D01*
X146220031Y-87271428D02*
X146220031Y-86842857D01*
X146970031Y-87057143D02*
X146220031Y-87057143D01*
X146220031Y-86664285D02*
X146970031Y-86164285D01*
X146220031Y-86164285D02*
X146970031Y-86664285D01*
X145220031Y-87958088D02*
X145220031Y-87493802D01*
X145505745Y-87743802D01*
X145505745Y-87636660D01*
X145541459Y-87565231D01*
X145577174Y-87529517D01*
X145648602Y-87493802D01*
X145827174Y-87493802D01*
X145898602Y-87529517D01*
X145934316Y-87565231D01*
X145970031Y-87636660D01*
X145970031Y-87850945D01*
X145934316Y-87922374D01*
X145898602Y-87958088D01*
X145220031Y-87279516D02*
X145970031Y-87029516D01*
X145220031Y-86779516D01*
X145220031Y-86600945D02*
X145220031Y-86136659D01*
X145505745Y-86386659D01*
X145505745Y-86279517D01*
X145541459Y-86208088D01*
X145577174Y-86172374D01*
X145648602Y-86136659D01*
X145827174Y-86136659D01*
X145898602Y-86172374D01*
X145934316Y-86208088D01*
X145970031Y-86279517D01*
X145970031Y-86493802D01*
X145934316Y-86565231D01*
X145898602Y-86600945D01*
X159178572Y-97725000D02*
X159107143Y-97689286D01*
X159000000Y-97689286D01*
X158892857Y-97725000D01*
X158821429Y-97796429D01*
X158785714Y-97867857D01*
X158750000Y-98010714D01*
X158750000Y-98117857D01*
X158785714Y-98260714D01*
X158821429Y-98332143D01*
X158892857Y-98403571D01*
X159000000Y-98439286D01*
X159071429Y-98439286D01*
X159178572Y-98403571D01*
X159214286Y-98367857D01*
X159214286Y-98117857D01*
X159071429Y-98117857D01*
X159535714Y-98439286D02*
X159535714Y-97689286D01*
X159964286Y-98439286D01*
X159964286Y-97689286D01*
X160321428Y-98439286D02*
X160321428Y-97689286D01*
X160500000Y-97689286D01*
X160607143Y-97725000D01*
X160678571Y-97796429D01*
X160714286Y-97867857D01*
X160750000Y-98010714D01*
X160750000Y-98117857D01*
X160714286Y-98260714D01*
X160678571Y-98332143D01*
X160607143Y-98403571D01*
X160500000Y-98439286D01*
X160321428Y-98439286D01*
X159510714Y-99439286D02*
X159510714Y-98689286D01*
X159939286Y-99439286D01*
X159939286Y-98689286D01*
X160725000Y-99367857D02*
X160689286Y-99403571D01*
X160582143Y-99439286D01*
X160510714Y-99439286D01*
X160403571Y-99403571D01*
X160332143Y-99332143D01*
X160296428Y-99260714D01*
X160260714Y-99117857D01*
X160260714Y-99010714D01*
X160296428Y-98867857D01*
X160332143Y-98796429D01*
X160403571Y-98725000D01*
X160510714Y-98689286D01*
X160582143Y-98689286D01*
X160689286Y-98725000D01*
X160725000Y-98760714D01*
X159975000Y-100439286D02*
X159725000Y-100082143D01*
X159546428Y-100439286D02*
X159546428Y-99689286D01*
X159832143Y-99689286D01*
X159903571Y-99725000D01*
X159939286Y-99760714D01*
X159975000Y-99832143D01*
X159975000Y-99939286D01*
X159939286Y-100010714D01*
X159903571Y-100046429D01*
X159832143Y-100082143D01*
X159546428Y-100082143D01*
X160225000Y-99689286D02*
X160725000Y-100439286D01*
X160725000Y-99689286D02*
X160225000Y-100439286D01*
X158902174Y-100689286D02*
X159366460Y-100689286D01*
X159116460Y-100975000D01*
X159223602Y-100975000D01*
X159295031Y-101010714D01*
X159330745Y-101046429D01*
X159366460Y-101117857D01*
X159366460Y-101296429D01*
X159330745Y-101367857D01*
X159295031Y-101403571D01*
X159223602Y-101439286D01*
X159009317Y-101439286D01*
X158937888Y-101403571D01*
X158902174Y-101367857D01*
X159580746Y-100689286D02*
X159830746Y-101439286D01*
X160080746Y-100689286D01*
X160259317Y-100689286D02*
X160723603Y-100689286D01*
X160473603Y-100975000D01*
X160580745Y-100975000D01*
X160652174Y-101010714D01*
X160687888Y-101046429D01*
X160723603Y-101117857D01*
X160723603Y-101296429D01*
X160687888Y-101367857D01*
X160652174Y-101403571D01*
X160580745Y-101439286D01*
X160366460Y-101439286D01*
X160295031Y-101403571D01*
X160259317Y-101367857D01*
X145155745Y-112800945D02*
X145120031Y-112872374D01*
X145120031Y-112979517D01*
X145155745Y-113086660D01*
X145227174Y-113158088D01*
X145298602Y-113193803D01*
X145441459Y-113229517D01*
X145548602Y-113229517D01*
X145691459Y-113193803D01*
X145762888Y-113158088D01*
X145834316Y-113086660D01*
X145870031Y-112979517D01*
X145870031Y-112908088D01*
X145834316Y-112800945D01*
X145798602Y-112765231D01*
X145548602Y-112765231D01*
X145548602Y-112908088D01*
X145870031Y-112443803D02*
X145120031Y-112443803D01*
X145870031Y-112015231D01*
X145120031Y-112015231D01*
X145870031Y-111658089D02*
X145120031Y-111658089D01*
X145120031Y-111479517D01*
X145155745Y-111372374D01*
X145227174Y-111300946D01*
X145298602Y-111265231D01*
X145441459Y-111229517D01*
X145548602Y-111229517D01*
X145691459Y-111265231D01*
X145762888Y-111300946D01*
X145834316Y-111372374D01*
X145870031Y-111479517D01*
X145870031Y-111658089D01*
X146969286Y-113149286D02*
X146219286Y-113149286D01*
X146969286Y-112720714D01*
X146219286Y-112720714D01*
X146897857Y-111935000D02*
X146933571Y-111970714D01*
X146969286Y-112077857D01*
X146969286Y-112149286D01*
X146933571Y-112256429D01*
X146862143Y-112327857D01*
X146790714Y-112363572D01*
X146647857Y-112399286D01*
X146540714Y-112399286D01*
X146397857Y-112363572D01*
X146326429Y-112327857D01*
X146255000Y-112256429D01*
X146219286Y-112149286D01*
X146219286Y-112077857D01*
X146255000Y-111970714D01*
X146290714Y-111935000D01*
X147264286Y-113171428D02*
X147264286Y-112742857D01*
X148014286Y-112957143D02*
X147264286Y-112957143D01*
X147264286Y-112564285D02*
X148014286Y-112064285D01*
X147264286Y-112064285D02*
X148014286Y-112564285D01*
X148320031Y-113158088D02*
X148320031Y-112693802D01*
X148605745Y-112943802D01*
X148605745Y-112836660D01*
X148641459Y-112765231D01*
X148677174Y-112729517D01*
X148748602Y-112693802D01*
X148927174Y-112693802D01*
X148998602Y-112729517D01*
X149034316Y-112765231D01*
X149070031Y-112836660D01*
X149070031Y-113050945D01*
X149034316Y-113122374D01*
X148998602Y-113158088D01*
X148320031Y-112479516D02*
X149070031Y-112229516D01*
X148320031Y-111979516D01*
X148320031Y-111800945D02*
X148320031Y-111336659D01*
X148605745Y-111586659D01*
X148605745Y-111479517D01*
X148641459Y-111408088D01*
X148677174Y-111372374D01*
X148748602Y-111336659D01*
X148927174Y-111336659D01*
X148998602Y-111372374D01*
X149034316Y-111408088D01*
X149070031Y-111479517D01*
X149070031Y-111693802D01*
X149034316Y-111765231D01*
X148998602Y-111800945D01*
D11*
X140470745Y-95179517D02*
X140470745Y-94039517D01*
X140470745Y-94039517D02*
X138370745Y-94039517D01*
X140470745Y-95179517D02*
X138370745Y-95179517D01*
X140470745Y-92099517D02*
X140470745Y-90959517D01*
X140470745Y-90959517D02*
X138370745Y-90959517D01*
X140470745Y-92099517D02*
X138370745Y-92099517D01*
X140470745Y-89129517D02*
X140470745Y-87989517D01*
X140470745Y-87989517D02*
X138370745Y-87989517D01*
X140470745Y-89129517D02*
X138370745Y-89129517D01*
D12*
X142530745Y-119429517D02*
X151730745Y-119429517D01*
X142530745Y-119429517D02*
X142530745Y-117829517D01*
X142530745Y-114129517D02*
X142530745Y-115829517D01*
X151730745Y-119429517D02*
X151730745Y-117829517D01*
X151730745Y-114129517D02*
X151730745Y-115829517D01*
X142530745Y-114129517D02*
X145030745Y-114129517D01*
X151730745Y-114129517D02*
X149230745Y-114129517D01*
X166940745Y-104229517D02*
X166940745Y-95029517D01*
X166940745Y-104229517D02*
X165340745Y-104229517D01*
X161640745Y-104229517D02*
X163340745Y-104229517D01*
X166940745Y-95029517D02*
X165340745Y-95029517D01*
X161640745Y-95029517D02*
X163340745Y-95029517D01*
X161640745Y-104229517D02*
X161640745Y-101729517D01*
X161640745Y-95029517D02*
X161640745Y-97529517D01*
X151740745Y-79829517D02*
X142540745Y-79829517D01*
X151740745Y-79829517D02*
X151740745Y-81429517D01*
X151740745Y-85129517D02*
X151740745Y-83429517D01*
X142540745Y-79829517D02*
X142540745Y-81429517D01*
X142540745Y-85129517D02*
X142540745Y-83429517D01*
X151740745Y-85129517D02*
X149240745Y-85129517D01*
X142540745Y-85129517D02*
X145040745Y-85129517D01*
D11*
X143480745Y-100699517D02*
X142980745Y-100699517D01*
X142980745Y-101759517D02*
X143480745Y-101759517D01*
X143450745Y-98769517D02*
X142950745Y-98769517D01*
X142950745Y-99829517D02*
X143450745Y-99829517D01*
X143480745Y-96999517D02*
X142980745Y-96999517D01*
X142980745Y-98059517D02*
X143480745Y-98059517D01*
D13*
X152245745Y-100624517D02*
X152245745Y-96174517D01*
X145345745Y-102149517D02*
X145345745Y-96174517D01*
D11*
X148780745Y-103839517D02*
X148280745Y-103839517D01*
X148280745Y-104779517D02*
X148780745Y-104779517D01*
D13*
X127490476Y-81052381D02*
X127490476Y-80052381D01*
X127823810Y-80766667D01*
X128157143Y-80052381D01*
X128157143Y-81052381D01*
X128538095Y-80052381D02*
X129157143Y-80052381D01*
X128823809Y-80433333D01*
X128966667Y-80433333D01*
X129061905Y-80480952D01*
X129109524Y-80528571D01*
X129157143Y-80623810D01*
X129157143Y-80861905D01*
X129109524Y-80957143D01*
X129061905Y-81004762D01*
X128966667Y-81052381D01*
X128680952Y-81052381D01*
X128585714Y-81004762D01*
X128538095Y-80957143D01*
X165190476Y-80952381D02*
X165190476Y-79952381D01*
X165523810Y-80666667D01*
X165857143Y-79952381D01*
X165857143Y-80952381D01*
X166238095Y-79952381D02*
X166857143Y-79952381D01*
X166523809Y-80333333D01*
X166666667Y-80333333D01*
X166761905Y-80380952D01*
X166809524Y-80428571D01*
X166857143Y-80523810D01*
X166857143Y-80761905D01*
X166809524Y-80857143D01*
X166761905Y-80904762D01*
X166666667Y-80952381D01*
X166380952Y-80952381D01*
X166285714Y-80904762D01*
X166238095Y-80857143D01*
X165190476Y-119352381D02*
X165190476Y-118352381D01*
X165523810Y-119066667D01*
X165857143Y-118352381D01*
X165857143Y-119352381D01*
X166238095Y-118352381D02*
X166857143Y-118352381D01*
X166523809Y-118733333D01*
X166666667Y-118733333D01*
X166761905Y-118780952D01*
X166809524Y-118828571D01*
X166857143Y-118923810D01*
X166857143Y-119161905D01*
X166809524Y-119257143D01*
X166761905Y-119304762D01*
X166666667Y-119352381D01*
X166380952Y-119352381D01*
X166285714Y-119304762D01*
X166238095Y-119257143D01*
D10*
X136830953Y-94855707D02*
X136830953Y-94355707D01*
X136950000Y-94355707D01*
X137021429Y-94379517D01*
X137069048Y-94427136D01*
X137092857Y-94474755D01*
X137116667Y-94569993D01*
X137116667Y-94641422D01*
X137092857Y-94736660D01*
X137069048Y-94784279D01*
X137021429Y-94831898D01*
X136950000Y-94855707D01*
X136830953Y-94855707D01*
X137307143Y-94403327D02*
X137330953Y-94379517D01*
X137378572Y-94355707D01*
X137497619Y-94355707D01*
X137545238Y-94379517D01*
X137569048Y-94403327D01*
X137592857Y-94450946D01*
X137592857Y-94498565D01*
X137569048Y-94569993D01*
X137283334Y-94855707D01*
X137592857Y-94855707D01*
X136830953Y-91755707D02*
X136830953Y-91255707D01*
X136950000Y-91255707D01*
X137021429Y-91279517D01*
X137069048Y-91327136D01*
X137092857Y-91374755D01*
X137116667Y-91469993D01*
X137116667Y-91541422D01*
X137092857Y-91636660D01*
X137069048Y-91684279D01*
X137021429Y-91731898D01*
X136950000Y-91755707D01*
X136830953Y-91755707D01*
X137283334Y-91255707D02*
X137592857Y-91255707D01*
X137426191Y-91446184D01*
X137497619Y-91446184D01*
X137545238Y-91469993D01*
X137569048Y-91493803D01*
X137592857Y-91541422D01*
X137592857Y-91660469D01*
X137569048Y-91708088D01*
X137545238Y-91731898D01*
X137497619Y-91755707D01*
X137354762Y-91755707D01*
X137307143Y-91731898D01*
X137283334Y-91708088D01*
X136761698Y-88755707D02*
X136761698Y-88255707D01*
X136880745Y-88255707D01*
X136952174Y-88279517D01*
X136999793Y-88327136D01*
X137023602Y-88374755D01*
X137047412Y-88469993D01*
X137047412Y-88541422D01*
X137023602Y-88636660D01*
X136999793Y-88684279D01*
X136952174Y-88731898D01*
X136880745Y-88755707D01*
X136761698Y-88755707D01*
X137475983Y-88422374D02*
X137475983Y-88755707D01*
X137356936Y-88231898D02*
X137237888Y-88589041D01*
X137547412Y-88589041D01*
X146617285Y-116491293D02*
X146617285Y-117027007D01*
X146581571Y-117134150D01*
X146510142Y-117205578D01*
X146402999Y-117241293D01*
X146331571Y-117241293D01*
X147367286Y-117241293D02*
X146938714Y-117241293D01*
X147153000Y-117241293D02*
X147153000Y-116491293D01*
X147081571Y-116598436D01*
X147010143Y-116669864D01*
X146938714Y-116705578D01*
X164002521Y-100142977D02*
X164538235Y-100142977D01*
X164645378Y-100178691D01*
X164716806Y-100250120D01*
X164752521Y-100357263D01*
X164752521Y-100428691D01*
X164073949Y-99821548D02*
X164038235Y-99785834D01*
X164002521Y-99714405D01*
X164002521Y-99535834D01*
X164038235Y-99464405D01*
X164073949Y-99428691D01*
X164145378Y-99392976D01*
X164216806Y-99392976D01*
X164323949Y-99428691D01*
X164752521Y-99857262D01*
X164752521Y-99392976D01*
X147374682Y-82268803D02*
X147374682Y-82804517D01*
X147338968Y-82911660D01*
X147267539Y-82983088D01*
X147160396Y-83018803D01*
X147088968Y-83018803D01*
X148053254Y-82518803D02*
X148053254Y-83018803D01*
X147874683Y-82233088D02*
X147696111Y-82768803D01*
X148160397Y-82768803D01*
X141716667Y-101435707D02*
X141550000Y-101197612D01*
X141430953Y-101435707D02*
X141430953Y-100935707D01*
X141621429Y-100935707D01*
X141669048Y-100959517D01*
X141692857Y-100983327D01*
X141716667Y-101030946D01*
X141716667Y-101102374D01*
X141692857Y-101149993D01*
X141669048Y-101173803D01*
X141621429Y-101197612D01*
X141430953Y-101197612D01*
X142192857Y-101435707D02*
X141907143Y-101435707D01*
X142050000Y-101435707D02*
X142050000Y-100935707D01*
X142002381Y-101007136D01*
X141954762Y-101054755D01*
X141907143Y-101078565D01*
X141716667Y-99555707D02*
X141550000Y-99317612D01*
X141430953Y-99555707D02*
X141430953Y-99055707D01*
X141621429Y-99055707D01*
X141669048Y-99079517D01*
X141692857Y-99103327D01*
X141716667Y-99150946D01*
X141716667Y-99222374D01*
X141692857Y-99269993D01*
X141669048Y-99293803D01*
X141621429Y-99317612D01*
X141430953Y-99317612D01*
X141907143Y-99103327D02*
X141930953Y-99079517D01*
X141978572Y-99055707D01*
X142097619Y-99055707D01*
X142145238Y-99079517D01*
X142169048Y-99103327D01*
X142192857Y-99150946D01*
X142192857Y-99198565D01*
X142169048Y-99269993D01*
X141883334Y-99555707D01*
X142192857Y-99555707D01*
X141716667Y-97735707D02*
X141550000Y-97497612D01*
X141430953Y-97735707D02*
X141430953Y-97235707D01*
X141621429Y-97235707D01*
X141669048Y-97259517D01*
X141692857Y-97283327D01*
X141716667Y-97330946D01*
X141716667Y-97402374D01*
X141692857Y-97449993D01*
X141669048Y-97473803D01*
X141621429Y-97497612D01*
X141430953Y-97497612D01*
X141883334Y-97235707D02*
X142192857Y-97235707D01*
X142026191Y-97426184D01*
X142097619Y-97426184D01*
X142145238Y-97449993D01*
X142169048Y-97473803D01*
X142192857Y-97521422D01*
X142192857Y-97640469D01*
X142169048Y-97688088D01*
X142145238Y-97711898D01*
X142097619Y-97735707D01*
X141954762Y-97735707D01*
X141907143Y-97711898D01*
X141883334Y-97688088D01*
X143828571Y-95589286D02*
X143828571Y-96196429D01*
X143864286Y-96267857D01*
X143900000Y-96303571D01*
X143971429Y-96339286D01*
X144114286Y-96339286D01*
X144185714Y-96303571D01*
X144221429Y-96267857D01*
X144257143Y-96196429D01*
X144257143Y-95589286D01*
X145007143Y-96339286D02*
X144578571Y-96339286D01*
X144792857Y-96339286D02*
X144792857Y-95589286D01*
X144721428Y-95696429D01*
X144650000Y-95767857D01*
X144578571Y-95803571D01*
D13*
X127390476Y-119252381D02*
X127390476Y-118252381D01*
X127723810Y-118966667D01*
X128057143Y-118252381D01*
X128057143Y-119252381D01*
X128438095Y-118252381D02*
X129057143Y-118252381D01*
X128723809Y-118633333D01*
X128866667Y-118633333D01*
X128961905Y-118680952D01*
X129009524Y-118728571D01*
X129057143Y-118823810D01*
X129057143Y-119061905D01*
X129009524Y-119157143D01*
X128961905Y-119204762D01*
X128866667Y-119252381D01*
X128580952Y-119252381D01*
X128485714Y-119204762D01*
X128438095Y-119157143D01*
D10*
X148447412Y-103478571D02*
X148423602Y-103502381D01*
X148352174Y-103526190D01*
X148304555Y-103526190D01*
X148233126Y-103502381D01*
X148185507Y-103454762D01*
X148161698Y-103407143D01*
X148137888Y-103311905D01*
X148137888Y-103240476D01*
X148161698Y-103145238D01*
X148185507Y-103097619D01*
X148233126Y-103050000D01*
X148304555Y-103026190D01*
X148352174Y-103026190D01*
X148423602Y-103050000D01*
X148447412Y-103073810D01*
X148923602Y-103526190D02*
X148637888Y-103526190D01*
X148780745Y-103526190D02*
X148780745Y-103026190D01*
X148733126Y-103097619D01*
X148685507Y-103145238D01*
X148637888Y-103169048D01*
M02*
