G04 #@! TF.FileFunction,Legend,Bot*
%FSLAX46Y46*%
G04 Gerber Fmt 4.6, Leading zero omitted, Abs format (unit mm)*
G04 Created by KiCad (PCBNEW 4.0.7) date Tuesday, 19 '19e' June '19e' 2018, 11:22:24*
%MOMM*%
%LPD*%
G01*
G04 APERTURE LIST*
%ADD10C,0.100000*%
%ADD11C,0.150000*%
%ADD12C,0.200000*%
%ADD13C,0.120000*%
G04 APERTURE END LIST*
D10*
X137189286Y-85239286D02*
X137189286Y-84489286D01*
X136760714Y-85239286D01*
X136760714Y-84489286D01*
X135975000Y-85167857D02*
X136010714Y-85203571D01*
X136117857Y-85239286D01*
X136189286Y-85239286D01*
X136296429Y-85203571D01*
X136367857Y-85132143D01*
X136403572Y-85060714D01*
X136439286Y-84917857D01*
X136439286Y-84810714D01*
X136403572Y-84667857D01*
X136367857Y-84596429D01*
X136296429Y-84525000D01*
X136189286Y-84489286D01*
X136117857Y-84489286D01*
X136010714Y-84525000D01*
X135975000Y-84560714D01*
D11*
X143396429Y-101564286D02*
X143217858Y-102064286D01*
X143039286Y-101564286D01*
X142432143Y-101564286D02*
X142432143Y-102064286D01*
X142610714Y-101278571D02*
X142789286Y-101814286D01*
X142325000Y-101814286D01*
X142039286Y-101992857D02*
X142003571Y-102028571D01*
X142039286Y-102064286D01*
X142075000Y-102028571D01*
X142039286Y-101992857D01*
X142039286Y-102064286D01*
X141539285Y-101314286D02*
X141467857Y-101314286D01*
X141396428Y-101350000D01*
X141360714Y-101385714D01*
X141325000Y-101457143D01*
X141289285Y-101600000D01*
X141289285Y-101778571D01*
X141325000Y-101921429D01*
X141360714Y-101992857D01*
X141396428Y-102028571D01*
X141467857Y-102064286D01*
X141539285Y-102064286D01*
X141610714Y-102028571D01*
X141646428Y-101992857D01*
X141682143Y-101921429D01*
X141717857Y-101778571D01*
X141717857Y-101600000D01*
X141682143Y-101457143D01*
X141646428Y-101385714D01*
X141610714Y-101350000D01*
X141539285Y-101314286D01*
D12*
X143996428Y-100685714D02*
X144110714Y-100742857D01*
X144339285Y-100742857D01*
X144453571Y-100685714D01*
X144510714Y-100571429D01*
X144510714Y-100114286D01*
X144453571Y-100000000D01*
X144339285Y-99942857D01*
X144110714Y-99942857D01*
X143996428Y-100000000D01*
X143939285Y-100114286D01*
X143939285Y-100228571D01*
X144510714Y-100342857D01*
X143425000Y-100742857D02*
X143425000Y-99542857D01*
X143025000Y-100400000D01*
X142625000Y-99542857D01*
X142625000Y-100742857D01*
X141882142Y-100742857D02*
X141996428Y-100685714D01*
X142053571Y-100628571D01*
X142110714Y-100514286D01*
X142110714Y-100171429D01*
X142053571Y-100057143D01*
X141996428Y-100000000D01*
X141882142Y-99942857D01*
X141710714Y-99942857D01*
X141596428Y-100000000D01*
X141539285Y-100057143D01*
X141482142Y-100171429D01*
X141482142Y-100514286D01*
X141539285Y-100628571D01*
X141596428Y-100685714D01*
X141710714Y-100742857D01*
X141882142Y-100742857D01*
X141082142Y-99542857D02*
X140339285Y-99542857D01*
X140739285Y-100000000D01*
X140567857Y-100000000D01*
X140453571Y-100057143D01*
X140396428Y-100114286D01*
X140339285Y-100228571D01*
X140339285Y-100514286D01*
X140396428Y-100628571D01*
X140453571Y-100685714D01*
X140567857Y-100742857D01*
X140910714Y-100742857D01*
X141025000Y-100685714D01*
X141082142Y-100628571D01*
X145646428Y-98842857D02*
X146217857Y-98842857D01*
X146217857Y-97642857D01*
X145246428Y-98842857D02*
X145246428Y-98042857D01*
X145246428Y-97642857D02*
X145303571Y-97700000D01*
X145246428Y-97757143D01*
X145189285Y-97700000D01*
X145246428Y-97642857D01*
X145246428Y-97757143D01*
X144846427Y-98042857D02*
X144389284Y-98042857D01*
X144674999Y-98842857D02*
X144674999Y-97814286D01*
X144617856Y-97700000D01*
X144503570Y-97642857D01*
X144389284Y-97642857D01*
X143532142Y-98785714D02*
X143646428Y-98842857D01*
X143874999Y-98842857D01*
X143989285Y-98785714D01*
X144046428Y-98671429D01*
X144046428Y-98214286D01*
X143989285Y-98100000D01*
X143874999Y-98042857D01*
X143646428Y-98042857D01*
X143532142Y-98100000D01*
X143474999Y-98214286D01*
X143474999Y-98328571D01*
X144046428Y-98442857D01*
X143017857Y-98785714D02*
X142846428Y-98842857D01*
X142560714Y-98842857D01*
X142446428Y-98785714D01*
X142389285Y-98728571D01*
X142332142Y-98614286D01*
X142332142Y-98500000D01*
X142389285Y-98385714D01*
X142446428Y-98328571D01*
X142560714Y-98271429D01*
X142789285Y-98214286D01*
X142903571Y-98157143D01*
X142960714Y-98100000D01*
X143017857Y-97985714D01*
X143017857Y-97871429D01*
X142960714Y-97757143D01*
X142903571Y-97700000D01*
X142789285Y-97642857D01*
X142503571Y-97642857D01*
X142332142Y-97700000D01*
X141989285Y-97642857D02*
X141303571Y-97642857D01*
X141646428Y-98842857D02*
X141646428Y-97642857D01*
X140446428Y-98785714D02*
X140560714Y-98842857D01*
X140789285Y-98842857D01*
X140903571Y-98785714D01*
X140960714Y-98671429D01*
X140960714Y-98214286D01*
X140903571Y-98100000D01*
X140789285Y-98042857D01*
X140560714Y-98042857D01*
X140446428Y-98100000D01*
X140389285Y-98214286D01*
X140389285Y-98328571D01*
X140960714Y-98442857D01*
X139360714Y-98785714D02*
X139475000Y-98842857D01*
X139703571Y-98842857D01*
X139817857Y-98785714D01*
X139875000Y-98728571D01*
X139932143Y-98614286D01*
X139932143Y-98271429D01*
X139875000Y-98157143D01*
X139817857Y-98100000D01*
X139703571Y-98042857D01*
X139475000Y-98042857D01*
X139360714Y-98100000D01*
X138846429Y-98842857D02*
X138846429Y-97642857D01*
X138332143Y-98842857D02*
X138332143Y-98214286D01*
X138389286Y-98100000D01*
X138503572Y-98042857D01*
X138675000Y-98042857D01*
X138789286Y-98100000D01*
X138846429Y-98157143D01*
D10*
X153425000Y-76128572D02*
X153389286Y-76057143D01*
X153389286Y-75950000D01*
X153425000Y-75842857D01*
X153496429Y-75771429D01*
X153567857Y-75735714D01*
X153710714Y-75700000D01*
X153817857Y-75700000D01*
X153960714Y-75735714D01*
X154032143Y-75771429D01*
X154103571Y-75842857D01*
X154139286Y-75950000D01*
X154139286Y-76021429D01*
X154103571Y-76128572D01*
X154067857Y-76164286D01*
X153817857Y-76164286D01*
X153817857Y-76021429D01*
X154139286Y-76485714D02*
X153389286Y-76485714D01*
X154139286Y-76914286D01*
X153389286Y-76914286D01*
X154139286Y-77271428D02*
X153389286Y-77271428D01*
X153389286Y-77450000D01*
X153425000Y-77557143D01*
X153496429Y-77628571D01*
X153567857Y-77664286D01*
X153710714Y-77700000D01*
X153817857Y-77700000D01*
X153960714Y-77664286D01*
X154032143Y-77628571D01*
X154103571Y-77557143D01*
X154139286Y-77450000D01*
X154139286Y-77271428D01*
X151853571Y-75146428D02*
X151853571Y-75717857D01*
X152139286Y-75432143D02*
X151567857Y-75432143D01*
X151746429Y-76324999D02*
X151782143Y-76432142D01*
X151817857Y-76467857D01*
X151889286Y-76503571D01*
X151996429Y-76503571D01*
X152067857Y-76467857D01*
X152103571Y-76432142D01*
X152139286Y-76360714D01*
X152139286Y-76074999D01*
X151389286Y-76074999D01*
X151389286Y-76324999D01*
X151425000Y-76396428D01*
X151460714Y-76432142D01*
X151532143Y-76467857D01*
X151603571Y-76467857D01*
X151675000Y-76432142D01*
X151710714Y-76396428D01*
X151746429Y-76324999D01*
X151746429Y-76074999D01*
X151925000Y-76789285D02*
X151925000Y-77146428D01*
X152139286Y-76717857D02*
X151389286Y-76967857D01*
X152139286Y-77217857D01*
X151389286Y-77360714D02*
X151389286Y-77789285D01*
X152139286Y-77574999D02*
X151389286Y-77574999D01*
X151389286Y-77932143D02*
X151389286Y-78360714D01*
X152139286Y-78146428D02*
X151389286Y-78146428D01*
X125517857Y-81839286D02*
X125517857Y-81089286D01*
X125517857Y-81375000D02*
X125446428Y-81339286D01*
X125303571Y-81339286D01*
X125232142Y-81375000D01*
X125196428Y-81410714D01*
X125160714Y-81482143D01*
X125160714Y-81696429D01*
X125196428Y-81767857D01*
X125232142Y-81803571D01*
X125303571Y-81839286D01*
X125446428Y-81839286D01*
X125517857Y-81803571D01*
X124732143Y-81410714D02*
X124803571Y-81375000D01*
X124839286Y-81339286D01*
X124875000Y-81267857D01*
X124875000Y-81232143D01*
X124839286Y-81160714D01*
X124803571Y-81125000D01*
X124732143Y-81089286D01*
X124589286Y-81089286D01*
X124517857Y-81125000D01*
X124482143Y-81160714D01*
X124446428Y-81232143D01*
X124446428Y-81267857D01*
X124482143Y-81339286D01*
X124517857Y-81375000D01*
X124589286Y-81410714D01*
X124732143Y-81410714D01*
X124803571Y-81446429D01*
X124839286Y-81482143D01*
X124875000Y-81553571D01*
X124875000Y-81696429D01*
X124839286Y-81767857D01*
X124803571Y-81803571D01*
X124732143Y-81839286D01*
X124589286Y-81839286D01*
X124517857Y-81803571D01*
X124482143Y-81767857D01*
X124446428Y-81696429D01*
X124446428Y-81553571D01*
X124482143Y-81482143D01*
X124517857Y-81446429D01*
X124589286Y-81410714D01*
X125517857Y-84339286D02*
X125517857Y-83589286D01*
X125517857Y-83875000D02*
X125446428Y-83839286D01*
X125303571Y-83839286D01*
X125232142Y-83875000D01*
X125196428Y-83910714D01*
X125160714Y-83982143D01*
X125160714Y-84196429D01*
X125196428Y-84267857D01*
X125232142Y-84303571D01*
X125303571Y-84339286D01*
X125446428Y-84339286D01*
X125517857Y-84303571D01*
X124910714Y-83589286D02*
X124410714Y-83589286D01*
X124732143Y-84339286D01*
X125517857Y-86839286D02*
X125517857Y-86089286D01*
X125517857Y-86375000D02*
X125446428Y-86339286D01*
X125303571Y-86339286D01*
X125232142Y-86375000D01*
X125196428Y-86410714D01*
X125160714Y-86482143D01*
X125160714Y-86696429D01*
X125196428Y-86767857D01*
X125232142Y-86803571D01*
X125303571Y-86839286D01*
X125446428Y-86839286D01*
X125517857Y-86803571D01*
X124517857Y-86089286D02*
X124660714Y-86089286D01*
X124732143Y-86125000D01*
X124767857Y-86160714D01*
X124839286Y-86267857D01*
X124875000Y-86410714D01*
X124875000Y-86696429D01*
X124839286Y-86767857D01*
X124803571Y-86803571D01*
X124732143Y-86839286D01*
X124589286Y-86839286D01*
X124517857Y-86803571D01*
X124482143Y-86767857D01*
X124446428Y-86696429D01*
X124446428Y-86517857D01*
X124482143Y-86446429D01*
X124517857Y-86410714D01*
X124589286Y-86375000D01*
X124732143Y-86375000D01*
X124803571Y-86410714D01*
X124839286Y-86446429D01*
X124875000Y-86517857D01*
X125517857Y-89439286D02*
X125517857Y-88689286D01*
X125517857Y-88975000D02*
X125446428Y-88939286D01*
X125303571Y-88939286D01*
X125232142Y-88975000D01*
X125196428Y-89010714D01*
X125160714Y-89082143D01*
X125160714Y-89296429D01*
X125196428Y-89367857D01*
X125232142Y-89403571D01*
X125303571Y-89439286D01*
X125446428Y-89439286D01*
X125517857Y-89403571D01*
X124482143Y-88689286D02*
X124839286Y-88689286D01*
X124875000Y-89046429D01*
X124839286Y-89010714D01*
X124767857Y-88975000D01*
X124589286Y-88975000D01*
X124517857Y-89010714D01*
X124482143Y-89046429D01*
X124446428Y-89117857D01*
X124446428Y-89296429D01*
X124482143Y-89367857D01*
X124517857Y-89403571D01*
X124589286Y-89439286D01*
X124767857Y-89439286D01*
X124839286Y-89403571D01*
X124875000Y-89367857D01*
X125517857Y-91939286D02*
X125517857Y-91189286D01*
X125517857Y-91475000D02*
X125446428Y-91439286D01*
X125303571Y-91439286D01*
X125232142Y-91475000D01*
X125196428Y-91510714D01*
X125160714Y-91582143D01*
X125160714Y-91796429D01*
X125196428Y-91867857D01*
X125232142Y-91903571D01*
X125303571Y-91939286D01*
X125446428Y-91939286D01*
X125517857Y-91903571D01*
X124517857Y-91439286D02*
X124517857Y-91939286D01*
X124696428Y-91153571D02*
X124875000Y-91689286D01*
X124410714Y-91689286D01*
X125517857Y-94539286D02*
X125517857Y-93789286D01*
X125517857Y-94075000D02*
X125446428Y-94039286D01*
X125303571Y-94039286D01*
X125232142Y-94075000D01*
X125196428Y-94110714D01*
X125160714Y-94182143D01*
X125160714Y-94396429D01*
X125196428Y-94467857D01*
X125232142Y-94503571D01*
X125303571Y-94539286D01*
X125446428Y-94539286D01*
X125517857Y-94503571D01*
X124910714Y-93789286D02*
X124446428Y-93789286D01*
X124696428Y-94075000D01*
X124589286Y-94075000D01*
X124517857Y-94110714D01*
X124482143Y-94146429D01*
X124446428Y-94217857D01*
X124446428Y-94396429D01*
X124482143Y-94467857D01*
X124517857Y-94503571D01*
X124589286Y-94539286D01*
X124803571Y-94539286D01*
X124875000Y-94503571D01*
X124910714Y-94467857D01*
X125517857Y-97039286D02*
X125517857Y-96289286D01*
X125517857Y-96575000D02*
X125446428Y-96539286D01*
X125303571Y-96539286D01*
X125232142Y-96575000D01*
X125196428Y-96610714D01*
X125160714Y-96682143D01*
X125160714Y-96896429D01*
X125196428Y-96967857D01*
X125232142Y-97003571D01*
X125303571Y-97039286D01*
X125446428Y-97039286D01*
X125517857Y-97003571D01*
X124875000Y-96360714D02*
X124839286Y-96325000D01*
X124767857Y-96289286D01*
X124589286Y-96289286D01*
X124517857Y-96325000D01*
X124482143Y-96360714D01*
X124446428Y-96432143D01*
X124446428Y-96503571D01*
X124482143Y-96610714D01*
X124910714Y-97039286D01*
X124446428Y-97039286D01*
X125517857Y-99539286D02*
X125517857Y-98789286D01*
X125517857Y-99075000D02*
X125446428Y-99039286D01*
X125303571Y-99039286D01*
X125232142Y-99075000D01*
X125196428Y-99110714D01*
X125160714Y-99182143D01*
X125160714Y-99396429D01*
X125196428Y-99467857D01*
X125232142Y-99503571D01*
X125303571Y-99539286D01*
X125446428Y-99539286D01*
X125517857Y-99503571D01*
X124446428Y-99539286D02*
X124875000Y-99539286D01*
X124660714Y-99539286D02*
X124660714Y-98789286D01*
X124732143Y-98896429D01*
X124803571Y-98967857D01*
X124875000Y-99003571D01*
X125517857Y-102139286D02*
X125517857Y-101389286D01*
X125517857Y-101675000D02*
X125446428Y-101639286D01*
X125303571Y-101639286D01*
X125232142Y-101675000D01*
X125196428Y-101710714D01*
X125160714Y-101782143D01*
X125160714Y-101996429D01*
X125196428Y-102067857D01*
X125232142Y-102103571D01*
X125303571Y-102139286D01*
X125446428Y-102139286D01*
X125517857Y-102103571D01*
X124696428Y-101389286D02*
X124625000Y-101389286D01*
X124553571Y-101425000D01*
X124517857Y-101460714D01*
X124482143Y-101532143D01*
X124446428Y-101675000D01*
X124446428Y-101853571D01*
X124482143Y-101996429D01*
X124517857Y-102067857D01*
X124553571Y-102103571D01*
X124625000Y-102139286D01*
X124696428Y-102139286D01*
X124767857Y-102103571D01*
X124803571Y-102067857D01*
X124839286Y-101996429D01*
X124875000Y-101853571D01*
X124875000Y-101675000D01*
X124839286Y-101532143D01*
X124803571Y-101460714D01*
X124767857Y-101425000D01*
X124696428Y-101389286D01*
X139189286Y-82703571D02*
X139082143Y-82739286D01*
X138903572Y-82739286D01*
X138832143Y-82703571D01*
X138796429Y-82667857D01*
X138760714Y-82596429D01*
X138760714Y-82525000D01*
X138796429Y-82453571D01*
X138832143Y-82417857D01*
X138903572Y-82382143D01*
X139046429Y-82346429D01*
X139117857Y-82310714D01*
X139153572Y-82275000D01*
X139189286Y-82203571D01*
X139189286Y-82132143D01*
X139153572Y-82060714D01*
X139117857Y-82025000D01*
X139046429Y-81989286D01*
X138867857Y-81989286D01*
X138760714Y-82025000D01*
X138510714Y-81989286D02*
X138332143Y-82739286D01*
X138189286Y-82203571D01*
X138046428Y-82739286D01*
X137867857Y-81989286D01*
X137582143Y-82739286D02*
X137582143Y-81989286D01*
X137403571Y-81989286D01*
X137296428Y-82025000D01*
X137225000Y-82096429D01*
X137189285Y-82167857D01*
X137153571Y-82310714D01*
X137153571Y-82417857D01*
X137189285Y-82560714D01*
X137225000Y-82632143D01*
X137296428Y-82703571D01*
X137403571Y-82739286D01*
X137582143Y-82739286D01*
X136832143Y-82739286D02*
X136832143Y-81989286D01*
X136332142Y-81989286D02*
X136189285Y-81989286D01*
X136117857Y-82025000D01*
X136046428Y-82096429D01*
X136010714Y-82239286D01*
X136010714Y-82489286D01*
X136046428Y-82632143D01*
X136117857Y-82703571D01*
X136189285Y-82739286D01*
X136332142Y-82739286D01*
X136403571Y-82703571D01*
X136475000Y-82632143D01*
X136510714Y-82489286D01*
X136510714Y-82239286D01*
X136475000Y-82096429D01*
X136403571Y-82025000D01*
X136332142Y-81989286D01*
X137571428Y-79425000D02*
X137642857Y-79389286D01*
X137750000Y-79389286D01*
X137857143Y-79425000D01*
X137928571Y-79496429D01*
X137964286Y-79567857D01*
X138000000Y-79710714D01*
X138000000Y-79817857D01*
X137964286Y-79960714D01*
X137928571Y-80032143D01*
X137857143Y-80103571D01*
X137750000Y-80139286D01*
X137678571Y-80139286D01*
X137571428Y-80103571D01*
X137535714Y-80067857D01*
X137535714Y-79817857D01*
X137678571Y-79817857D01*
X137214286Y-80139286D02*
X137214286Y-79389286D01*
X136785714Y-80139286D01*
X136785714Y-79389286D01*
X136428572Y-80139286D02*
X136428572Y-79389286D01*
X136250000Y-79389286D01*
X136142857Y-79425000D01*
X136071429Y-79496429D01*
X136035714Y-79567857D01*
X136000000Y-79710714D01*
X136000000Y-79817857D01*
X136035714Y-79960714D01*
X136071429Y-80032143D01*
X136142857Y-80103571D01*
X136250000Y-80139286D01*
X136428572Y-80139286D01*
X139396429Y-77603571D02*
X139289286Y-77639286D01*
X139110715Y-77639286D01*
X139039286Y-77603571D01*
X139003572Y-77567857D01*
X138967857Y-77496429D01*
X138967857Y-77425000D01*
X139003572Y-77353571D01*
X139039286Y-77317857D01*
X139110715Y-77282143D01*
X139253572Y-77246429D01*
X139325000Y-77210714D01*
X139360715Y-77175000D01*
X139396429Y-77103571D01*
X139396429Y-77032143D01*
X139360715Y-76960714D01*
X139325000Y-76925000D01*
X139253572Y-76889286D01*
X139075000Y-76889286D01*
X138967857Y-76925000D01*
X138717857Y-76889286D02*
X138539286Y-77639286D01*
X138396429Y-77103571D01*
X138253571Y-77639286D01*
X138075000Y-76889286D01*
X137360714Y-77567857D02*
X137396428Y-77603571D01*
X137503571Y-77639286D01*
X137575000Y-77639286D01*
X137682143Y-77603571D01*
X137753571Y-77532143D01*
X137789286Y-77460714D01*
X137825000Y-77317857D01*
X137825000Y-77210714D01*
X137789286Y-77067857D01*
X137753571Y-76996429D01*
X137682143Y-76925000D01*
X137575000Y-76889286D01*
X137503571Y-76889286D01*
X137396428Y-76925000D01*
X137360714Y-76960714D01*
X136682143Y-77639286D02*
X137039286Y-77639286D01*
X137039286Y-76889286D01*
X136432143Y-77639286D02*
X136432143Y-76889286D01*
X136003571Y-77639286D02*
X136325000Y-77210714D01*
X136003571Y-76889286D02*
X136432143Y-77317857D01*
X137828571Y-74289286D02*
X137364285Y-74289286D01*
X137614285Y-74575000D01*
X137507143Y-74575000D01*
X137435714Y-74610714D01*
X137400000Y-74646429D01*
X137364285Y-74717857D01*
X137364285Y-74896429D01*
X137400000Y-74967857D01*
X137435714Y-75003571D01*
X137507143Y-75039286D01*
X137721428Y-75039286D01*
X137792857Y-75003571D01*
X137828571Y-74967857D01*
X137149999Y-74289286D02*
X136899999Y-75039286D01*
X136649999Y-74289286D01*
X136471428Y-74289286D02*
X136007142Y-74289286D01*
X136257142Y-74575000D01*
X136150000Y-74575000D01*
X136078571Y-74610714D01*
X136042857Y-74646429D01*
X136007142Y-74717857D01*
X136007142Y-74896429D01*
X136042857Y-74967857D01*
X136078571Y-75003571D01*
X136150000Y-75039286D01*
X136364285Y-75039286D01*
X136435714Y-75003571D01*
X136471428Y-74967857D01*
D13*
X141250000Y-93500000D02*
X141250000Y-92600000D01*
X141250000Y-89900000D02*
X146150000Y-89900000D01*
X146150000Y-93500000D02*
X141250000Y-93500000D01*
X135430000Y-86210000D02*
X132770000Y-86210000D01*
X135430000Y-75990000D02*
X135430000Y-86210000D01*
X132770000Y-75990000D02*
X132770000Y-86210000D01*
X135430000Y-75990000D02*
X132770000Y-75990000D01*
X135430000Y-74720000D02*
X135430000Y-73390000D01*
X135430000Y-73390000D02*
X134100000Y-73390000D01*
X157500000Y-83275000D02*
X157500000Y-84025000D01*
X157500000Y-84025000D02*
X158100000Y-84025000D01*
X157200000Y-84025000D02*
X155050000Y-84025000D01*
X163350000Y-84025000D02*
X163350000Y-80475000D01*
X155050000Y-80475000D02*
X157950000Y-80475000D01*
X155050000Y-84025000D02*
X155050000Y-80475000D01*
X163350000Y-80475000D02*
X160450000Y-80475000D01*
X161200000Y-84025000D02*
X163350000Y-84025000D01*
X126045000Y-80135000D02*
X131245000Y-80135000D01*
X126045000Y-100515000D02*
X126045000Y-80135000D01*
X131245000Y-103115000D02*
X131245000Y-80135000D01*
X126045000Y-100515000D02*
X128645000Y-100515000D01*
X128645000Y-100515000D02*
X128645000Y-103115000D01*
X128645000Y-103115000D02*
X131245000Y-103115000D01*
X126045000Y-101785000D02*
X126045000Y-103115000D01*
X126045000Y-103115000D02*
X127375000Y-103115000D01*
X139750000Y-91030000D02*
X139250000Y-91030000D01*
X139250000Y-89970000D02*
X139750000Y-89970000D01*
X139750000Y-92230000D02*
X139250000Y-92230000D01*
X139250000Y-91170000D02*
X139750000Y-91170000D01*
X139750000Y-93330000D02*
X139250000Y-93330000D01*
X139250000Y-92270000D02*
X139750000Y-92270000D01*
D10*
X144282143Y-89539286D02*
X144639286Y-89539286D01*
X144639286Y-88789286D01*
X144032143Y-89146429D02*
X143782143Y-89146429D01*
X143675000Y-89539286D02*
X144032143Y-89539286D01*
X144032143Y-88789286D01*
X143675000Y-88789286D01*
X143353572Y-89539286D02*
X143353572Y-88789286D01*
X143175000Y-88789286D01*
X143067857Y-88825000D01*
X142996429Y-88896429D01*
X142960714Y-88967857D01*
X142925000Y-89110714D01*
X142925000Y-89217857D01*
X142960714Y-89360714D01*
X142996429Y-89432143D01*
X143067857Y-89503571D01*
X143175000Y-89539286D01*
X143353572Y-89539286D01*
X134350000Y-86849286D02*
X134350000Y-87385000D01*
X134385714Y-87492143D01*
X134457143Y-87563571D01*
X134564286Y-87599286D01*
X134635714Y-87599286D01*
X133599999Y-87599286D02*
X134028571Y-87599286D01*
X133814285Y-87599286D02*
X133814285Y-86849286D01*
X133885714Y-86956429D01*
X133957142Y-87027857D01*
X134028571Y-87063571D01*
X159400000Y-84664286D02*
X159400000Y-85200000D01*
X159435714Y-85307143D01*
X159507143Y-85378571D01*
X159614286Y-85414286D01*
X159685714Y-85414286D01*
X159114285Y-84664286D02*
X158649999Y-84664286D01*
X158899999Y-84950000D01*
X158792857Y-84950000D01*
X158721428Y-84985714D01*
X158685714Y-85021429D01*
X158649999Y-85092857D01*
X158649999Y-85271429D01*
X158685714Y-85342857D01*
X158721428Y-85378571D01*
X158792857Y-85414286D01*
X159007142Y-85414286D01*
X159078571Y-85378571D01*
X159114285Y-85342857D01*
X128895000Y-103704286D02*
X128895000Y-104240000D01*
X128930714Y-104347143D01*
X129002143Y-104418571D01*
X129109286Y-104454286D01*
X129180714Y-104454286D01*
X128180714Y-103704286D02*
X128537857Y-103704286D01*
X128573571Y-104061429D01*
X128537857Y-104025714D01*
X128466428Y-103990000D01*
X128287857Y-103990000D01*
X128216428Y-104025714D01*
X128180714Y-104061429D01*
X128144999Y-104132857D01*
X128144999Y-104311429D01*
X128180714Y-104382857D01*
X128216428Y-104418571D01*
X128287857Y-104454286D01*
X128466428Y-104454286D01*
X128537857Y-104418571D01*
X128573571Y-104382857D01*
X138183333Y-90726190D02*
X138350000Y-90488095D01*
X138469047Y-90726190D02*
X138469047Y-90226190D01*
X138278571Y-90226190D01*
X138230952Y-90250000D01*
X138207143Y-90273810D01*
X138183333Y-90321429D01*
X138183333Y-90392857D01*
X138207143Y-90440476D01*
X138230952Y-90464286D01*
X138278571Y-90488095D01*
X138469047Y-90488095D01*
X137707143Y-90726190D02*
X137992857Y-90726190D01*
X137850000Y-90726190D02*
X137850000Y-90226190D01*
X137897619Y-90297619D01*
X137945238Y-90345238D01*
X137992857Y-90369048D01*
X138183333Y-91926190D02*
X138350000Y-91688095D01*
X138469047Y-91926190D02*
X138469047Y-91426190D01*
X138278571Y-91426190D01*
X138230952Y-91450000D01*
X138207143Y-91473810D01*
X138183333Y-91521429D01*
X138183333Y-91592857D01*
X138207143Y-91640476D01*
X138230952Y-91664286D01*
X138278571Y-91688095D01*
X138469047Y-91688095D01*
X137992857Y-91473810D02*
X137969047Y-91450000D01*
X137921428Y-91426190D01*
X137802381Y-91426190D01*
X137754762Y-91450000D01*
X137730952Y-91473810D01*
X137707143Y-91521429D01*
X137707143Y-91569048D01*
X137730952Y-91640476D01*
X138016666Y-91926190D01*
X137707143Y-91926190D01*
X138183333Y-93026190D02*
X138350000Y-92788095D01*
X138469047Y-93026190D02*
X138469047Y-92526190D01*
X138278571Y-92526190D01*
X138230952Y-92550000D01*
X138207143Y-92573810D01*
X138183333Y-92621429D01*
X138183333Y-92692857D01*
X138207143Y-92740476D01*
X138230952Y-92764286D01*
X138278571Y-92788095D01*
X138469047Y-92788095D01*
X138016666Y-92526190D02*
X137707143Y-92526190D01*
X137873809Y-92716667D01*
X137802381Y-92716667D01*
X137754762Y-92740476D01*
X137730952Y-92764286D01*
X137707143Y-92811905D01*
X137707143Y-92930952D01*
X137730952Y-92978571D01*
X137754762Y-93002381D01*
X137802381Y-93026190D01*
X137945238Y-93026190D01*
X137992857Y-93002381D01*
X138016666Y-92978571D01*
M02*
