G04 #@! TF.FileFunction,Legend,Top*
%FSLAX46Y46*%
G04 Gerber Fmt 4.6, Leading zero omitted, Abs format (unit mm)*
G04 Created by KiCad (PCBNEW 4.0.7) date Tuesday, 19 '19e' June '19e' 2018, 11:22:24*
%MOMM*%
%LPD*%
G01*
G04 APERTURE LIST*
%ADD10C,0.100000*%
%ADD11C,0.120000*%
%ADD12C,0.254000*%
%ADD13C,0.200000*%
%ADD14C,0.127000*%
%ADD15C,0.150000*%
G04 APERTURE END LIST*
D10*
X155828572Y-89825000D02*
X155757143Y-89789286D01*
X155650000Y-89789286D01*
X155542857Y-89825000D01*
X155471429Y-89896429D01*
X155435714Y-89967857D01*
X155400000Y-90110714D01*
X155400000Y-90217857D01*
X155435714Y-90360714D01*
X155471429Y-90432143D01*
X155542857Y-90503571D01*
X155650000Y-90539286D01*
X155721429Y-90539286D01*
X155828572Y-90503571D01*
X155864286Y-90467857D01*
X155864286Y-90217857D01*
X155721429Y-90217857D01*
X156185714Y-90539286D02*
X156185714Y-89789286D01*
X156614286Y-90539286D01*
X156614286Y-89789286D01*
X156971428Y-90539286D02*
X156971428Y-89789286D01*
X157150000Y-89789286D01*
X157257143Y-89825000D01*
X157328571Y-89896429D01*
X157364286Y-89967857D01*
X157400000Y-90110714D01*
X157400000Y-90217857D01*
X157364286Y-90360714D01*
X157328571Y-90432143D01*
X157257143Y-90503571D01*
X157150000Y-90539286D01*
X156971428Y-90539286D01*
X156110714Y-91539286D02*
X156110714Y-90789286D01*
X156539286Y-91539286D01*
X156539286Y-90789286D01*
X157325000Y-91467857D02*
X157289286Y-91503571D01*
X157182143Y-91539286D01*
X157110714Y-91539286D01*
X157003571Y-91503571D01*
X156932143Y-91432143D01*
X156896428Y-91360714D01*
X156860714Y-91217857D01*
X156860714Y-91110714D01*
X156896428Y-90967857D01*
X156932143Y-90896429D01*
X157003571Y-90825000D01*
X157110714Y-90789286D01*
X157182143Y-90789286D01*
X157289286Y-90825000D01*
X157325000Y-90860714D01*
X156575000Y-92539286D02*
X156325000Y-92182143D01*
X156146428Y-92539286D02*
X156146428Y-91789286D01*
X156432143Y-91789286D01*
X156503571Y-91825000D01*
X156539286Y-91860714D01*
X156575000Y-91932143D01*
X156575000Y-92039286D01*
X156539286Y-92110714D01*
X156503571Y-92146429D01*
X156432143Y-92182143D01*
X156146428Y-92182143D01*
X156825000Y-91789286D02*
X157325000Y-92539286D01*
X157325000Y-91789286D02*
X156825000Y-92539286D01*
X155471429Y-92789286D02*
X155935715Y-92789286D01*
X155685715Y-93075000D01*
X155792857Y-93075000D01*
X155864286Y-93110714D01*
X155900000Y-93146429D01*
X155935715Y-93217857D01*
X155935715Y-93396429D01*
X155900000Y-93467857D01*
X155864286Y-93503571D01*
X155792857Y-93539286D01*
X155578572Y-93539286D01*
X155507143Y-93503571D01*
X155471429Y-93467857D01*
X156150001Y-92789286D02*
X156400001Y-93539286D01*
X156650001Y-92789286D01*
X156828572Y-92789286D02*
X157292858Y-92789286D01*
X157042858Y-93075000D01*
X157150000Y-93075000D01*
X157221429Y-93110714D01*
X157257143Y-93146429D01*
X157292858Y-93217857D01*
X157292858Y-93396429D01*
X157257143Y-93467857D01*
X157221429Y-93503571D01*
X157150000Y-93539286D01*
X156935715Y-93539286D01*
X156864286Y-93503571D01*
X156828572Y-93467857D01*
X141889286Y-80128571D02*
X141889286Y-79664285D01*
X142175000Y-79914285D01*
X142175000Y-79807143D01*
X142210714Y-79735714D01*
X142246429Y-79700000D01*
X142317857Y-79664285D01*
X142496429Y-79664285D01*
X142567857Y-79700000D01*
X142603571Y-79735714D01*
X142639286Y-79807143D01*
X142639286Y-80021428D01*
X142603571Y-80092857D01*
X142567857Y-80128571D01*
X141889286Y-79449999D02*
X142639286Y-79199999D01*
X141889286Y-78949999D01*
X141889286Y-78771428D02*
X141889286Y-78307142D01*
X142175000Y-78557142D01*
X142175000Y-78450000D01*
X142210714Y-78378571D01*
X142246429Y-78342857D01*
X142317857Y-78307142D01*
X142496429Y-78307142D01*
X142567857Y-78342857D01*
X142603571Y-78378571D01*
X142639286Y-78450000D01*
X142639286Y-78664285D01*
X142603571Y-78735714D01*
X142567857Y-78771428D01*
X145025000Y-79771428D02*
X144989286Y-79842857D01*
X144989286Y-79950000D01*
X145025000Y-80057143D01*
X145096429Y-80128571D01*
X145167857Y-80164286D01*
X145310714Y-80200000D01*
X145417857Y-80200000D01*
X145560714Y-80164286D01*
X145632143Y-80128571D01*
X145703571Y-80057143D01*
X145739286Y-79950000D01*
X145739286Y-79878571D01*
X145703571Y-79771428D01*
X145667857Y-79735714D01*
X145417857Y-79735714D01*
X145417857Y-79878571D01*
X145739286Y-79414286D02*
X144989286Y-79414286D01*
X145739286Y-78985714D01*
X144989286Y-78985714D01*
X145739286Y-78628572D02*
X144989286Y-78628572D01*
X144989286Y-78450000D01*
X145025000Y-78342857D01*
X145096429Y-78271429D01*
X145167857Y-78235714D01*
X145310714Y-78200000D01*
X145417857Y-78200000D01*
X145560714Y-78235714D01*
X145632143Y-78271429D01*
X145703571Y-78342857D01*
X145739286Y-78450000D01*
X145739286Y-78628572D01*
X144639286Y-79489286D02*
X143889286Y-79489286D01*
X144639286Y-79060714D01*
X143889286Y-79060714D01*
X144567857Y-78275000D02*
X144603571Y-78310714D01*
X144639286Y-78417857D01*
X144639286Y-78489286D01*
X144603571Y-78596429D01*
X144532143Y-78667857D01*
X144460714Y-78703572D01*
X144317857Y-78739286D01*
X144210714Y-78739286D01*
X144067857Y-78703572D01*
X143996429Y-78667857D01*
X143925000Y-78596429D01*
X143889286Y-78489286D01*
X143889286Y-78417857D01*
X143925000Y-78310714D01*
X143960714Y-78275000D01*
X142889286Y-79371428D02*
X142889286Y-78942857D01*
X143639286Y-79157143D02*
X142889286Y-79157143D01*
X142889286Y-78764285D02*
X143639286Y-78264285D01*
X142889286Y-78264285D02*
X143639286Y-78764285D01*
X149100000Y-104550000D02*
G75*
G03X149100000Y-104550000I-50000J0D01*
G01*
X147850000Y-102700000D02*
X147850000Y-104400000D01*
X148950000Y-102700000D02*
X147850000Y-102700000D01*
X148950000Y-104400000D02*
X148950000Y-102700000D01*
X147850000Y-104400000D02*
X148950000Y-104400000D01*
D11*
X154750000Y-86100000D02*
X154050000Y-86100000D01*
X154050000Y-84900000D02*
X154750000Y-84900000D01*
X146070000Y-82850000D02*
X146070000Y-82350000D01*
X145130000Y-82350000D02*
X145130000Y-82850000D01*
X153870000Y-91850000D02*
X153870000Y-91350000D01*
X152930000Y-91350000D02*
X152930000Y-91850000D01*
X152950000Y-79200000D02*
X152250000Y-79200000D01*
X152250000Y-78000000D02*
X152950000Y-78000000D01*
X142170000Y-81850000D02*
X142170000Y-81350000D01*
X141230000Y-81350000D02*
X141230000Y-81850000D01*
X139250000Y-80170000D02*
X139750000Y-80170000D01*
X139750000Y-79230000D02*
X139250000Y-79230000D01*
X153870000Y-98350000D02*
X153870000Y-97850000D01*
X152930000Y-97850000D02*
X152930000Y-98350000D01*
X155070000Y-98350000D02*
X155070000Y-97850000D01*
X154130000Y-97850000D02*
X154130000Y-98350000D01*
X144030000Y-97750000D02*
X144030000Y-98250000D01*
X144970000Y-98250000D02*
X144970000Y-97750000D01*
X152930000Y-100050000D02*
X152930000Y-100550000D01*
X153870000Y-100550000D02*
X153870000Y-100050000D01*
X142530000Y-97750000D02*
X142530000Y-98250000D01*
X143470000Y-98250000D02*
X143470000Y-97750000D01*
X139770000Y-101600000D02*
X139770000Y-101100000D01*
X138830000Y-101100000D02*
X138830000Y-101600000D01*
X143680000Y-102200000D02*
X143680000Y-102700000D01*
X144620000Y-102700000D02*
X144620000Y-102200000D01*
X148050000Y-81800000D02*
X146350000Y-81800000D01*
X146350000Y-81800000D02*
X146350000Y-84350000D01*
X148050000Y-81800000D02*
X148050000Y-84350000D01*
X153900000Y-79900000D02*
X152900000Y-79900000D01*
X152900000Y-79900000D02*
X152900000Y-82000000D01*
X153900000Y-79900000D02*
X153900000Y-82000000D01*
X157400000Y-88500000D02*
X157400000Y-87500000D01*
X157400000Y-87500000D02*
X155300000Y-87500000D01*
X157400000Y-88500000D02*
X155300000Y-88500000D01*
X135500000Y-88370000D02*
X135500000Y-87230000D01*
X135500000Y-87230000D02*
X133400000Y-87230000D01*
X135500000Y-88370000D02*
X133400000Y-88370000D01*
X135500000Y-89970000D02*
X135500000Y-88830000D01*
X135500000Y-88830000D02*
X133400000Y-88830000D01*
X135500000Y-89970000D02*
X133400000Y-89970000D01*
X135500000Y-91570000D02*
X135500000Y-90430000D01*
X135500000Y-90430000D02*
X133400000Y-90430000D01*
X135500000Y-91570000D02*
X133400000Y-91570000D01*
D12*
X148400000Y-71900000D02*
X139200000Y-71900000D01*
X148400000Y-71900000D02*
X148400000Y-73500000D01*
X148400000Y-77200000D02*
X148400000Y-75500000D01*
X139200000Y-71900000D02*
X139200000Y-73500000D01*
X139200000Y-77200000D02*
X139200000Y-75500000D01*
X148400000Y-77200000D02*
X145900000Y-77200000D01*
X139200000Y-77200000D02*
X141700000Y-77200000D01*
D11*
X149740000Y-72190000D02*
X149740000Y-76890000D01*
X149740000Y-76890000D02*
X155840000Y-76890000D01*
X155840000Y-76890000D02*
X155840000Y-72190000D01*
X155840000Y-72190000D02*
X149740000Y-72190000D01*
X152290000Y-72190000D02*
X152290000Y-72790000D01*
X152290000Y-72790000D02*
X150340000Y-72790000D01*
X150340000Y-72790000D02*
X150340000Y-76290000D01*
X150340000Y-76290000D02*
X155240000Y-76290000D01*
X155240000Y-76290000D02*
X155240000Y-72790000D01*
X155240000Y-72790000D02*
X153290000Y-72790000D01*
X153290000Y-72790000D02*
X153290000Y-72190000D01*
X149740000Y-73490000D02*
X150340000Y-73490000D01*
X149740000Y-74790000D02*
X150340000Y-74790000D01*
X155840000Y-73490000D02*
X155240000Y-73490000D01*
X155840000Y-74790000D02*
X155240000Y-74790000D01*
X151490000Y-72190000D02*
X151490000Y-71990000D01*
X151490000Y-71990000D02*
X151190000Y-71990000D01*
X151190000Y-71990000D02*
X151190000Y-72190000D01*
X151490000Y-72090000D02*
X151190000Y-72090000D01*
X152690000Y-76290000D02*
X152690000Y-75790000D01*
X152690000Y-75790000D02*
X152890000Y-75790000D01*
X152890000Y-75790000D02*
X152890000Y-76290000D01*
X152790000Y-76290000D02*
X152790000Y-75790000D01*
X150690000Y-71890000D02*
X149440000Y-71890000D01*
X149440000Y-71890000D02*
X149440000Y-73140000D01*
X150380000Y-78940000D02*
X149450000Y-78940000D01*
X147220000Y-78940000D02*
X148150000Y-78940000D01*
X147220000Y-78940000D02*
X147220000Y-81100000D01*
X150380000Y-78940000D02*
X150380000Y-80400000D01*
X153930000Y-84050000D02*
X153930000Y-83550000D01*
X152870000Y-83550000D02*
X152870000Y-84050000D01*
X151270000Y-80550000D02*
X151270000Y-81050000D01*
X152330000Y-81050000D02*
X152330000Y-80550000D01*
X150950000Y-87230000D02*
X151450000Y-87230000D01*
X151450000Y-86170000D02*
X150950000Y-86170000D01*
X154050000Y-89070000D02*
X153550000Y-89070000D01*
X153550000Y-90130000D02*
X154050000Y-90130000D01*
X149215000Y-88550000D02*
X149215000Y-90350000D01*
X152435000Y-90350000D02*
X152435000Y-87900000D01*
X148990000Y-83000000D02*
X148990000Y-84800000D01*
X152210000Y-84800000D02*
X152210000Y-82350000D01*
D13*
X138650000Y-84150000D02*
G75*
G03X138650000Y-84150000I-100000J0D01*
G01*
D14*
X138000000Y-83100000D02*
X138000000Y-83750000D01*
X138000000Y-83750000D02*
X138150000Y-83750000D01*
X138000000Y-81300000D02*
X138000000Y-80650000D01*
X138000000Y-80650000D02*
X138150000Y-80650000D01*
X140450000Y-80650000D02*
X140600000Y-80650000D01*
X140600000Y-80650000D02*
X140600000Y-81300000D01*
X140450000Y-83750000D02*
X140600000Y-83750000D01*
X140600000Y-83750000D02*
X140600000Y-83100000D01*
D11*
X154130000Y-100050000D02*
X154130000Y-100550000D01*
X155070000Y-100550000D02*
X155070000Y-100050000D01*
X150950000Y-102830000D02*
X150450000Y-102830000D01*
X150450000Y-103770000D02*
X150950000Y-103770000D01*
X150950000Y-104030000D02*
X150450000Y-104030000D01*
X150450000Y-104970000D02*
X150950000Y-104970000D01*
X145975000Y-105120000D02*
X146475000Y-105120000D01*
X146475000Y-104180000D02*
X145975000Y-104180000D01*
X145975000Y-103945000D02*
X146475000Y-103945000D01*
X146475000Y-103005000D02*
X145975000Y-103005000D01*
X150250000Y-94630000D02*
X149750000Y-94630000D01*
X149750000Y-95570000D02*
X150250000Y-95570000D01*
X150250000Y-92830000D02*
X149750000Y-92830000D01*
X149750000Y-93770000D02*
X150250000Y-93770000D01*
X140370000Y-98250000D02*
X140370000Y-97750000D01*
X139430000Y-97750000D02*
X139430000Y-98250000D01*
X138870000Y-98250000D02*
X138870000Y-97750000D01*
X137930000Y-97750000D02*
X137930000Y-98250000D01*
X141870000Y-98250000D02*
X141870000Y-97750000D01*
X140930000Y-97750000D02*
X140930000Y-98250000D01*
X136100000Y-98150000D02*
X136100000Y-97450000D01*
X137300000Y-97450000D02*
X137300000Y-98150000D01*
X144750000Y-84870000D02*
X145250000Y-84870000D01*
X145250000Y-83930000D02*
X144750000Y-83930000D01*
X136230000Y-94550000D02*
X136230000Y-95050000D01*
X137170000Y-95050000D02*
X137170000Y-94550000D01*
D12*
X163600000Y-96300000D02*
X163600000Y-87100000D01*
X163600000Y-96300000D02*
X162000000Y-96300000D01*
X158300000Y-96300000D02*
X160000000Y-96300000D01*
X163600000Y-87100000D02*
X162000000Y-87100000D01*
X158300000Y-87100000D02*
X160000000Y-87100000D01*
X158300000Y-96300000D02*
X158300000Y-93800000D01*
X158300000Y-87100000D02*
X158300000Y-89600000D01*
D11*
X143450000Y-82470000D02*
X142950000Y-82470000D01*
X142950000Y-83530000D02*
X143450000Y-83530000D01*
X142850000Y-83770000D02*
X142350000Y-83770000D01*
X142350000Y-84830000D02*
X142850000Y-84830000D01*
X152650000Y-94470000D02*
X152150000Y-94470000D01*
X152150000Y-95530000D02*
X152650000Y-95530000D01*
X153250000Y-102730000D02*
X153750000Y-102730000D01*
X153750000Y-101670000D02*
X153250000Y-101670000D01*
D15*
X151025000Y-102175000D02*
X150500000Y-102175000D01*
X145775000Y-96925000D02*
X146300000Y-96925000D01*
X145775000Y-102175000D02*
X146300000Y-102175000D01*
X151025000Y-96925000D02*
X151025000Y-97450000D01*
X145775000Y-96925000D02*
X145775000Y-97450000D01*
X145775000Y-102175000D02*
X145775000Y-101650000D01*
X151025000Y-102175000D02*
X151025000Y-101650000D01*
X139575000Y-94125000D02*
X139800000Y-94125000D01*
X139575000Y-86875000D02*
X139875000Y-86875000D01*
X146825000Y-86875000D02*
X146525000Y-86875000D01*
X146825000Y-94125000D02*
X146525000Y-94125000D01*
X139575000Y-94125000D02*
X139575000Y-93825000D01*
X146825000Y-94125000D02*
X146825000Y-93825000D01*
X146825000Y-86875000D02*
X146825000Y-87175000D01*
X139575000Y-86875000D02*
X139575000Y-87175000D01*
X139800000Y-94125000D02*
X139800000Y-95350000D01*
D11*
X143450000Y-99900000D02*
X140150000Y-99900000D01*
X140150000Y-99900000D02*
X140150000Y-103900000D01*
D10*
X148897619Y-104964286D02*
X148969048Y-104988095D01*
X148992857Y-105011905D01*
X149016667Y-105059524D01*
X149016667Y-105130952D01*
X148992857Y-105178571D01*
X148969048Y-105202381D01*
X148921429Y-105226190D01*
X148730953Y-105226190D01*
X148730953Y-104726190D01*
X148897619Y-104726190D01*
X148945238Y-104750000D01*
X148969048Y-104773810D01*
X148992857Y-104821429D01*
X148992857Y-104869048D01*
X148969048Y-104916667D01*
X148945238Y-104940476D01*
X148897619Y-104964286D01*
X148730953Y-104964286D01*
X149492857Y-105226190D02*
X149207143Y-105226190D01*
X149350000Y-105226190D02*
X149350000Y-104726190D01*
X149302381Y-104797619D01*
X149254762Y-104845238D01*
X149207143Y-104869048D01*
D15*
X161920476Y-111332381D02*
X161920476Y-110332381D01*
X162253810Y-111046667D01*
X162587143Y-110332381D01*
X162587143Y-111332381D01*
X162968095Y-110332381D02*
X163587143Y-110332381D01*
X163253809Y-110713333D01*
X163396667Y-110713333D01*
X163491905Y-110760952D01*
X163539524Y-110808571D01*
X163587143Y-110903810D01*
X163587143Y-111141905D01*
X163539524Y-111237143D01*
X163491905Y-111284762D01*
X163396667Y-111332381D01*
X163110952Y-111332381D01*
X163015714Y-111284762D01*
X162968095Y-111237143D01*
X124140476Y-111382381D02*
X124140476Y-110382381D01*
X124473810Y-111096667D01*
X124807143Y-110382381D01*
X124807143Y-111382381D01*
X125188095Y-110382381D02*
X125807143Y-110382381D01*
X125473809Y-110763333D01*
X125616667Y-110763333D01*
X125711905Y-110810952D01*
X125759524Y-110858571D01*
X125807143Y-110953810D01*
X125807143Y-111191905D01*
X125759524Y-111287143D01*
X125711905Y-111334762D01*
X125616667Y-111382381D01*
X125330952Y-111382381D01*
X125235714Y-111334762D01*
X125188095Y-111287143D01*
X161870476Y-73022381D02*
X161870476Y-72022381D01*
X162203810Y-72736667D01*
X162537143Y-72022381D01*
X162537143Y-73022381D01*
X162918095Y-72022381D02*
X163537143Y-72022381D01*
X163203809Y-72403333D01*
X163346667Y-72403333D01*
X163441905Y-72450952D01*
X163489524Y-72498571D01*
X163537143Y-72593810D01*
X163537143Y-72831905D01*
X163489524Y-72927143D01*
X163441905Y-72974762D01*
X163346667Y-73022381D01*
X163060952Y-73022381D01*
X162965714Y-72974762D01*
X162918095Y-72927143D01*
D10*
X144175000Y-107075000D02*
X144532143Y-107075000D01*
X144103572Y-107289286D02*
X144353572Y-106539286D01*
X144603572Y-107289286D01*
X144853571Y-106896429D02*
X145103571Y-106896429D01*
X145210714Y-107289286D02*
X144853571Y-107289286D01*
X144853571Y-106539286D01*
X145210714Y-106539286D01*
X145925000Y-107289286D02*
X145496428Y-107289286D01*
X145710714Y-107289286D02*
X145710714Y-106539286D01*
X145639285Y-106646429D01*
X145567857Y-106717857D01*
X145496428Y-106753571D01*
X155616667Y-86778571D02*
X155592857Y-86802381D01*
X155521429Y-86826190D01*
X155473810Y-86826190D01*
X155402381Y-86802381D01*
X155354762Y-86754762D01*
X155330953Y-86707143D01*
X155307143Y-86611905D01*
X155307143Y-86540476D01*
X155330953Y-86445238D01*
X155354762Y-86397619D01*
X155402381Y-86350000D01*
X155473810Y-86326190D01*
X155521429Y-86326190D01*
X155592857Y-86350000D01*
X155616667Y-86373810D01*
X156092857Y-86826190D02*
X155807143Y-86826190D01*
X155950000Y-86826190D02*
X155950000Y-86326190D01*
X155902381Y-86397619D01*
X155854762Y-86445238D01*
X155807143Y-86469048D01*
X145416667Y-81378571D02*
X145392857Y-81402381D01*
X145321429Y-81426190D01*
X145273810Y-81426190D01*
X145202381Y-81402381D01*
X145154762Y-81354762D01*
X145130953Y-81307143D01*
X145107143Y-81211905D01*
X145107143Y-81140476D01*
X145130953Y-81045238D01*
X145154762Y-80997619D01*
X145202381Y-80950000D01*
X145273810Y-80926190D01*
X145321429Y-80926190D01*
X145392857Y-80950000D01*
X145416667Y-80973810D01*
X145607143Y-80973810D02*
X145630953Y-80950000D01*
X145678572Y-80926190D01*
X145797619Y-80926190D01*
X145845238Y-80950000D01*
X145869048Y-80973810D01*
X145892857Y-81021429D01*
X145892857Y-81069048D01*
X145869048Y-81140476D01*
X145583334Y-81426190D01*
X145892857Y-81426190D01*
X154578571Y-91683333D02*
X154602381Y-91707143D01*
X154626190Y-91778571D01*
X154626190Y-91826190D01*
X154602381Y-91897619D01*
X154554762Y-91945238D01*
X154507143Y-91969047D01*
X154411905Y-91992857D01*
X154340476Y-91992857D01*
X154245238Y-91969047D01*
X154197619Y-91945238D01*
X154150000Y-91897619D01*
X154126190Y-91826190D01*
X154126190Y-91778571D01*
X154150000Y-91707143D01*
X154173810Y-91683333D01*
X154126190Y-91516666D02*
X154126190Y-91207143D01*
X154316667Y-91373809D01*
X154316667Y-91302381D01*
X154340476Y-91254762D01*
X154364286Y-91230952D01*
X154411905Y-91207143D01*
X154530952Y-91207143D01*
X154578571Y-91230952D01*
X154602381Y-91254762D01*
X154626190Y-91302381D01*
X154626190Y-91445238D01*
X154602381Y-91492857D01*
X154578571Y-91516666D01*
X152516667Y-77778571D02*
X152492857Y-77802381D01*
X152421429Y-77826190D01*
X152373810Y-77826190D01*
X152302381Y-77802381D01*
X152254762Y-77754762D01*
X152230953Y-77707143D01*
X152207143Y-77611905D01*
X152207143Y-77540476D01*
X152230953Y-77445238D01*
X152254762Y-77397619D01*
X152302381Y-77350000D01*
X152373810Y-77326190D01*
X152421429Y-77326190D01*
X152492857Y-77350000D01*
X152516667Y-77373810D01*
X152945238Y-77492857D02*
X152945238Y-77826190D01*
X152826191Y-77302381D02*
X152707143Y-77659524D01*
X153016667Y-77659524D01*
X141616667Y-83278571D02*
X141592857Y-83302381D01*
X141521429Y-83326190D01*
X141473810Y-83326190D01*
X141402381Y-83302381D01*
X141354762Y-83254762D01*
X141330953Y-83207143D01*
X141307143Y-83111905D01*
X141307143Y-83040476D01*
X141330953Y-82945238D01*
X141354762Y-82897619D01*
X141402381Y-82850000D01*
X141473810Y-82826190D01*
X141521429Y-82826190D01*
X141592857Y-82850000D01*
X141616667Y-82873810D01*
X142069048Y-82826190D02*
X141830953Y-82826190D01*
X141807143Y-83064286D01*
X141830953Y-83040476D01*
X141878572Y-83016667D01*
X141997619Y-83016667D01*
X142045238Y-83040476D01*
X142069048Y-83064286D01*
X142092857Y-83111905D01*
X142092857Y-83230952D01*
X142069048Y-83278571D01*
X142045238Y-83302381D01*
X141997619Y-83326190D01*
X141878572Y-83326190D01*
X141830953Y-83302381D01*
X141807143Y-83278571D01*
X139416667Y-78978571D02*
X139392857Y-79002381D01*
X139321429Y-79026190D01*
X139273810Y-79026190D01*
X139202381Y-79002381D01*
X139154762Y-78954762D01*
X139130953Y-78907143D01*
X139107143Y-78811905D01*
X139107143Y-78740476D01*
X139130953Y-78645238D01*
X139154762Y-78597619D01*
X139202381Y-78550000D01*
X139273810Y-78526190D01*
X139321429Y-78526190D01*
X139392857Y-78550000D01*
X139416667Y-78573810D01*
X139845238Y-78526190D02*
X139750000Y-78526190D01*
X139702381Y-78550000D01*
X139678572Y-78573810D01*
X139630953Y-78645238D01*
X139607143Y-78740476D01*
X139607143Y-78930952D01*
X139630953Y-78978571D01*
X139654762Y-79002381D01*
X139702381Y-79026190D01*
X139797619Y-79026190D01*
X139845238Y-79002381D01*
X139869048Y-78978571D01*
X139892857Y-78930952D01*
X139892857Y-78811905D01*
X139869048Y-78764286D01*
X139845238Y-78740476D01*
X139797619Y-78716667D01*
X139702381Y-78716667D01*
X139654762Y-78740476D01*
X139630953Y-78764286D01*
X139607143Y-78811905D01*
X152216667Y-98278571D02*
X152192857Y-98302381D01*
X152121429Y-98326190D01*
X152073810Y-98326190D01*
X152002381Y-98302381D01*
X151954762Y-98254762D01*
X151930953Y-98207143D01*
X151907143Y-98111905D01*
X151907143Y-98040476D01*
X151930953Y-97945238D01*
X151954762Y-97897619D01*
X152002381Y-97850000D01*
X152073810Y-97826190D01*
X152121429Y-97826190D01*
X152192857Y-97850000D01*
X152216667Y-97873810D01*
X152383334Y-97826190D02*
X152716667Y-97826190D01*
X152502381Y-98326190D01*
X155616667Y-98278571D02*
X155592857Y-98302381D01*
X155521429Y-98326190D01*
X155473810Y-98326190D01*
X155402381Y-98302381D01*
X155354762Y-98254762D01*
X155330953Y-98207143D01*
X155307143Y-98111905D01*
X155307143Y-98040476D01*
X155330953Y-97945238D01*
X155354762Y-97897619D01*
X155402381Y-97850000D01*
X155473810Y-97826190D01*
X155521429Y-97826190D01*
X155592857Y-97850000D01*
X155616667Y-97873810D01*
X155902381Y-98040476D02*
X155854762Y-98016667D01*
X155830953Y-97992857D01*
X155807143Y-97945238D01*
X155807143Y-97921429D01*
X155830953Y-97873810D01*
X155854762Y-97850000D01*
X155902381Y-97826190D01*
X155997619Y-97826190D01*
X156045238Y-97850000D01*
X156069048Y-97873810D01*
X156092857Y-97921429D01*
X156092857Y-97945238D01*
X156069048Y-97992857D01*
X156045238Y-98016667D01*
X155997619Y-98040476D01*
X155902381Y-98040476D01*
X155854762Y-98064286D01*
X155830953Y-98088095D01*
X155807143Y-98135714D01*
X155807143Y-98230952D01*
X155830953Y-98278571D01*
X155854762Y-98302381D01*
X155902381Y-98326190D01*
X155997619Y-98326190D01*
X156045238Y-98302381D01*
X156069048Y-98278571D01*
X156092857Y-98230952D01*
X156092857Y-98135714D01*
X156069048Y-98088095D01*
X156045238Y-98064286D01*
X155997619Y-98040476D01*
X144416667Y-96778571D02*
X144392857Y-96802381D01*
X144321429Y-96826190D01*
X144273810Y-96826190D01*
X144202381Y-96802381D01*
X144154762Y-96754762D01*
X144130953Y-96707143D01*
X144107143Y-96611905D01*
X144107143Y-96540476D01*
X144130953Y-96445238D01*
X144154762Y-96397619D01*
X144202381Y-96350000D01*
X144273810Y-96326190D01*
X144321429Y-96326190D01*
X144392857Y-96350000D01*
X144416667Y-96373810D01*
X144654762Y-96826190D02*
X144750000Y-96826190D01*
X144797619Y-96802381D01*
X144821429Y-96778571D01*
X144869048Y-96707143D01*
X144892857Y-96611905D01*
X144892857Y-96421429D01*
X144869048Y-96373810D01*
X144845238Y-96350000D01*
X144797619Y-96326190D01*
X144702381Y-96326190D01*
X144654762Y-96350000D01*
X144630953Y-96373810D01*
X144607143Y-96421429D01*
X144607143Y-96540476D01*
X144630953Y-96588095D01*
X144654762Y-96611905D01*
X144702381Y-96635714D01*
X144797619Y-96635714D01*
X144845238Y-96611905D01*
X144869048Y-96588095D01*
X144892857Y-96540476D01*
X151778572Y-100478571D02*
X151754762Y-100502381D01*
X151683334Y-100526190D01*
X151635715Y-100526190D01*
X151564286Y-100502381D01*
X151516667Y-100454762D01*
X151492858Y-100407143D01*
X151469048Y-100311905D01*
X151469048Y-100240476D01*
X151492858Y-100145238D01*
X151516667Y-100097619D01*
X151564286Y-100050000D01*
X151635715Y-100026190D01*
X151683334Y-100026190D01*
X151754762Y-100050000D01*
X151778572Y-100073810D01*
X152254762Y-100526190D02*
X151969048Y-100526190D01*
X152111905Y-100526190D02*
X152111905Y-100026190D01*
X152064286Y-100097619D01*
X152016667Y-100145238D01*
X151969048Y-100169048D01*
X152564286Y-100026190D02*
X152611905Y-100026190D01*
X152659524Y-100050000D01*
X152683333Y-100073810D01*
X152707143Y-100121429D01*
X152730952Y-100216667D01*
X152730952Y-100335714D01*
X152707143Y-100430952D01*
X152683333Y-100478571D01*
X152659524Y-100502381D01*
X152611905Y-100526190D01*
X152564286Y-100526190D01*
X152516667Y-100502381D01*
X152492857Y-100478571D01*
X152469048Y-100430952D01*
X152445238Y-100335714D01*
X152445238Y-100216667D01*
X152469048Y-100121429D01*
X152492857Y-100073810D01*
X152516667Y-100050000D01*
X152564286Y-100026190D01*
X142678572Y-96778571D02*
X142654762Y-96802381D01*
X142583334Y-96826190D01*
X142535715Y-96826190D01*
X142464286Y-96802381D01*
X142416667Y-96754762D01*
X142392858Y-96707143D01*
X142369048Y-96611905D01*
X142369048Y-96540476D01*
X142392858Y-96445238D01*
X142416667Y-96397619D01*
X142464286Y-96350000D01*
X142535715Y-96326190D01*
X142583334Y-96326190D01*
X142654762Y-96350000D01*
X142678572Y-96373810D01*
X143154762Y-96826190D02*
X142869048Y-96826190D01*
X143011905Y-96826190D02*
X143011905Y-96326190D01*
X142964286Y-96397619D01*
X142916667Y-96445238D01*
X142869048Y-96469048D01*
X143630952Y-96826190D02*
X143345238Y-96826190D01*
X143488095Y-96826190D02*
X143488095Y-96326190D01*
X143440476Y-96397619D01*
X143392857Y-96445238D01*
X143345238Y-96469048D01*
X138978572Y-102928571D02*
X138954762Y-102952381D01*
X138883334Y-102976190D01*
X138835715Y-102976190D01*
X138764286Y-102952381D01*
X138716667Y-102904762D01*
X138692858Y-102857143D01*
X138669048Y-102761905D01*
X138669048Y-102690476D01*
X138692858Y-102595238D01*
X138716667Y-102547619D01*
X138764286Y-102500000D01*
X138835715Y-102476190D01*
X138883334Y-102476190D01*
X138954762Y-102500000D01*
X138978572Y-102523810D01*
X139454762Y-102976190D02*
X139169048Y-102976190D01*
X139311905Y-102976190D02*
X139311905Y-102476190D01*
X139264286Y-102547619D01*
X139216667Y-102595238D01*
X139169048Y-102619048D01*
X139621429Y-102476190D02*
X139930952Y-102476190D01*
X139764286Y-102666667D01*
X139835714Y-102666667D01*
X139883333Y-102690476D01*
X139907143Y-102714286D01*
X139930952Y-102761905D01*
X139930952Y-102880952D01*
X139907143Y-102928571D01*
X139883333Y-102952381D01*
X139835714Y-102976190D01*
X139692857Y-102976190D01*
X139645238Y-102952381D01*
X139621429Y-102928571D01*
X143978572Y-101178571D02*
X143954762Y-101202381D01*
X143883334Y-101226190D01*
X143835715Y-101226190D01*
X143764286Y-101202381D01*
X143716667Y-101154762D01*
X143692858Y-101107143D01*
X143669048Y-101011905D01*
X143669048Y-100940476D01*
X143692858Y-100845238D01*
X143716667Y-100797619D01*
X143764286Y-100750000D01*
X143835715Y-100726190D01*
X143883334Y-100726190D01*
X143954762Y-100750000D01*
X143978572Y-100773810D01*
X144454762Y-101226190D02*
X144169048Y-101226190D01*
X144311905Y-101226190D02*
X144311905Y-100726190D01*
X144264286Y-100797619D01*
X144216667Y-100845238D01*
X144169048Y-100869048D01*
X144883333Y-100892857D02*
X144883333Y-101226190D01*
X144764286Y-100702381D02*
X144645238Y-101059524D01*
X144954762Y-101059524D01*
X146830953Y-85526190D02*
X146830953Y-85026190D01*
X146950000Y-85026190D01*
X147021429Y-85050000D01*
X147069048Y-85097619D01*
X147092857Y-85145238D01*
X147116667Y-85240476D01*
X147116667Y-85311905D01*
X147092857Y-85407143D01*
X147069048Y-85454762D01*
X147021429Y-85502381D01*
X146950000Y-85526190D01*
X146830953Y-85526190D01*
X147307143Y-85073810D02*
X147330953Y-85050000D01*
X147378572Y-85026190D01*
X147497619Y-85026190D01*
X147545238Y-85050000D01*
X147569048Y-85073810D01*
X147592857Y-85121429D01*
X147592857Y-85169048D01*
X147569048Y-85240476D01*
X147283334Y-85526190D01*
X147592857Y-85526190D01*
X154130953Y-81426190D02*
X154130953Y-80926190D01*
X154250000Y-80926190D01*
X154321429Y-80950000D01*
X154369048Y-80997619D01*
X154392857Y-81045238D01*
X154416667Y-81140476D01*
X154416667Y-81211905D01*
X154392857Y-81307143D01*
X154369048Y-81354762D01*
X154321429Y-81402381D01*
X154250000Y-81426190D01*
X154130953Y-81426190D01*
X154583334Y-80926190D02*
X154892857Y-80926190D01*
X154726191Y-81116667D01*
X154797619Y-81116667D01*
X154845238Y-81140476D01*
X154869048Y-81164286D01*
X154892857Y-81211905D01*
X154892857Y-81330952D01*
X154869048Y-81378571D01*
X154845238Y-81402381D01*
X154797619Y-81426190D01*
X154654762Y-81426190D01*
X154607143Y-81402381D01*
X154583334Y-81378571D01*
X156730953Y-87226190D02*
X156730953Y-86726190D01*
X156850000Y-86726190D01*
X156921429Y-86750000D01*
X156969048Y-86797619D01*
X156992857Y-86845238D01*
X157016667Y-86940476D01*
X157016667Y-87011905D01*
X156992857Y-87107143D01*
X156969048Y-87154762D01*
X156921429Y-87202381D01*
X156850000Y-87226190D01*
X156730953Y-87226190D01*
X157445238Y-86892857D02*
X157445238Y-87226190D01*
X157326191Y-86702381D02*
X157207143Y-87059524D01*
X157516667Y-87059524D01*
X135730953Y-88011190D02*
X135730953Y-87511190D01*
X135850000Y-87511190D01*
X135921429Y-87535000D01*
X135969048Y-87582619D01*
X135992857Y-87630238D01*
X136016667Y-87725476D01*
X136016667Y-87796905D01*
X135992857Y-87892143D01*
X135969048Y-87939762D01*
X135921429Y-87987381D01*
X135850000Y-88011190D01*
X135730953Y-88011190D01*
X136469048Y-87511190D02*
X136230953Y-87511190D01*
X136207143Y-87749286D01*
X136230953Y-87725476D01*
X136278572Y-87701667D01*
X136397619Y-87701667D01*
X136445238Y-87725476D01*
X136469048Y-87749286D01*
X136492857Y-87796905D01*
X136492857Y-87915952D01*
X136469048Y-87963571D01*
X136445238Y-87987381D01*
X136397619Y-88011190D01*
X136278572Y-88011190D01*
X136230953Y-87987381D01*
X136207143Y-87963571D01*
X135730953Y-89621190D02*
X135730953Y-89121190D01*
X135850000Y-89121190D01*
X135921429Y-89145000D01*
X135969048Y-89192619D01*
X135992857Y-89240238D01*
X136016667Y-89335476D01*
X136016667Y-89406905D01*
X135992857Y-89502143D01*
X135969048Y-89549762D01*
X135921429Y-89597381D01*
X135850000Y-89621190D01*
X135730953Y-89621190D01*
X136445238Y-89121190D02*
X136350000Y-89121190D01*
X136302381Y-89145000D01*
X136278572Y-89168810D01*
X136230953Y-89240238D01*
X136207143Y-89335476D01*
X136207143Y-89525952D01*
X136230953Y-89573571D01*
X136254762Y-89597381D01*
X136302381Y-89621190D01*
X136397619Y-89621190D01*
X136445238Y-89597381D01*
X136469048Y-89573571D01*
X136492857Y-89525952D01*
X136492857Y-89406905D01*
X136469048Y-89359286D01*
X136445238Y-89335476D01*
X136397619Y-89311667D01*
X136302381Y-89311667D01*
X136254762Y-89335476D01*
X136230953Y-89359286D01*
X136207143Y-89406905D01*
X135730953Y-91201190D02*
X135730953Y-90701190D01*
X135850000Y-90701190D01*
X135921429Y-90725000D01*
X135969048Y-90772619D01*
X135992857Y-90820238D01*
X136016667Y-90915476D01*
X136016667Y-90986905D01*
X135992857Y-91082143D01*
X135969048Y-91129762D01*
X135921429Y-91177381D01*
X135850000Y-91201190D01*
X135730953Y-91201190D01*
X136183334Y-90701190D02*
X136516667Y-90701190D01*
X136302381Y-91201190D01*
X143813460Y-74016796D02*
X143813460Y-74552510D01*
X143777746Y-74659653D01*
X143706317Y-74731081D01*
X143599174Y-74766796D01*
X143527746Y-74766796D01*
X144134889Y-74088224D02*
X144170603Y-74052510D01*
X144242032Y-74016796D01*
X144420603Y-74016796D01*
X144492032Y-74052510D01*
X144527746Y-74088224D01*
X144563461Y-74159653D01*
X144563461Y-74231081D01*
X144527746Y-74338224D01*
X144099175Y-74766796D01*
X144563461Y-74766796D01*
X156650000Y-71989286D02*
X156650000Y-72525000D01*
X156614286Y-72632143D01*
X156542857Y-72703571D01*
X156435714Y-72739286D01*
X156364286Y-72739286D01*
X157328572Y-72239286D02*
X157328572Y-72739286D01*
X157150001Y-71953571D02*
X156971429Y-72489286D01*
X157435715Y-72489286D01*
X147152381Y-78373810D02*
X147104762Y-78350000D01*
X147057143Y-78302381D01*
X146985714Y-78230952D01*
X146938095Y-78207143D01*
X146890476Y-78207143D01*
X146914286Y-78326190D02*
X146866667Y-78302381D01*
X146819048Y-78254762D01*
X146795238Y-78159524D01*
X146795238Y-77992857D01*
X146819048Y-77897619D01*
X146866667Y-77850000D01*
X146914286Y-77826190D01*
X147009524Y-77826190D01*
X147057143Y-77850000D01*
X147104762Y-77897619D01*
X147128571Y-77992857D01*
X147128571Y-78159524D01*
X147104762Y-78254762D01*
X147057143Y-78302381D01*
X147009524Y-78326190D01*
X146914286Y-78326190D01*
X147604762Y-78326190D02*
X147319048Y-78326190D01*
X147461905Y-78326190D02*
X147461905Y-77826190D01*
X147414286Y-77897619D01*
X147366667Y-77945238D01*
X147319048Y-77969048D01*
X154416667Y-84026190D02*
X154250000Y-83788095D01*
X154130953Y-84026190D02*
X154130953Y-83526190D01*
X154321429Y-83526190D01*
X154369048Y-83550000D01*
X154392857Y-83573810D01*
X154416667Y-83621429D01*
X154416667Y-83692857D01*
X154392857Y-83740476D01*
X154369048Y-83764286D01*
X154321429Y-83788095D01*
X154130953Y-83788095D01*
X154845238Y-83692857D02*
X154845238Y-84026190D01*
X154726191Y-83502381D02*
X154607143Y-83859524D01*
X154916667Y-83859524D01*
X151716667Y-79826190D02*
X151550000Y-79588095D01*
X151430953Y-79826190D02*
X151430953Y-79326190D01*
X151621429Y-79326190D01*
X151669048Y-79350000D01*
X151692857Y-79373810D01*
X151716667Y-79421429D01*
X151716667Y-79492857D01*
X151692857Y-79540476D01*
X151669048Y-79564286D01*
X151621429Y-79588095D01*
X151430953Y-79588095D01*
X152169048Y-79326190D02*
X151930953Y-79326190D01*
X151907143Y-79564286D01*
X151930953Y-79540476D01*
X151978572Y-79516667D01*
X152097619Y-79516667D01*
X152145238Y-79540476D01*
X152169048Y-79564286D01*
X152192857Y-79611905D01*
X152192857Y-79730952D01*
X152169048Y-79778571D01*
X152145238Y-79802381D01*
X152097619Y-79826190D01*
X151978572Y-79826190D01*
X151930953Y-79802381D01*
X151907143Y-79778571D01*
X152516667Y-86926190D02*
X152350000Y-86688095D01*
X152230953Y-86926190D02*
X152230953Y-86426190D01*
X152421429Y-86426190D01*
X152469048Y-86450000D01*
X152492857Y-86473810D01*
X152516667Y-86521429D01*
X152516667Y-86592857D01*
X152492857Y-86640476D01*
X152469048Y-86664286D01*
X152421429Y-86688095D01*
X152230953Y-86688095D01*
X152945238Y-86426190D02*
X152850000Y-86426190D01*
X152802381Y-86450000D01*
X152778572Y-86473810D01*
X152730953Y-86545238D01*
X152707143Y-86640476D01*
X152707143Y-86830952D01*
X152730953Y-86878571D01*
X152754762Y-86902381D01*
X152802381Y-86926190D01*
X152897619Y-86926190D01*
X152945238Y-86902381D01*
X152969048Y-86878571D01*
X152992857Y-86830952D01*
X152992857Y-86711905D01*
X152969048Y-86664286D01*
X152945238Y-86640476D01*
X152897619Y-86616667D01*
X152802381Y-86616667D01*
X152754762Y-86640476D01*
X152730953Y-86664286D01*
X152707143Y-86711905D01*
X153716667Y-88826190D02*
X153550000Y-88588095D01*
X153430953Y-88826190D02*
X153430953Y-88326190D01*
X153621429Y-88326190D01*
X153669048Y-88350000D01*
X153692857Y-88373810D01*
X153716667Y-88421429D01*
X153716667Y-88492857D01*
X153692857Y-88540476D01*
X153669048Y-88564286D01*
X153621429Y-88588095D01*
X153430953Y-88588095D01*
X153883334Y-88326190D02*
X154216667Y-88326190D01*
X154002381Y-88826190D01*
X148453571Y-86739286D02*
X148453571Y-87346429D01*
X148489286Y-87417857D01*
X148525000Y-87453571D01*
X148596429Y-87489286D01*
X148739286Y-87489286D01*
X148810714Y-87453571D01*
X148846429Y-87417857D01*
X148882143Y-87346429D01*
X148882143Y-86739286D01*
X149632143Y-87489286D02*
X149203571Y-87489286D01*
X149417857Y-87489286D02*
X149417857Y-86739286D01*
X149346428Y-86846429D01*
X149275000Y-86917857D01*
X149203571Y-86953571D01*
X150028571Y-83589286D02*
X150028571Y-84196429D01*
X150064286Y-84267857D01*
X150100000Y-84303571D01*
X150171429Y-84339286D01*
X150314286Y-84339286D01*
X150385714Y-84303571D01*
X150421429Y-84267857D01*
X150457143Y-84196429D01*
X150457143Y-83589286D01*
X150778571Y-83660714D02*
X150814285Y-83625000D01*
X150885714Y-83589286D01*
X151064285Y-83589286D01*
X151135714Y-83625000D01*
X151171428Y-83660714D01*
X151207143Y-83732143D01*
X151207143Y-83803571D01*
X151171428Y-83910714D01*
X150742857Y-84339286D01*
X151207143Y-84339286D01*
X137539286Y-84200001D02*
X137539286Y-84557144D01*
X136789286Y-84557144D01*
X137503571Y-83985715D02*
X137539286Y-83878572D01*
X137539286Y-83700001D01*
X137503571Y-83628572D01*
X137467857Y-83592858D01*
X137396429Y-83557143D01*
X137325000Y-83557143D01*
X137253571Y-83592858D01*
X137217857Y-83628572D01*
X137182143Y-83700001D01*
X137146429Y-83842858D01*
X137110714Y-83914286D01*
X137075000Y-83950001D01*
X137003571Y-83985715D01*
X136932143Y-83985715D01*
X136860714Y-83950001D01*
X136825000Y-83914286D01*
X136789286Y-83842858D01*
X136789286Y-83664286D01*
X136825000Y-83557143D01*
X137539286Y-83235715D02*
X136789286Y-83235715D01*
X137325000Y-82985715D01*
X136789286Y-82735715D01*
X137539286Y-82735715D01*
X136789286Y-82057143D02*
X136789286Y-82200000D01*
X136825000Y-82271429D01*
X136860714Y-82307143D01*
X136967857Y-82378572D01*
X137110714Y-82414286D01*
X137396429Y-82414286D01*
X137467857Y-82378572D01*
X137503571Y-82342857D01*
X137539286Y-82271429D01*
X137539286Y-82128572D01*
X137503571Y-82057143D01*
X137467857Y-82021429D01*
X137396429Y-81985714D01*
X137217857Y-81985714D01*
X137146429Y-82021429D01*
X137110714Y-82057143D01*
X137075000Y-82128572D01*
X137075000Y-82271429D01*
X137110714Y-82342857D01*
X137146429Y-82378572D01*
X137217857Y-82414286D01*
X137539286Y-81664286D02*
X136789286Y-81664286D01*
X136789286Y-81485714D01*
X136825000Y-81378571D01*
X136896429Y-81307143D01*
X136967857Y-81271428D01*
X137110714Y-81235714D01*
X137217857Y-81235714D01*
X137360714Y-81271428D01*
X137432143Y-81307143D01*
X137503571Y-81378571D01*
X137539286Y-81485714D01*
X137539286Y-81664286D01*
X137503571Y-80950000D02*
X137539286Y-80842857D01*
X137539286Y-80664286D01*
X137503571Y-80592857D01*
X137467857Y-80557143D01*
X137396429Y-80521428D01*
X137325000Y-80521428D01*
X137253571Y-80557143D01*
X137217857Y-80592857D01*
X137182143Y-80664286D01*
X137146429Y-80807143D01*
X137110714Y-80878571D01*
X137075000Y-80914286D01*
X137003571Y-80950000D01*
X136932143Y-80950000D01*
X136860714Y-80914286D01*
X136825000Y-80878571D01*
X136789286Y-80807143D01*
X136789286Y-80628571D01*
X136825000Y-80521428D01*
X136789286Y-80271428D02*
X136789286Y-79807142D01*
X137075000Y-80057142D01*
X137075000Y-79950000D01*
X137110714Y-79878571D01*
X137146429Y-79842857D01*
X137217857Y-79807142D01*
X137396429Y-79807142D01*
X137467857Y-79842857D01*
X137503571Y-79878571D01*
X137539286Y-79950000D01*
X137539286Y-80164285D01*
X137503571Y-80235714D01*
X137467857Y-80271428D01*
D15*
X124170476Y-73012381D02*
X124170476Y-72012381D01*
X124503810Y-72726667D01*
X124837143Y-72012381D01*
X124837143Y-73012381D01*
X125218095Y-72012381D02*
X125837143Y-72012381D01*
X125503809Y-72393333D01*
X125646667Y-72393333D01*
X125741905Y-72440952D01*
X125789524Y-72488571D01*
X125837143Y-72583810D01*
X125837143Y-72821905D01*
X125789524Y-72917143D01*
X125741905Y-72964762D01*
X125646667Y-73012381D01*
X125360952Y-73012381D01*
X125265714Y-72964762D01*
X125218095Y-72917143D01*
D10*
X155578572Y-100478571D02*
X155554762Y-100502381D01*
X155483334Y-100526190D01*
X155435715Y-100526190D01*
X155364286Y-100502381D01*
X155316667Y-100454762D01*
X155292858Y-100407143D01*
X155269048Y-100311905D01*
X155269048Y-100240476D01*
X155292858Y-100145238D01*
X155316667Y-100097619D01*
X155364286Y-100050000D01*
X155435715Y-100026190D01*
X155483334Y-100026190D01*
X155554762Y-100050000D01*
X155578572Y-100073810D01*
X156054762Y-100526190D02*
X155769048Y-100526190D01*
X155911905Y-100526190D02*
X155911905Y-100026190D01*
X155864286Y-100097619D01*
X155816667Y-100145238D01*
X155769048Y-100169048D01*
X156245238Y-100073810D02*
X156269048Y-100050000D01*
X156316667Y-100026190D01*
X156435714Y-100026190D01*
X156483333Y-100050000D01*
X156507143Y-100073810D01*
X156530952Y-100121429D01*
X156530952Y-100169048D01*
X156507143Y-100240476D01*
X156221429Y-100526190D01*
X156530952Y-100526190D01*
X152178572Y-103778571D02*
X152154762Y-103802381D01*
X152083334Y-103826190D01*
X152035715Y-103826190D01*
X151964286Y-103802381D01*
X151916667Y-103754762D01*
X151892858Y-103707143D01*
X151869048Y-103611905D01*
X151869048Y-103540476D01*
X151892858Y-103445238D01*
X151916667Y-103397619D01*
X151964286Y-103350000D01*
X152035715Y-103326190D01*
X152083334Y-103326190D01*
X152154762Y-103350000D01*
X152178572Y-103373810D01*
X152654762Y-103826190D02*
X152369048Y-103826190D01*
X152511905Y-103826190D02*
X152511905Y-103326190D01*
X152464286Y-103397619D01*
X152416667Y-103445238D01*
X152369048Y-103469048D01*
X153107143Y-103326190D02*
X152869048Y-103326190D01*
X152845238Y-103564286D01*
X152869048Y-103540476D01*
X152916667Y-103516667D01*
X153035714Y-103516667D01*
X153083333Y-103540476D01*
X153107143Y-103564286D01*
X153130952Y-103611905D01*
X153130952Y-103730952D01*
X153107143Y-103778571D01*
X153083333Y-103802381D01*
X153035714Y-103826190D01*
X152916667Y-103826190D01*
X152869048Y-103802381D01*
X152845238Y-103778571D01*
X152178572Y-104878571D02*
X152154762Y-104902381D01*
X152083334Y-104926190D01*
X152035715Y-104926190D01*
X151964286Y-104902381D01*
X151916667Y-104854762D01*
X151892858Y-104807143D01*
X151869048Y-104711905D01*
X151869048Y-104640476D01*
X151892858Y-104545238D01*
X151916667Y-104497619D01*
X151964286Y-104450000D01*
X152035715Y-104426190D01*
X152083334Y-104426190D01*
X152154762Y-104450000D01*
X152178572Y-104473810D01*
X152654762Y-104926190D02*
X152369048Y-104926190D01*
X152511905Y-104926190D02*
X152511905Y-104426190D01*
X152464286Y-104497619D01*
X152416667Y-104545238D01*
X152369048Y-104569048D01*
X153083333Y-104426190D02*
X152988095Y-104426190D01*
X152940476Y-104450000D01*
X152916667Y-104473810D01*
X152869048Y-104545238D01*
X152845238Y-104640476D01*
X152845238Y-104830952D01*
X152869048Y-104878571D01*
X152892857Y-104902381D01*
X152940476Y-104926190D01*
X153035714Y-104926190D01*
X153083333Y-104902381D01*
X153107143Y-104878571D01*
X153130952Y-104830952D01*
X153130952Y-104711905D01*
X153107143Y-104664286D01*
X153083333Y-104640476D01*
X153035714Y-104616667D01*
X152940476Y-104616667D01*
X152892857Y-104640476D01*
X152869048Y-104664286D01*
X152845238Y-104711905D01*
X144053572Y-104853571D02*
X144029762Y-104877381D01*
X143958334Y-104901190D01*
X143910715Y-104901190D01*
X143839286Y-104877381D01*
X143791667Y-104829762D01*
X143767858Y-104782143D01*
X143744048Y-104686905D01*
X143744048Y-104615476D01*
X143767858Y-104520238D01*
X143791667Y-104472619D01*
X143839286Y-104425000D01*
X143910715Y-104401190D01*
X143958334Y-104401190D01*
X144029762Y-104425000D01*
X144053572Y-104448810D01*
X144529762Y-104901190D02*
X144244048Y-104901190D01*
X144386905Y-104901190D02*
X144386905Y-104401190D01*
X144339286Y-104472619D01*
X144291667Y-104520238D01*
X144244048Y-104544048D01*
X144696429Y-104401190D02*
X145029762Y-104401190D01*
X144815476Y-104901190D01*
X145178572Y-102803571D02*
X145154762Y-102827381D01*
X145083334Y-102851190D01*
X145035715Y-102851190D01*
X144964286Y-102827381D01*
X144916667Y-102779762D01*
X144892858Y-102732143D01*
X144869048Y-102636905D01*
X144869048Y-102565476D01*
X144892858Y-102470238D01*
X144916667Y-102422619D01*
X144964286Y-102375000D01*
X145035715Y-102351190D01*
X145083334Y-102351190D01*
X145154762Y-102375000D01*
X145178572Y-102398810D01*
X145654762Y-102851190D02*
X145369048Y-102851190D01*
X145511905Y-102851190D02*
X145511905Y-102351190D01*
X145464286Y-102422619D01*
X145416667Y-102470238D01*
X145369048Y-102494048D01*
X145940476Y-102565476D02*
X145892857Y-102541667D01*
X145869048Y-102517857D01*
X145845238Y-102470238D01*
X145845238Y-102446429D01*
X145869048Y-102398810D01*
X145892857Y-102375000D01*
X145940476Y-102351190D01*
X146035714Y-102351190D01*
X146083333Y-102375000D01*
X146107143Y-102398810D01*
X146130952Y-102446429D01*
X146130952Y-102470238D01*
X146107143Y-102517857D01*
X146083333Y-102541667D01*
X146035714Y-102565476D01*
X145940476Y-102565476D01*
X145892857Y-102589286D01*
X145869048Y-102613095D01*
X145845238Y-102660714D01*
X145845238Y-102755952D01*
X145869048Y-102803571D01*
X145892857Y-102827381D01*
X145940476Y-102851190D01*
X146035714Y-102851190D01*
X146083333Y-102827381D01*
X146107143Y-102803571D01*
X146130952Y-102755952D01*
X146130952Y-102660714D01*
X146107143Y-102613095D01*
X146083333Y-102589286D01*
X146035714Y-102565476D01*
X149678572Y-94378571D02*
X149654762Y-94402381D01*
X149583334Y-94426190D01*
X149535715Y-94426190D01*
X149464286Y-94402381D01*
X149416667Y-94354762D01*
X149392858Y-94307143D01*
X149369048Y-94211905D01*
X149369048Y-94140476D01*
X149392858Y-94045238D01*
X149416667Y-93997619D01*
X149464286Y-93950000D01*
X149535715Y-93926190D01*
X149583334Y-93926190D01*
X149654762Y-93950000D01*
X149678572Y-93973810D01*
X150154762Y-94426190D02*
X149869048Y-94426190D01*
X150011905Y-94426190D02*
X150011905Y-93926190D01*
X149964286Y-93997619D01*
X149916667Y-94045238D01*
X149869048Y-94069048D01*
X150392857Y-94426190D02*
X150488095Y-94426190D01*
X150535714Y-94402381D01*
X150559524Y-94378571D01*
X150607143Y-94307143D01*
X150630952Y-94211905D01*
X150630952Y-94021429D01*
X150607143Y-93973810D01*
X150583333Y-93950000D01*
X150535714Y-93926190D01*
X150440476Y-93926190D01*
X150392857Y-93950000D01*
X150369048Y-93973810D01*
X150345238Y-94021429D01*
X150345238Y-94140476D01*
X150369048Y-94188095D01*
X150392857Y-94211905D01*
X150440476Y-94235714D01*
X150535714Y-94235714D01*
X150583333Y-94211905D01*
X150607143Y-94188095D01*
X150630952Y-94140476D01*
X149678572Y-92578571D02*
X149654762Y-92602381D01*
X149583334Y-92626190D01*
X149535715Y-92626190D01*
X149464286Y-92602381D01*
X149416667Y-92554762D01*
X149392858Y-92507143D01*
X149369048Y-92411905D01*
X149369048Y-92340476D01*
X149392858Y-92245238D01*
X149416667Y-92197619D01*
X149464286Y-92150000D01*
X149535715Y-92126190D01*
X149583334Y-92126190D01*
X149654762Y-92150000D01*
X149678572Y-92173810D01*
X149869048Y-92173810D02*
X149892858Y-92150000D01*
X149940477Y-92126190D01*
X150059524Y-92126190D01*
X150107143Y-92150000D01*
X150130953Y-92173810D01*
X150154762Y-92221429D01*
X150154762Y-92269048D01*
X150130953Y-92340476D01*
X149845239Y-92626190D01*
X150154762Y-92626190D01*
X150464286Y-92126190D02*
X150511905Y-92126190D01*
X150559524Y-92150000D01*
X150583333Y-92173810D01*
X150607143Y-92221429D01*
X150630952Y-92316667D01*
X150630952Y-92435714D01*
X150607143Y-92530952D01*
X150583333Y-92578571D01*
X150559524Y-92602381D01*
X150511905Y-92626190D01*
X150464286Y-92626190D01*
X150416667Y-92602381D01*
X150392857Y-92578571D01*
X150369048Y-92530952D01*
X150345238Y-92435714D01*
X150345238Y-92316667D01*
X150369048Y-92221429D01*
X150392857Y-92173810D01*
X150416667Y-92150000D01*
X150464286Y-92126190D01*
X139578572Y-96778571D02*
X139554762Y-96802381D01*
X139483334Y-96826190D01*
X139435715Y-96826190D01*
X139364286Y-96802381D01*
X139316667Y-96754762D01*
X139292858Y-96707143D01*
X139269048Y-96611905D01*
X139269048Y-96540476D01*
X139292858Y-96445238D01*
X139316667Y-96397619D01*
X139364286Y-96350000D01*
X139435715Y-96326190D01*
X139483334Y-96326190D01*
X139554762Y-96350000D01*
X139578572Y-96373810D01*
X139769048Y-96373810D02*
X139792858Y-96350000D01*
X139840477Y-96326190D01*
X139959524Y-96326190D01*
X140007143Y-96350000D01*
X140030953Y-96373810D01*
X140054762Y-96421429D01*
X140054762Y-96469048D01*
X140030953Y-96540476D01*
X139745239Y-96826190D01*
X140054762Y-96826190D01*
X140530952Y-96826190D02*
X140245238Y-96826190D01*
X140388095Y-96826190D02*
X140388095Y-96326190D01*
X140340476Y-96397619D01*
X140292857Y-96445238D01*
X140245238Y-96469048D01*
X138078572Y-96778571D02*
X138054762Y-96802381D01*
X137983334Y-96826190D01*
X137935715Y-96826190D01*
X137864286Y-96802381D01*
X137816667Y-96754762D01*
X137792858Y-96707143D01*
X137769048Y-96611905D01*
X137769048Y-96540476D01*
X137792858Y-96445238D01*
X137816667Y-96397619D01*
X137864286Y-96350000D01*
X137935715Y-96326190D01*
X137983334Y-96326190D01*
X138054762Y-96350000D01*
X138078572Y-96373810D01*
X138269048Y-96373810D02*
X138292858Y-96350000D01*
X138340477Y-96326190D01*
X138459524Y-96326190D01*
X138507143Y-96350000D01*
X138530953Y-96373810D01*
X138554762Y-96421429D01*
X138554762Y-96469048D01*
X138530953Y-96540476D01*
X138245239Y-96826190D01*
X138554762Y-96826190D01*
X138745238Y-96373810D02*
X138769048Y-96350000D01*
X138816667Y-96326190D01*
X138935714Y-96326190D01*
X138983333Y-96350000D01*
X139007143Y-96373810D01*
X139030952Y-96421429D01*
X139030952Y-96469048D01*
X139007143Y-96540476D01*
X138721429Y-96826190D01*
X139030952Y-96826190D01*
X141078572Y-96778571D02*
X141054762Y-96802381D01*
X140983334Y-96826190D01*
X140935715Y-96826190D01*
X140864286Y-96802381D01*
X140816667Y-96754762D01*
X140792858Y-96707143D01*
X140769048Y-96611905D01*
X140769048Y-96540476D01*
X140792858Y-96445238D01*
X140816667Y-96397619D01*
X140864286Y-96350000D01*
X140935715Y-96326190D01*
X140983334Y-96326190D01*
X141054762Y-96350000D01*
X141078572Y-96373810D01*
X141269048Y-96373810D02*
X141292858Y-96350000D01*
X141340477Y-96326190D01*
X141459524Y-96326190D01*
X141507143Y-96350000D01*
X141530953Y-96373810D01*
X141554762Y-96421429D01*
X141554762Y-96469048D01*
X141530953Y-96540476D01*
X141245239Y-96826190D01*
X141554762Y-96826190D01*
X141721429Y-96326190D02*
X142030952Y-96326190D01*
X141864286Y-96516667D01*
X141935714Y-96516667D01*
X141983333Y-96540476D01*
X142007143Y-96564286D01*
X142030952Y-96611905D01*
X142030952Y-96730952D01*
X142007143Y-96778571D01*
X141983333Y-96802381D01*
X141935714Y-96826190D01*
X141792857Y-96826190D01*
X141745238Y-96802381D01*
X141721429Y-96778571D01*
X136378572Y-99778571D02*
X136354762Y-99802381D01*
X136283334Y-99826190D01*
X136235715Y-99826190D01*
X136164286Y-99802381D01*
X136116667Y-99754762D01*
X136092858Y-99707143D01*
X136069048Y-99611905D01*
X136069048Y-99540476D01*
X136092858Y-99445238D01*
X136116667Y-99397619D01*
X136164286Y-99350000D01*
X136235715Y-99326190D01*
X136283334Y-99326190D01*
X136354762Y-99350000D01*
X136378572Y-99373810D01*
X136569048Y-99373810D02*
X136592858Y-99350000D01*
X136640477Y-99326190D01*
X136759524Y-99326190D01*
X136807143Y-99350000D01*
X136830953Y-99373810D01*
X136854762Y-99421429D01*
X136854762Y-99469048D01*
X136830953Y-99540476D01*
X136545239Y-99826190D01*
X136854762Y-99826190D01*
X137283333Y-99492857D02*
X137283333Y-99826190D01*
X137164286Y-99302381D02*
X137045238Y-99659524D01*
X137354762Y-99659524D01*
X144178572Y-83678571D02*
X144154762Y-83702381D01*
X144083334Y-83726190D01*
X144035715Y-83726190D01*
X143964286Y-83702381D01*
X143916667Y-83654762D01*
X143892858Y-83607143D01*
X143869048Y-83511905D01*
X143869048Y-83440476D01*
X143892858Y-83345238D01*
X143916667Y-83297619D01*
X143964286Y-83250000D01*
X144035715Y-83226190D01*
X144083334Y-83226190D01*
X144154762Y-83250000D01*
X144178572Y-83273810D01*
X144369048Y-83273810D02*
X144392858Y-83250000D01*
X144440477Y-83226190D01*
X144559524Y-83226190D01*
X144607143Y-83250000D01*
X144630953Y-83273810D01*
X144654762Y-83321429D01*
X144654762Y-83369048D01*
X144630953Y-83440476D01*
X144345239Y-83726190D01*
X144654762Y-83726190D01*
X145107143Y-83226190D02*
X144869048Y-83226190D01*
X144845238Y-83464286D01*
X144869048Y-83440476D01*
X144916667Y-83416667D01*
X145035714Y-83416667D01*
X145083333Y-83440476D01*
X145107143Y-83464286D01*
X145130952Y-83511905D01*
X145130952Y-83630952D01*
X145107143Y-83678571D01*
X145083333Y-83702381D01*
X145035714Y-83726190D01*
X144916667Y-83726190D01*
X144869048Y-83702381D01*
X144845238Y-83678571D01*
X136378572Y-93578571D02*
X136354762Y-93602381D01*
X136283334Y-93626190D01*
X136235715Y-93626190D01*
X136164286Y-93602381D01*
X136116667Y-93554762D01*
X136092858Y-93507143D01*
X136069048Y-93411905D01*
X136069048Y-93340476D01*
X136092858Y-93245238D01*
X136116667Y-93197619D01*
X136164286Y-93150000D01*
X136235715Y-93126190D01*
X136283334Y-93126190D01*
X136354762Y-93150000D01*
X136378572Y-93173810D01*
X136569048Y-93173810D02*
X136592858Y-93150000D01*
X136640477Y-93126190D01*
X136759524Y-93126190D01*
X136807143Y-93150000D01*
X136830953Y-93173810D01*
X136854762Y-93221429D01*
X136854762Y-93269048D01*
X136830953Y-93340476D01*
X136545239Y-93626190D01*
X136854762Y-93626190D01*
X137283333Y-93126190D02*
X137188095Y-93126190D01*
X137140476Y-93150000D01*
X137116667Y-93173810D01*
X137069048Y-93245238D01*
X137045238Y-93340476D01*
X137045238Y-93530952D01*
X137069048Y-93578571D01*
X137092857Y-93602381D01*
X137140476Y-93626190D01*
X137235714Y-93626190D01*
X137283333Y-93602381D01*
X137307143Y-93578571D01*
X137330952Y-93530952D01*
X137330952Y-93411905D01*
X137307143Y-93364286D01*
X137283333Y-93340476D01*
X137235714Y-93316667D01*
X137140476Y-93316667D01*
X137092857Y-93340476D01*
X137069048Y-93364286D01*
X137045238Y-93411905D01*
X160661776Y-92213460D02*
X161197490Y-92213460D01*
X161304633Y-92249174D01*
X161376061Y-92320603D01*
X161411776Y-92427746D01*
X161411776Y-92499174D01*
X160661776Y-91534888D02*
X160661776Y-91677745D01*
X160697490Y-91749174D01*
X160733204Y-91784888D01*
X160840347Y-91856317D01*
X160983204Y-91892031D01*
X161268919Y-91892031D01*
X161340347Y-91856317D01*
X161376061Y-91820602D01*
X161411776Y-91749174D01*
X161411776Y-91606317D01*
X161376061Y-91534888D01*
X161340347Y-91499174D01*
X161268919Y-91463459D01*
X161090347Y-91463459D01*
X161018919Y-91499174D01*
X160983204Y-91534888D01*
X160947490Y-91606317D01*
X160947490Y-91749174D01*
X160983204Y-91820602D01*
X161018919Y-91856317D01*
X161090347Y-91892031D01*
X143116667Y-82226190D02*
X142950000Y-81988095D01*
X142830953Y-82226190D02*
X142830953Y-81726190D01*
X143021429Y-81726190D01*
X143069048Y-81750000D01*
X143092857Y-81773810D01*
X143116667Y-81821429D01*
X143116667Y-81892857D01*
X143092857Y-81940476D01*
X143069048Y-81964286D01*
X143021429Y-81988095D01*
X142830953Y-81988095D01*
X143402381Y-81940476D02*
X143354762Y-81916667D01*
X143330953Y-81892857D01*
X143307143Y-81845238D01*
X143307143Y-81821429D01*
X143330953Y-81773810D01*
X143354762Y-81750000D01*
X143402381Y-81726190D01*
X143497619Y-81726190D01*
X143545238Y-81750000D01*
X143569048Y-81773810D01*
X143592857Y-81821429D01*
X143592857Y-81845238D01*
X143569048Y-81892857D01*
X143545238Y-81916667D01*
X143497619Y-81940476D01*
X143402381Y-81940476D01*
X143354762Y-81964286D01*
X143330953Y-81988095D01*
X143307143Y-82035714D01*
X143307143Y-82130952D01*
X143330953Y-82178571D01*
X143354762Y-82202381D01*
X143402381Y-82226190D01*
X143497619Y-82226190D01*
X143545238Y-82202381D01*
X143569048Y-82178571D01*
X143592857Y-82130952D01*
X143592857Y-82035714D01*
X143569048Y-81988095D01*
X143545238Y-81964286D01*
X143497619Y-81940476D01*
X141116667Y-84626190D02*
X140950000Y-84388095D01*
X140830953Y-84626190D02*
X140830953Y-84126190D01*
X141021429Y-84126190D01*
X141069048Y-84150000D01*
X141092857Y-84173810D01*
X141116667Y-84221429D01*
X141116667Y-84292857D01*
X141092857Y-84340476D01*
X141069048Y-84364286D01*
X141021429Y-84388095D01*
X140830953Y-84388095D01*
X141354762Y-84626190D02*
X141450000Y-84626190D01*
X141497619Y-84602381D01*
X141521429Y-84578571D01*
X141569048Y-84507143D01*
X141592857Y-84411905D01*
X141592857Y-84221429D01*
X141569048Y-84173810D01*
X141545238Y-84150000D01*
X141497619Y-84126190D01*
X141402381Y-84126190D01*
X141354762Y-84150000D01*
X141330953Y-84173810D01*
X141307143Y-84221429D01*
X141307143Y-84340476D01*
X141330953Y-84388095D01*
X141354762Y-84411905D01*
X141402381Y-84435714D01*
X141497619Y-84435714D01*
X141545238Y-84411905D01*
X141569048Y-84388095D01*
X141592857Y-84340476D01*
X152078572Y-94226190D02*
X151911905Y-93988095D01*
X151792858Y-94226190D02*
X151792858Y-93726190D01*
X151983334Y-93726190D01*
X152030953Y-93750000D01*
X152054762Y-93773810D01*
X152078572Y-93821429D01*
X152078572Y-93892857D01*
X152054762Y-93940476D01*
X152030953Y-93964286D01*
X151983334Y-93988095D01*
X151792858Y-93988095D01*
X152554762Y-94226190D02*
X152269048Y-94226190D01*
X152411905Y-94226190D02*
X152411905Y-93726190D01*
X152364286Y-93797619D01*
X152316667Y-93845238D01*
X152269048Y-93869048D01*
X152864286Y-93726190D02*
X152911905Y-93726190D01*
X152959524Y-93750000D01*
X152983333Y-93773810D01*
X153007143Y-93821429D01*
X153030952Y-93916667D01*
X153030952Y-94035714D01*
X153007143Y-94130952D01*
X152983333Y-94178571D01*
X152959524Y-94202381D01*
X152911905Y-94226190D01*
X152864286Y-94226190D01*
X152816667Y-94202381D01*
X152792857Y-94178571D01*
X152769048Y-94130952D01*
X152745238Y-94035714D01*
X152745238Y-93916667D01*
X152769048Y-93821429D01*
X152792857Y-93773810D01*
X152816667Y-93750000D01*
X152864286Y-93726190D01*
X154778572Y-102426190D02*
X154611905Y-102188095D01*
X154492858Y-102426190D02*
X154492858Y-101926190D01*
X154683334Y-101926190D01*
X154730953Y-101950000D01*
X154754762Y-101973810D01*
X154778572Y-102021429D01*
X154778572Y-102092857D01*
X154754762Y-102140476D01*
X154730953Y-102164286D01*
X154683334Y-102188095D01*
X154492858Y-102188095D01*
X155254762Y-102426190D02*
X154969048Y-102426190D01*
X155111905Y-102426190D02*
X155111905Y-101926190D01*
X155064286Y-101997619D01*
X155016667Y-102045238D01*
X154969048Y-102069048D01*
X155730952Y-102426190D02*
X155445238Y-102426190D01*
X155588095Y-102426190D02*
X155588095Y-101926190D01*
X155540476Y-101997619D01*
X155492857Y-102045238D01*
X155445238Y-102069048D01*
X151528571Y-96639286D02*
X151528571Y-97246429D01*
X151564286Y-97317857D01*
X151600000Y-97353571D01*
X151671429Y-97389286D01*
X151814286Y-97389286D01*
X151885714Y-97353571D01*
X151921429Y-97317857D01*
X151957143Y-97246429D01*
X151957143Y-96639286D01*
X152635714Y-96889286D02*
X152635714Y-97389286D01*
X152457143Y-96603571D02*
X152278571Y-97139286D01*
X152742857Y-97139286D01*
X138228571Y-85889286D02*
X138228571Y-86496429D01*
X138264286Y-86567857D01*
X138300000Y-86603571D01*
X138371429Y-86639286D01*
X138514286Y-86639286D01*
X138585714Y-86603571D01*
X138621429Y-86567857D01*
X138657143Y-86496429D01*
X138657143Y-85889286D01*
X139371428Y-85889286D02*
X139014285Y-85889286D01*
X138978571Y-86246429D01*
X139014285Y-86210714D01*
X139085714Y-86175000D01*
X139264285Y-86175000D01*
X139335714Y-86210714D01*
X139371428Y-86246429D01*
X139407143Y-86317857D01*
X139407143Y-86496429D01*
X139371428Y-86567857D01*
X139335714Y-86603571D01*
X139264285Y-86639286D01*
X139085714Y-86639286D01*
X139014285Y-86603571D01*
X138978571Y-86567857D01*
X143692858Y-99532143D02*
X143692858Y-99889286D01*
X143442858Y-99139286D02*
X143692858Y-99532143D01*
X143942858Y-99139286D01*
X144585715Y-99889286D02*
X144157143Y-99889286D01*
X144371429Y-99889286D02*
X144371429Y-99139286D01*
X144300000Y-99246429D01*
X144228572Y-99317857D01*
X144157143Y-99353571D01*
M02*
