G04 #@! TF.FileFunction,Soldermask,Bot*
%FSLAX46Y46*%
G04 Gerber Fmt 4.6, Leading zero omitted, Abs format (unit mm)*
G04 Created by KiCad (PCBNEW 4.0.7) date Tuesday, 19 '19e' June '19e' 2018, 11:22:24*
%MOMM*%
%LPD*%
G01*
G04 APERTURE LIST*
%ADD10C,0.100000*%
%ADD11C,6.000000*%
%ADD12R,1.700000X1.100000*%
%ADD13R,2.100000X2.100000*%
%ADD14O,2.100000X2.100000*%
%ADD15R,0.850000X1.900000*%
%ADD16O,2.200000X1.500000*%
%ADD17O,2.600000X1.500000*%
%ADD18R,1.600000X2.100000*%
%ADD19O,1.600000X2.100000*%
%ADD20R,0.800000X1.000000*%
G04 APERTURE END LIST*
D10*
D11*
X159900000Y-107800000D03*
X127700000Y-107800000D03*
X159900000Y-75600000D03*
D12*
X142250000Y-92800000D03*
X142250000Y-91700000D03*
X142250000Y-90600000D03*
X145350000Y-90600000D03*
X145350000Y-91700000D03*
X145350000Y-92800000D03*
D13*
X134100000Y-74720000D03*
D14*
X134100000Y-77260000D03*
X134100000Y-79800000D03*
X134100000Y-82340000D03*
X134100000Y-84880000D03*
D15*
X159200000Y-83025000D03*
X159850000Y-83025000D03*
X158550000Y-83025000D03*
X160500000Y-83025000D03*
X157900000Y-83025000D03*
D16*
X156400000Y-83275000D03*
X162000000Y-83275000D03*
D17*
X159200000Y-81125000D03*
D18*
X151790000Y-73990000D03*
D19*
X153790000Y-73990000D03*
D13*
X127375000Y-101785000D03*
D14*
X129915000Y-101785000D03*
X127375000Y-99245000D03*
X129915000Y-99245000D03*
X127375000Y-96705000D03*
X129915000Y-96705000D03*
X127375000Y-94165000D03*
X129915000Y-94165000D03*
X127375000Y-91625000D03*
X129915000Y-91625000D03*
X127375000Y-89085000D03*
X129915000Y-89085000D03*
X127375000Y-86545000D03*
X129915000Y-86545000D03*
X127375000Y-84005000D03*
X129915000Y-84005000D03*
X127375000Y-81465000D03*
X129915000Y-81465000D03*
D20*
X139050000Y-90500000D03*
X139950000Y-90500000D03*
X139050000Y-91700000D03*
X139950000Y-91700000D03*
X139050000Y-92800000D03*
X139950000Y-92800000D03*
D11*
X127700000Y-75600000D03*
M02*
