M48
;DRILL file {KiCad 4.0.7} date Tuesday, 19 '19e' June '19e' 2018, 11:22:27
;FORMAT={3:3/ absolute / metric / suppress leading zeros}
FMAT,2
METRIC,TZ
T1C0.300
T2C0.500
T3C0.750
T4C1.000
T5C3.200
%
G90
G05
M71
T1
X0Y0
X0Y0
X0Y0
X124825Y-97875
X124850Y-78275
X125525Y-104375
X130425Y-72675
X131000Y-105450
X131975Y-101550
X135450Y-97875
X135450Y-101525
X135475Y-105400
X136275Y-77575
X136350Y-91000
X136375Y-87800
X137400Y-74525
X137425Y-88500
X137458Y-82339
X137500Y-83075
X137625Y-85000
X137800Y-95425
X138200Y-99925
X140350Y-96500
X140375Y-77725
X140400Y-105450
X140450Y-87875
X141600Y-83275
X141700Y-87725
X142300Y-85125
X142700Y-81500
X143300Y-78700
X143350Y-90750
X143714Y-81436
X143900Y-91700
X144375Y-104200
X145525Y-96675
X145675Y-80675
X146075Y-87700
X146825Y-94600
X147200Y-83300
X147250Y-98375
X147250Y-99550
X147250Y-100650
X147525Y-103500
X147700Y-86200
X147750Y-94625
X148450Y-98375
X148450Y-99550
X148450Y-100650
X148506Y-92013
X149375Y-103300
X149400Y-87000
X149500Y-94200
X149550Y-98375
X149550Y-99550
X149550Y-100650
X150525Y-96300
X150575Y-85575
X150700Y-77550
X150700Y-105800
X150900Y-91100
X150959Y-81659
X151244Y-93681
X151350Y-102550
X152425Y-105500
X152511Y-93114
X152526Y-91574
X153400Y-87350
X154064Y-93111
X154500Y-84500
X154675Y-77850
X156375Y-85525
X156650Y-96325
X156650Y-100900
X156650Y-105500
X156950Y-91175
X157375Y-72650
X159700Y-92900
X162000Y-85500
X162050Y-97975
X162050Y-104500
X162875Y-77875
T3
X151790Y-73990
X153790Y-73990
T4
X127375Y-81465
X127375Y-84005
X127375Y-86545
X127375Y-89085
X127375Y-91625
X127375Y-94165
X127375Y-96705
X127375Y-99245
X127375Y-101785
X129915Y-81465
X129915Y-84005
X129915Y-86545
X129915Y-89085
X129915Y-91625
X129915Y-94165
X129915Y-96705
X129915Y-99245
X129915Y-101785
X134100Y-74720
X134100Y-77260
X134100Y-79800
X134100Y-82340
X134100Y-84880
T5
X127700Y-75600
X127700Y-107800
X159900Y-75600
X159900Y-107800
T2
X156050Y-83275G85X156750Y-83275
G05
X158650Y-81125G85X159750Y-81125
G05
X161650Y-83275G85X162350Y-83275
G05
T0
M30
