G04 #@! TF.FileFunction,Soldermask,Top*
%FSLAX46Y46*%
G04 Gerber Fmt 4.6, Leading zero omitted, Abs format (unit mm)*
G04 Created by KiCad (PCBNEW 4.0.7) date Tuesday, 19 '19e' June '19e' 2018, 11:22:24*
%MOMM*%
%LPD*%
G01*
G04 APERTURE LIST*
%ADD10C,0.100000*%
%ADD11C,0.320000*%
%ADD12C,6.000000*%
%ADD13R,1.200000X1.150000*%
%ADD14R,0.900000X1.000000*%
%ADD15R,1.000000X0.900000*%
%ADD16R,0.850000X1.000000*%
%ADD17R,1.200000X1.200000*%
%ADD18R,1.000000X1.200000*%
%ADD19R,2.100000X2.100000*%
%ADD20O,2.100000X2.100000*%
%ADD21R,0.800000X1.400000*%
%ADD22R,2.400000X1.700000*%
%ADD23O,2.200000X1.500000*%
%ADD24O,2.600000X1.500000*%
%ADD25R,1.600000X2.100000*%
%ADD26O,1.600000X2.100000*%
%ADD27R,1.200000X1.300000*%
%ADD28R,1.000000X0.800000*%
%ADD29R,0.800000X1.000000*%
%ADD30R,1.050000X1.460000*%
%ADD31R,0.980000X0.750000*%
%ADD32R,0.750000X0.980000*%
%ADD33R,1.150000X1.200000*%
%ADD34R,1.400000X0.800000*%
%ADD35R,1.700000X2.400000*%
%ADD36R,0.650000X1.100000*%
%ADD37R,1.100000X0.650000*%
%ADD38R,2.125000X2.125000*%
%ADD39R,1.000000X1.600000*%
%ADD40R,1.600000X1.000000*%
%ADD41R,1.600000X1.800000*%
G04 APERTURE END LIST*
D10*
D11*
X148200000Y-104050000D03*
X148600000Y-104050000D03*
X148200000Y-103050000D03*
X148600000Y-103050000D03*
D12*
X159900000Y-107800000D03*
X127700000Y-107800000D03*
X159900000Y-75600000D03*
D13*
X155150000Y-85500000D03*
X153650000Y-85500000D03*
D14*
X145600000Y-82050000D03*
X145600000Y-83150000D03*
X153400000Y-91050000D03*
X153400000Y-92150000D03*
D13*
X153350000Y-78600000D03*
X151850000Y-78600000D03*
D14*
X141700000Y-81050000D03*
X141700000Y-82150000D03*
D15*
X140050000Y-79700000D03*
X138950000Y-79700000D03*
D14*
X153400000Y-97550000D03*
X153400000Y-98650000D03*
X154600000Y-97550000D03*
X154600000Y-98650000D03*
X144500000Y-98550000D03*
X144500000Y-97450000D03*
X153400000Y-100850000D03*
X153400000Y-99750000D03*
X143000000Y-98550000D03*
X143000000Y-97450000D03*
X139300000Y-100800000D03*
X139300000Y-101900000D03*
X144150000Y-103000000D03*
X144150000Y-101900000D03*
D16*
X147200000Y-82250000D03*
X147200000Y-84350000D03*
D17*
X153400000Y-82000000D03*
X153400000Y-80400000D03*
X155300000Y-88000000D03*
X156900000Y-88000000D03*
D18*
X135050000Y-87800000D03*
X133350000Y-87800000D03*
X135050000Y-89400000D03*
X133350000Y-89400000D03*
X135050000Y-91000000D03*
X133350000Y-91000000D03*
D19*
X134100000Y-74720000D03*
D20*
X134100000Y-77260000D03*
X134100000Y-79800000D03*
X134100000Y-82340000D03*
X134100000Y-84880000D03*
D21*
X145300000Y-77200000D03*
X144300000Y-77200000D03*
X143300000Y-77200000D03*
X142300000Y-77200000D03*
D22*
X148100000Y-74500000D03*
X139500000Y-74500000D03*
D23*
X156400000Y-83275000D03*
X162000000Y-83275000D03*
D24*
X159200000Y-81125000D03*
D25*
X151790000Y-73990000D03*
D26*
X153790000Y-73990000D03*
D19*
X127375000Y-101785000D03*
D20*
X129915000Y-101785000D03*
X127375000Y-99245000D03*
X129915000Y-99245000D03*
X127375000Y-96705000D03*
X129915000Y-96705000D03*
X127375000Y-94165000D03*
X129915000Y-94165000D03*
X127375000Y-91625000D03*
X129915000Y-91625000D03*
X127375000Y-89085000D03*
X129915000Y-89085000D03*
X127375000Y-86545000D03*
X129915000Y-86545000D03*
X127375000Y-84005000D03*
X129915000Y-84005000D03*
X127375000Y-81465000D03*
X129915000Y-81465000D03*
D27*
X147850000Y-80700000D03*
X149750000Y-80700000D03*
X148800000Y-78700000D03*
D28*
X153400000Y-83350000D03*
X153400000Y-84250000D03*
X151800000Y-81250000D03*
X151800000Y-80350000D03*
D29*
X151650000Y-86700000D03*
X150750000Y-86700000D03*
X153350000Y-89600000D03*
X154250000Y-89600000D03*
D30*
X151775000Y-88350000D03*
X150825000Y-88350000D03*
X149875000Y-88350000D03*
X149875000Y-90550000D03*
X151775000Y-90550000D03*
X151550000Y-82800000D03*
X150600000Y-82800000D03*
X149650000Y-82800000D03*
X149650000Y-85000000D03*
X151550000Y-85000000D03*
D31*
X138375000Y-82700000D03*
X138375000Y-82200000D03*
X138375000Y-81700000D03*
D32*
X138550000Y-81025000D03*
X139050000Y-81025000D03*
X139550000Y-81025000D03*
X140050000Y-81025000D03*
D31*
X140225000Y-82700000D03*
X140225000Y-82200000D03*
X140225000Y-81700000D03*
D32*
X138550000Y-83375000D03*
X139050000Y-83375000D03*
X139550000Y-83375000D03*
X140050000Y-83375000D03*
D12*
X127700000Y-75600000D03*
D14*
X154600000Y-100850000D03*
X154600000Y-99750000D03*
D15*
X150150000Y-103300000D03*
X151250000Y-103300000D03*
X150150000Y-104500000D03*
X151250000Y-104500000D03*
X146775000Y-104650000D03*
X145675000Y-104650000D03*
X146775000Y-103475000D03*
X145675000Y-103475000D03*
X149450000Y-95100000D03*
X150550000Y-95100000D03*
X149450000Y-93300000D03*
X150550000Y-93300000D03*
D14*
X139900000Y-97450000D03*
X139900000Y-98550000D03*
X138400000Y-97450000D03*
X138400000Y-98550000D03*
X141400000Y-97450000D03*
X141400000Y-98550000D03*
D33*
X136700000Y-98550000D03*
X136700000Y-97050000D03*
D15*
X145550000Y-84400000D03*
X144450000Y-84400000D03*
D14*
X136700000Y-95350000D03*
X136700000Y-94250000D03*
D34*
X158300000Y-93200000D03*
X158300000Y-92200000D03*
X158300000Y-91200000D03*
X158300000Y-90200000D03*
D35*
X161000000Y-96000000D03*
X161000000Y-87400000D03*
D29*
X142750000Y-83000000D03*
X143650000Y-83000000D03*
X142150000Y-84300000D03*
X143050000Y-84300000D03*
X151950000Y-95000000D03*
X152850000Y-95000000D03*
X153950000Y-102200000D03*
X153050000Y-102200000D03*
D36*
X150150000Y-97150000D03*
X149650000Y-97150000D03*
X149150000Y-97150000D03*
X148650000Y-97150000D03*
X148150000Y-97150000D03*
X147650000Y-97150000D03*
X147150000Y-97150000D03*
X146650000Y-97150000D03*
D37*
X146000000Y-97800000D03*
X146000000Y-98300000D03*
X146000000Y-98800000D03*
X146000000Y-99300000D03*
X146000000Y-99800000D03*
X146000000Y-100300000D03*
X146000000Y-100800000D03*
X146000000Y-101300000D03*
D36*
X146650000Y-101950000D03*
X147150000Y-101950000D03*
X147650000Y-101950000D03*
X148150000Y-101950000D03*
X148650000Y-101950000D03*
X149150000Y-101950000D03*
X149650000Y-101950000D03*
X150150000Y-101950000D03*
D37*
X150800000Y-101300000D03*
X150800000Y-100800000D03*
X150800000Y-100300000D03*
X150800000Y-99800000D03*
X150800000Y-99300000D03*
X150800000Y-98800000D03*
X150800000Y-98300000D03*
X150800000Y-97800000D03*
D38*
X147537500Y-100412500D03*
X149262500Y-100412500D03*
X147537500Y-98687500D03*
X149262500Y-98687500D03*
D39*
X140400000Y-94750000D03*
X141200000Y-94750000D03*
X142000000Y-94750000D03*
X142800000Y-94750000D03*
X143600000Y-94750000D03*
X144400000Y-94750000D03*
X145200000Y-94750000D03*
X146000000Y-94750000D03*
D40*
X147450000Y-93300000D03*
X147450000Y-92500000D03*
X147450000Y-91700000D03*
X147450000Y-90900000D03*
X147450000Y-90100000D03*
X147450000Y-89300000D03*
X147450000Y-88500000D03*
X147450000Y-87700000D03*
D39*
X146000000Y-86250000D03*
X145200000Y-86250000D03*
X144400000Y-86250000D03*
X143600000Y-86250000D03*
X142800000Y-86250000D03*
X142000000Y-86250000D03*
X141200000Y-86250000D03*
X140400000Y-86250000D03*
D40*
X138950000Y-87700000D03*
X138950000Y-88500000D03*
X138950000Y-89300000D03*
X138950000Y-90100000D03*
X138950000Y-90900000D03*
X138950000Y-91700000D03*
X138950000Y-92500000D03*
X138950000Y-93300000D03*
D41*
X140950000Y-100800000D03*
X140950000Y-103000000D03*
X142650000Y-103000000D03*
X142650000Y-100800000D03*
M02*
